<svg class="toyplot-canvas-Canvas" xmlns:toyplot="http://www.sandia.gov/toyplot" xmlns:xlink="http://www.w3.org/1999/xlink" xmlns="http://www.w3.org/2000/svg" width="1000.0px" height="1300.0px" viewBox="0 0 1000.0 1300.0" preserveAspectRatio="xMidYMid meet" style="background-color:transparent;border-color:#292724;border-style:none;border-width:1.0;fill:rgb(16.1%,15.3%,14.1%);fill-opacity:1.0;font-family:Helvetica;font-size:12px;opacity:1.0;stroke:rgb(16.1%,15.3%,14.1%);stroke-opacity:1.0;stroke-width:1.0" id="t9c9696ef608b4784a400b979c1cfaa85"><g class="toyplot-coordinates-Cartesian" id="ta8c5f761fc324f57bef0fb3cbac92841"><clipPath id="t18ab253bf04f47a4aa27754d0369148c"><rect x="-5.0" y="25.0" width="1010.0" height="1250.0" /></clipPath><g clip-path="url(#t18ab253bf04f47a4aa27754d0369148c)"><g class="toytree-mark-Toytree" id="t34567c3351824c92b6cabcdcf9e3e250"><g class="toytree-Edges" style="fill:none;stroke:rgb(50.2%,50.2%,50.2%);stroke-linecap:round;stroke-opacity:1;stroke-width:4"><path d="M 65.8 117.4 L 65.8 190.8 L 168.8 190.8" id="186,185" /><path d="M 168.8 190.8 L 168.8 63.6 L 631.4 63.6" id="185,184" style="stroke:rgb(91.4%,58.8%,47.8%);stroke-opacity:1.0" /><path d="M 168.8 190.8 L 168.8 317.9 L 193.2 317.9" id="185,183" /><path d="M 193.2 317.9 L 193.2 110.0 L 239.9 110.0" id="183,182" /><path d="M 193.2 317.9 L 193.2 525.8 L 224.4 525.8" id="183,181" /><path d="M 239.9 110.0 L 239.9 89.7 L 799.6 89.7" id="182,180" style="stroke:rgb(28.2%,82%,80%);stroke-opacity:1.0" /><path d="M 239.9 110.0 L 239.9 130.4 L 282.9 130.4" id="182,179" /><path d="M 224.4 525.8 L 224.4 274.2 L 322.4 274.2" id="181,178" /><path d="M 224.4 525.8 L 224.4 777.4 L 274.3 777.4" id="181,177" /><path d="M 282.9 130.4 L 282.9 115.7 L 543.3 115.7" id="179,176" style="stroke:rgb(12.5%,69.8%,66.7%);stroke-opacity:1.0" /><path d="M 282.9 130.4 L 282.9 145.1 L 658.4 145.1" id="179,175" style="stroke:rgb(27.5%,51%,70.6%);stroke-opacity:1.0" /><path d="M 322.4 274.2 L 322.4 190.0 L 454.9 190.0" id="178,174" style="stroke:rgb(46.7%,53.3%,60%);stroke-opacity:1.0" /><path d="M 322.4 274.2 L 322.4 358.4 L 403.6 358.4" id="178,173" style="stroke:rgb(57.6%,43.9%,85.9%);stroke-opacity:1.0" /><path d="M 274.3 777.4 L 274.3 617.2 L 546.7 617.2" id="177,172" /><path d="M 274.3 777.4 L 274.3 937.5 L 316.2 937.5" id="177,171" /><path d="M 658.4 145.1 L 658.4 154.8 L 764.0 154.8" id="175,170" style="stroke:rgb(27.5%,51%,70.6%);stroke-opacity:1.0" /><path d="M 454.9 190.0 L 454.9 205.6 L 511.7 205.6" id="174,169" style="stroke:rgb(46.7%,53.3%,60%);stroke-opacity:1.0" /><path d="M 403.6 358.4 L 403.6 372.9 L 550.3 372.9" id="173,168" style="stroke:rgb(57.6%,43.9%,85.9%);stroke-opacity:1.0" /><path d="M 546.7 617.2 L 546.7 575.1 L 640.5 575.1" id="172,167" style="stroke:rgb(42%,55.7%,13.7%);stroke-opacity:1.0" /><path d="M 546.7 617.2 L 546.7 659.4 L 719.4 659.4" id="172,166" style="stroke:rgb(23.5%,70.2%,44.3%);stroke-opacity:1.0" /><path d="M 316.2 937.5 L 316.2 814.1 L 595.1 814.1" id="171,165" style="stroke:rgb(60.4%,80.4%,19.6%);stroke-opacity:1.0" /><path d="M 316.2 937.5 L 316.2 1060.9 L 344.2 1060.9" id="171,164" /><path d="M 511.7 205.6 L 511.7 223.9 L 558.2 223.9" id="169,163" style="stroke:rgb(46.7%,53.3%,60%);stroke-opacity:1.0" /><path d="M 550.3 372.9 L 550.3 389.1 L 590.7 389.1" id="168,162" style="stroke:rgb(57.6%,43.9%,85.9%);stroke-opacity:1.0" /><path d="M 640.5 575.1 L 640.5 584.8 L 735.1 584.8" id="167,161" style="stroke:rgb(42%,55.7%,13.7%);stroke-opacity:1.0" /><path d="M 719.4 659.4 L 719.4 616.6 L 721.4 616.6" id="166,160" style="stroke:rgb(23.5%,70.2%,44.3%);stroke-opacity:1.0" /><path d="M 719.4 659.4 L 719.4 702.1 L 783.1 702.1" id="166,159" style="stroke:rgb(23.5%,70.2%,44.3%);stroke-opacity:1.0" /><path d="M 595.1 814.1 L 595.1 854.4 L 662.8 854.4" id="165,158" style="stroke:rgb(60.4%,80.4%,19.6%);stroke-opacity:1.0" /><path d="M 344.2 1060.9 L 344.2 1024.6 L 543.3 1024.6" id="164,157" style="stroke:rgb(73.7%,56.1%,56.1%);stroke-opacity:1.0" /><path d="M 344.2 1060.9 L 344.2 1097.2 L 583.4 1097.2" id="164,156" style="stroke:rgb(87.1%,72.2%,52.9%);stroke-opacity:1.0" /><path d="M 558.2 223.9 L 558.2 247.3 L 612.7 247.3" id="163,155" style="stroke:rgb(46.7%,53.3%,60%);stroke-opacity:1.0" /><path d="M 590.7 389.1 L 590.7 408.3 L 620.6 408.3" id="162,154" style="stroke:rgb(57.6%,43.9%,85.9%);stroke-opacity:1.0" /><path d="M 721.4 616.6 L 721.4 628.8 L 764.9 628.8" id="160,153" style="stroke:rgb(23.5%,70.2%,44.3%);stroke-opacity:1.0" /><path d="M 783.1 702.1 L 783.1 679.3 L 795.6 679.3" id="159,152" style="stroke:rgb(23.5%,70.2%,44.3%);stroke-opacity:1.0" /><path d="M 783.1 702.1 L 783.1 724.9 L 793.0 724.9" id="159,151" style="stroke:rgb(23.5%,70.2%,44.3%);stroke-opacity:1.0" /><path d="M 662.8 854.4 L 662.8 808.8 L 728.9 808.8" id="158,150" style="stroke:rgb(60.4%,80.4%,19.6%);stroke-opacity:1.0" /><path d="M 662.8 854.4 L 662.8 900.0 L 674.3 900.0" id="158,149" style="stroke:rgb(60.4%,80.4%,19.6%);stroke-opacity:1.0" /><path d="M 543.3 1024.6 L 543.3 1005.1 L 727.9 1005.1" id="157,148" style="stroke:rgb(73.7%,56.1%,56.1%);stroke-opacity:1.0" /><path d="M 543.3 1024.6 L 543.3 1044.2 L 699.8 1044.2" id="157,147" style="stroke:rgb(73.7%,56.1%,56.1%);stroke-opacity:1.0" /><path d="M 583.4 1097.2 L 583.4 1120.8 L 728.5 1120.8" id="156,146" style="stroke:rgb(87.1%,72.2%,52.9%);stroke-opacity:1.0" /><path d="M 612.7 247.3 L 612.7 220.0 L 810.4 220.0" id="155,145" style="stroke:rgb(46.7%,53.3%,60%);stroke-opacity:1.0" /><path d="M 612.7 247.3 L 612.7 274.6 L 651.1 274.6" id="155,144" style="stroke:rgb(46.7%,53.3%,60%);stroke-opacity:1.0" /><path d="M 620.6 408.3 L 620.6 433.7 L 673.2 433.7" id="154,143" style="stroke:rgb(57.6%,43.9%,85.9%);stroke-opacity:1.0" /><path d="M 764.9 628.8 L 764.9 640.2 L 791.9 640.2" id="153,142" style="stroke:rgb(23.5%,70.2%,44.3%);stroke-opacity:1.0" /><path d="M 795.6 679.3 L 795.6 689.1 L 810.9 689.1" id="152,141" style="stroke:rgb(23.5%,70.2%,44.3%);stroke-opacity:1.0" /><path d="M 793.0 724.9 L 793.0 741.2 L 813.4 741.2" id="151,140" style="stroke:rgb(23.5%,70.2%,44.3%);stroke-opacity:1.0" /><path d="M 728.9 808.8 L 728.9 793.3 L 818.0 793.3" id="150,139" style="stroke:rgb(60.4%,80.4%,19.6%);stroke-opacity:1.0" /><path d="M 728.9 808.8 L 728.9 824.3 L 766.5 824.3" id="150,138" style="stroke:rgb(60.4%,80.4%,19.6%);stroke-opacity:1.0" /><path d="M 674.3 900.0 L 674.3 871.5 L 731.9 871.5" id="149,137" style="stroke:rgb(60.4%,80.4%,19.6%);stroke-opacity:1.0" /><path d="M 674.3 900.0 L 674.3 928.5 L 699.9 928.5" id="149,136" style="stroke:rgb(60.4%,80.4%,19.6%);stroke-opacity:1.0" /><path d="M 727.9 1005.1 L 727.9 1014.9 L 756.2 1014.9" id="148,135" style="stroke:rgb(73.7%,56.1%,56.1%);stroke-opacity:1.0" /><path d="M 699.8 1044.2 L 699.8 1054.0 L 825.9 1054.0" id="147,134" style="stroke:rgb(73.7%,56.1%,56.1%);stroke-opacity:1.0" /><path d="M 728.5 1120.8 L 728.5 1093.0 L 822.3 1093.0" id="146,133" style="stroke:rgb(87.1%,72.2%,52.9%);stroke-opacity:1.0" /><path d="M 728.5 1120.8 L 728.5 1148.6 L 732.1 1148.6" id="146,132" style="stroke:rgb(87.1%,72.2%,52.9%);stroke-opacity:1.0" /><path d="M 651.1 274.6 L 651.1 249.3 L 679.9 249.3" id="144,131" style="stroke:rgb(46.7%,53.3%,60%);stroke-opacity:1.0" /><path d="M 651.1 274.6 L 651.1 299.8 L 687.0 299.8" id="144,130" style="stroke:rgb(46.7%,53.3%,60%);stroke-opacity:1.0" /><path d="M 673.2 433.7 L 673.2 402.4 L 689.5 402.4" id="143,129" style="stroke:rgb(57.6%,43.9%,85.9%);stroke-opacity:1.0" /><path d="M 673.2 433.7 L 673.2 464.9 L 704.1 464.9" id="143,128" style="stroke:rgb(57.6%,43.9%,85.9%);stroke-opacity:1.0" /><path d="M 791.9 640.2 L 791.9 650.0 L 810.9 650.0" id="142,127" style="stroke:rgb(23.5%,70.2%,44.3%);stroke-opacity:1.0" /><path d="M 813.4 741.2 L 813.4 728.2 L 839.0 728.2" id="140,126" style="stroke:rgb(23.5%,70.2%,44.3%);stroke-opacity:1.0" /><path d="M 813.4 741.2 L 813.4 754.2 L 860.5 754.2" id="140,125" style="stroke:rgb(23.5%,70.2%,44.3%);stroke-opacity:1.0" /><path d="M 766.5 824.3 L 766.5 835.7 L 821.7 835.7" id="138,124" style="stroke:rgb(60.4%,80.4%,19.6%);stroke-opacity:1.0" /><path d="M 699.9 928.5 L 699.9 902.5 L 808.5 902.5" id="136,123" style="stroke:rgb(60.4%,80.4%,19.6%);stroke-opacity:1.0" /><path d="M 699.9 928.5 L 699.9 954.6 L 732.0 954.6" id="136,122" style="stroke:rgb(60.4%,80.4%,19.6%);stroke-opacity:1.0" /><path d="M 732.1 1148.6 L 732.1 1119.1 L 797.4 1119.1" id="132,121" style="stroke:rgb(87.1%,72.2%,52.9%);stroke-opacity:1.0" /><path d="M 732.1 1148.6 L 732.1 1178.1 L 761.6 1178.1" id="132,120" style="stroke:rgb(87.1%,72.2%,52.9%);stroke-opacity:1.0" /><path d="M 679.9 249.3 L 679.9 259.1 L 746.5 259.1" id="131,119" style="stroke:rgb(46.7%,53.3%,60%);stroke-opacity:1.0" /><path d="M 687.0 299.8 L 687.0 285.1 L 798.3 285.1" id="130,118" style="stroke:rgb(46.7%,53.3%,60%);stroke-opacity:1.0" /><path d="M 687.0 299.8 L 687.0 314.5 L 702.7 314.5" id="130,117" style="stroke:rgb(46.7%,53.3%,60%);stroke-opacity:1.0" /><path d="M 704.1 464.9 L 704.1 433.4 L 718.6 433.4" id="128,116" style="stroke:rgb(57.6%,43.9%,85.9%);stroke-opacity:1.0" /><path d="M 704.1 464.9 L 704.1 496.5 L 721.6 496.5" id="128,115" style="stroke:rgb(57.6%,43.9%,85.9%);stroke-opacity:1.0" /><path d="M 821.7 835.7 L 821.7 845.5 L 836.8 845.5" id="124,114" style="stroke:rgb(60.4%,80.4%,19.6%);stroke-opacity:1.0" /><path d="M 808.5 902.5 L 808.5 913.9 L 841.7 913.9" id="123,113" style="stroke:rgb(60.4%,80.4%,19.6%);stroke-opacity:1.0" /><path d="M 732.0 954.6 L 732.0 966.0 L 836.8 966.0" id="122,112" style="stroke:rgb(60.4%,80.4%,19.6%);stroke-opacity:1.0" /><path d="M 761.6 1178.1 L 761.6 1148.4 L 779.8 1148.4" id="120,111" style="stroke:rgb(87.1%,72.2%,52.9%);stroke-opacity:1.0" /><path d="M 761.6 1178.1 L 761.6 1207.9 L 773.7 1207.9" id="120,110" style="stroke:rgb(87.1%,72.2%,52.9%);stroke-opacity:1.0" /><path d="M 702.7 314.5 L 702.7 324.2 L 744.1 324.2" id="117,109" style="stroke:rgb(46.7%,53.3%,60%);stroke-opacity:1.0" /><path d="M 718.6 433.4 L 718.6 444.8 L 753.7 444.8" id="116,108" style="stroke:rgb(57.6%,43.9%,85.9%);stroke-opacity:1.0" /><path d="M 721.6 496.5 L 721.6 480.6 L 767.0 480.6" id="115,107" style="stroke:rgb(57.6%,43.9%,85.9%);stroke-opacity:1.0" /><path d="M 721.6 496.5 L 721.6 512.4 L 749.5 512.4" id="115,106" style="stroke:rgb(57.6%,43.9%,85.9%);stroke-opacity:1.0" /><path d="M 841.7 913.9 L 841.7 923.6 L 846.7 923.6" id="113,105" style="stroke:rgb(60.4%,80.4%,19.6%);stroke-opacity:1.0" /><path d="M 836.8 966.0 L 836.8 975.8 L 845.2 975.8" id="112,104" style="stroke:rgb(60.4%,80.4%,19.6%);stroke-opacity:1.0" /><path d="M 779.8 1148.4 L 779.8 1158.2 L 816.7 1158.2" id="111,103" style="stroke:rgb(87.1%,72.2%,52.9%);stroke-opacity:1.0" /><path d="M 773.7 1207.9 L 773.7 1187.5 L 819.0 1187.5" id="110,102" style="stroke:rgb(87.1%,72.2%,52.9%);stroke-opacity:1.0" /><path d="M 773.7 1207.9 L 773.7 1228.2 L 788.7 1228.2" id="110,101" style="stroke:rgb(87.1%,72.2%,52.9%);stroke-opacity:1.0" /><path d="M 753.7 444.8 L 753.7 454.5 L 768.1 454.5" id="108,100" style="stroke:rgb(57.6%,43.9%,85.9%);stroke-opacity:1.0" /><path d="M 749.5 512.4 L 749.5 524.6 L 797.5 524.6" id="106,99" style="stroke:rgb(57.6%,43.9%,85.9%);stroke-opacity:1.0" /><path d="M 819.0 1187.5 L 819.0 1197.3 L 843.3 1197.3" id="102,98" style="stroke:rgb(87.1%,72.2%,52.9%);stroke-opacity:1.0" /><path d="M 788.7 1228.2 L 788.7 1239.6 L 801.8 1239.6" id="101,97" style="stroke:rgb(87.1%,72.2%,52.9%);stroke-opacity:1.0" /><path d="M 797.5 524.6 L 797.5 536.0 L 814.6 536.0" id="99,96" style="stroke:rgb(57.6%,43.9%,85.9%);stroke-opacity:1.0" /><path d="M 801.8 1239.6 L 801.8 1249.4 L 817.7 1249.4" id="97,95" style="stroke:rgb(87.1%,72.2%,52.9%);stroke-opacity:1.0" /><path d="M 814.6 536.0 L 814.6 545.8 L 830.3 545.8" id="96,94" style="stroke:rgb(57.6%,43.9%,85.9%);stroke-opacity:1.0" /><path d="M 65.8 117.4 L 65.8 44.1 L 394.1 44.1" id="186,93" style="stroke:rgb(54.5%,27.1%,7.45%);stroke-opacity:1.0" /><path d="M 631.4 63.6 L 631.4 57.1 L 688.8 57.1" id="184,92" style="stroke:rgb(91.4%,58.8%,47.8%);stroke-opacity:1.0" /><path d="M 631.4 63.6 L 631.4 70.1 L 688.2 70.1" id="184,91" style="stroke:rgb(91.4%,58.8%,47.8%);stroke-opacity:1.0" /><path d="M 799.6 89.7 L 799.6 83.2 L 868.3 83.2" id="180,90" style="stroke:rgb(28.2%,82%,80%);stroke-opacity:1.0" /><path d="M 799.6 89.7 L 799.6 96.2 L 868.3 96.2" id="180,89" style="stroke:rgb(28.2%,82%,80%);stroke-opacity:1.0" /><path d="M 543.3 115.7 L 543.3 109.2 L 868.3 109.2" id="176,88" style="stroke:rgb(12.5%,69.8%,66.7%);stroke-opacity:1.0" /><path d="M 543.3 115.7 L 543.3 122.3 L 543.3 122.3" id="176,87" style="stroke:rgb(12.5%,69.8%,66.7%);stroke-opacity:1.0" /><path d="M 658.4 145.1 L 658.4 135.3 L 658.4 135.3" id="175,86" style="stroke:rgb(27.5%,51%,70.6%);stroke-opacity:1.0" /><path d="M 764.0 154.8 L 764.0 148.3 L 868.3 148.3" id="170,85" style="stroke:rgb(27.5%,51%,70.6%);stroke-opacity:1.0" /><path d="M 764.0 154.8 L 764.0 161.3 L 868.3 161.3" id="170,84" style="stroke:rgb(27.5%,51%,70.6%);stroke-opacity:1.0" /><path d="M 454.9 190.0 L 454.9 174.4 L 531.1 174.4" id="174,83" style="stroke:rgb(46.7%,53.3%,60%);stroke-opacity:1.0" /><path d="M 511.7 205.6 L 511.7 187.4 L 868.3 187.4" id="169,82" style="stroke:rgb(46.7%,53.3%,60%);stroke-opacity:1.0" /><path d="M 558.2 223.9 L 558.2 200.4 L 692.6 200.4" id="163,81" style="stroke:rgb(46.7%,53.3%,60%);stroke-opacity:1.0" /><path d="M 810.4 220.0 L 810.4 213.5 L 868.3 213.5" id="145,80" style="stroke:rgb(46.7%,53.3%,60%);stroke-opacity:1.0" /><path d="M 810.4 220.0 L 810.4 226.5 L 868.3 226.5" id="145,79" style="stroke:rgb(46.7%,53.3%,60%);stroke-opacity:1.0" /><path d="M 679.9 249.3 L 679.9 239.5 L 868.3 239.5" id="131,78" style="stroke:rgb(46.7%,53.3%,60%);stroke-opacity:1.0" /><path d="M 746.5 259.1 L 746.5 252.6 L 868.3 252.6" id="119,77" style="stroke:rgb(46.7%,53.3%,60%);stroke-opacity:1.0" /><path d="M 746.5 259.1 L 746.5 265.6 L 868.3 265.6" id="119,76" style="stroke:rgb(46.7%,53.3%,60%);stroke-opacity:1.0" /><path d="M 798.3 285.1 L 798.3 278.6 L 868.3 278.6" id="118,75" style="stroke:rgb(46.7%,53.3%,60%);stroke-opacity:1.0" /><path d="M 798.3 285.1 L 798.3 291.7 L 868.3 291.7" id="118,74" style="stroke:rgb(46.7%,53.3%,60%);stroke-opacity:1.0" /><path d="M 702.7 314.5 L 702.7 304.7 L 868.3 304.7" id="117,73" style="stroke:rgb(46.7%,53.3%,60%);stroke-opacity:1.0" /><path d="M 744.1 324.2 L 744.1 317.7 L 868.3 317.7" id="109,72" style="stroke:rgb(46.7%,53.3%,60%);stroke-opacity:1.0" /><path d="M 744.1 324.2 L 744.1 330.7 L 868.3 330.7" id="109,71" style="stroke:rgb(46.7%,53.3%,60%);stroke-opacity:1.0" /><path d="M 403.6 358.4 L 403.6 343.8 L 403.6 343.8" id="173,70" style="stroke:rgb(57.6%,43.9%,85.9%);stroke-opacity:1.0" /><path d="M 550.3 372.9 L 550.3 356.8 L 868.3 356.8" id="168,69" style="stroke:rgb(57.6%,43.9%,85.9%);stroke-opacity:1.0" /><path d="M 590.7 389.1 L 590.7 369.8 L 868.3 369.8" id="162,68" style="stroke:rgb(57.6%,43.9%,85.9%);stroke-opacity:1.0" /><path d="M 620.6 408.3 L 620.6 382.9 L 868.3 382.9" id="154,67" style="stroke:rgb(57.6%,43.9%,85.9%);stroke-opacity:1.0" /><path d="M 689.5 402.4 L 689.5 395.9 L 868.3 395.9" id="129,66" style="stroke:rgb(57.6%,43.9%,85.9%);stroke-opacity:1.0" /><path d="M 689.5 402.4 L 689.5 408.9 L 868.3 408.9" id="129,65" style="stroke:rgb(57.6%,43.9%,85.9%);stroke-opacity:1.0" /><path d="M 718.6 433.4 L 718.6 422.0 L 868.3 422.0" id="116,64" style="stroke:rgb(57.6%,43.9%,85.9%);stroke-opacity:1.0" /><path d="M 753.7 444.8 L 753.7 435.0 L 868.3 435.0" id="108,63" style="stroke:rgb(57.6%,43.9%,85.9%);stroke-opacity:1.0" /><path d="M 768.1 454.5 L 768.1 448.0 L 868.3 448.0" id="100,62" style="stroke:rgb(57.6%,43.9%,85.9%);stroke-opacity:1.0" /><path d="M 768.1 454.5 L 768.1 461.1 L 868.3 461.1" id="100,61" style="stroke:rgb(57.6%,43.9%,85.9%);stroke-opacity:1.0" /><path d="M 767.0 480.6 L 767.0 474.1 L 868.3 474.1" id="107,60" style="stroke:rgb(57.6%,43.9%,85.9%);stroke-opacity:1.0" /><path d="M 767.0 480.6 L 767.0 487.1 L 868.3 487.1" id="107,59" style="stroke:rgb(57.6%,43.9%,85.9%);stroke-opacity:1.0" /><path d="M 749.5 512.4 L 749.5 500.1 L 868.3 500.1" id="106,58" style="stroke:rgb(57.6%,43.9%,85.9%);stroke-opacity:1.0" /><path d="M 797.5 524.6 L 797.5 513.2 L 868.3 513.2" id="99,57" style="stroke:rgb(57.6%,43.9%,85.9%);stroke-opacity:1.0" /><path d="M 814.6 536.0 L 814.6 526.2 L 868.3 526.2" id="96,56" style="stroke:rgb(57.6%,43.9%,85.9%);stroke-opacity:1.0" /><path d="M 830.3 545.8 L 830.3 539.2 L 868.3 539.2" id="94,55" style="stroke:rgb(57.6%,43.9%,85.9%);stroke-opacity:1.0" /><path d="M 830.3 545.8 L 830.3 552.3 L 868.3 552.3" id="94,54" style="stroke:rgb(57.6%,43.9%,85.9%);stroke-opacity:1.0" /><path d="M 640.5 575.1 L 640.5 565.3 L 794.6 565.3" id="167,53" style="stroke:rgb(42%,55.7%,13.7%);stroke-opacity:1.0" /><path d="M 735.1 584.8 L 735.1 578.3 L 868.3 578.3" id="161,52" style="stroke:rgb(42%,55.7%,13.7%);stroke-opacity:1.0" /><path d="M 735.1 584.8 L 735.1 591.4 L 868.3 591.4" id="161,51" style="stroke:rgb(42%,55.7%,13.7%);stroke-opacity:1.0" /><path d="M 721.4 616.6 L 721.4 604.4 L 740.3 604.4" id="160,50" style="stroke:rgb(23.5%,70.2%,44.3%);stroke-opacity:1.0" /><path d="M 764.9 628.8 L 764.9 617.4 L 868.3 617.4" id="153,49" style="stroke:rgb(23.5%,70.2%,44.3%);stroke-opacity:1.0" /><path d="M 791.9 640.2 L 791.9 630.5 L 868.3 630.5" id="142,48" style="stroke:rgb(23.5%,70.2%,44.3%);stroke-opacity:1.0" /><path d="M 810.9 650.0 L 810.9 643.5 L 868.3 643.5" id="127,47" style="stroke:rgb(23.5%,70.2%,44.3%);stroke-opacity:1.0" /><path d="M 810.9 650.0 L 810.9 656.5 L 868.3 656.5" id="127,46" style="stroke:rgb(23.5%,70.2%,44.3%);stroke-opacity:1.0" /><path d="M 795.6 679.3 L 795.6 669.5 L 868.3 669.5" id="152,45" style="stroke:rgb(23.5%,70.2%,44.3%);stroke-opacity:1.0" /><path d="M 810.9 689.1 L 810.9 682.6 L 868.3 682.6" id="141,44" style="stroke:rgb(23.5%,70.2%,44.3%);stroke-opacity:1.0" /><path d="M 810.9 689.1 L 810.9 695.6 L 868.3 695.6" id="141,43" style="stroke:rgb(23.5%,70.2%,44.3%);stroke-opacity:1.0" /><path d="M 793.0 724.9 L 793.0 708.6 L 868.4 708.6" id="151,42" style="stroke:rgb(23.5%,70.2%,44.3%);stroke-opacity:1.0" /><path d="M 839.0 728.2 L 839.0 721.7 L 868.4 721.7" id="126,41" style="stroke:rgb(23.5%,70.2%,44.3%);stroke-opacity:1.0" /><path d="M 839.0 728.2 L 839.0 734.7 L 868.4 734.7" id="126,40" style="stroke:rgb(23.5%,70.2%,44.3%);stroke-opacity:1.0" /><path d="M 860.5 754.2 L 860.5 747.7 L 868.3 747.7" id="125,39" style="stroke:rgb(23.5%,70.2%,44.3%);stroke-opacity:1.0" /><path d="M 860.5 754.2 L 860.5 760.8 L 868.3 760.8" id="125,38" style="stroke:rgb(23.5%,70.2%,44.3%);stroke-opacity:1.0" /><path d="M 595.1 814.1 L 595.1 773.8 L 648.3 773.8" id="165,37" style="stroke:rgb(60.4%,80.4%,19.6%);stroke-opacity:1.0" /><path d="M 818.0 793.3 L 818.0 786.8 L 868.3 786.8" id="139,36" style="stroke:rgb(60.4%,80.4%,19.6%);stroke-opacity:1.0" /><path d="M 818.0 793.3 L 818.0 799.9 L 868.3 799.9" id="139,35" style="stroke:rgb(60.4%,80.4%,19.6%);stroke-opacity:1.0" /><path d="M 766.5 824.3 L 766.5 812.9 L 766.5 812.9" id="138,34" style="stroke:rgb(60.4%,80.4%,19.6%);stroke-opacity:1.0" /><path d="M 821.7 835.7 L 821.7 825.9 L 868.3 825.9" id="124,33" style="stroke:rgb(60.4%,80.4%,19.6%);stroke-opacity:1.0" /><path d="M 836.8 845.5 L 836.8 838.9 L 868.3 838.9" id="114,32" style="stroke:rgb(60.4%,80.4%,19.6%);stroke-opacity:1.0" /><path d="M 836.8 845.5 L 836.8 852.0 L 868.3 852.0" id="114,31" style="stroke:rgb(60.4%,80.4%,19.6%);stroke-opacity:1.0" /><path d="M 731.9 871.5 L 731.9 865.0 L 731.9 865.0" id="137,30" style="stroke:rgb(60.4%,80.4%,19.6%);stroke-opacity:1.0" /><path d="M 731.9 871.5 L 731.9 878.0 L 868.3 878.0" id="137,29" style="stroke:rgb(60.4%,80.4%,19.6%);stroke-opacity:1.0" /><path d="M 808.5 902.5 L 808.5 891.1 L 868.3 891.1" id="123,28" style="stroke:rgb(60.4%,80.4%,19.6%);stroke-opacity:1.0" /><path d="M 841.7 913.9 L 841.7 904.1 L 868.3 904.1" id="113,27" style="stroke:rgb(60.4%,80.4%,19.6%);stroke-opacity:1.0" /><path d="M 846.7 923.6 L 846.7 917.1 L 868.3 917.1" id="105,26" style="stroke:rgb(60.4%,80.4%,19.6%);stroke-opacity:1.0" /><path d="M 846.7 923.6 L 846.7 930.2 L 868.3 930.2" id="105,25" style="stroke:rgb(60.4%,80.4%,19.6%);stroke-opacity:1.0" /><path d="M 732.0 954.6 L 732.0 943.2 L 732.0 943.2" id="122,24" style="stroke:rgb(60.4%,80.4%,19.6%);stroke-opacity:1.0" /><path d="M 836.8 966.0 L 836.8 956.2 L 868.3 956.2" id="112,23" style="stroke:rgb(60.4%,80.4%,19.6%);stroke-opacity:1.0" /><path d="M 845.2 975.8 L 845.2 969.3 L 868.3 969.3" id="104,22" style="stroke:rgb(60.4%,80.4%,19.6%);stroke-opacity:1.0" /><path d="M 845.2 975.8 L 845.2 982.3 L 868.3 982.3" id="104,21" style="stroke:rgb(60.4%,80.4%,19.6%);stroke-opacity:1.0" /><path d="M 727.9 1005.1 L 727.9 995.3 L 868.3 995.3" id="148,20" style="stroke:rgb(73.7%,56.1%,56.1%);stroke-opacity:1.0" /><path d="M 756.2 1014.9 L 756.2 1008.3 L 868.3 1008.3" id="135,19" style="stroke:rgb(73.7%,56.1%,56.1%);stroke-opacity:1.0" /><path d="M 756.2 1014.9 L 756.2 1021.4 L 825.5 1021.4" id="135,18" style="stroke:rgb(73.7%,56.1%,56.1%);stroke-opacity:1.0" /><path d="M 699.8 1044.2 L 699.8 1034.4 L 699.8 1034.4" id="147,17" style="stroke:rgb(73.7%,56.1%,56.1%);stroke-opacity:1.0" /><path d="M 825.9 1054.0 L 825.9 1047.4 L 868.3 1047.4" id="134,16" style="stroke:rgb(73.7%,56.1%,56.1%);stroke-opacity:1.0" /><path d="M 825.9 1054.0 L 825.9 1060.5 L 868.3 1060.5" id="134,15" style="stroke:rgb(73.7%,56.1%,56.1%);stroke-opacity:1.0" /><path d="M 583.4 1097.2 L 583.4 1073.5 L 583.4 1073.5" id="156,14" style="stroke:rgb(87.1%,72.2%,52.9%);stroke-opacity:1.0" /><path d="M 822.3 1093.0 L 822.3 1086.5 L 868.3 1086.5" id="133,13" style="stroke:rgb(87.1%,72.2%,52.9%);stroke-opacity:1.0" /><path d="M 822.3 1093.0 L 822.3 1099.6 L 868.3 1099.6" id="133,12" style="stroke:rgb(87.1%,72.2%,52.9%);stroke-opacity:1.0" /><path d="M 797.4 1119.1 L 797.4 1112.6 L 868.4 1112.6" id="121,11" style="stroke:rgb(87.1%,72.2%,52.9%);stroke-opacity:1.0" /><path d="M 797.4 1119.1 L 797.4 1125.6 L 868.4 1125.6" id="121,10" style="stroke:rgb(87.1%,72.2%,52.9%);stroke-opacity:1.0" /><path d="M 779.8 1148.4 L 779.8 1138.7 L 868.3 1138.7" id="111,9" style="stroke:rgb(87.1%,72.2%,52.9%);stroke-opacity:1.0" /><path d="M 816.7 1158.2 L 816.7 1151.7 L 868.3 1151.7" id="103,8" style="stroke:rgb(87.1%,72.2%,52.9%);stroke-opacity:1.0" /><path d="M 816.7 1158.2 L 816.7 1164.7 L 868.3 1164.7" id="103,7" style="stroke:rgb(87.1%,72.2%,52.9%);stroke-opacity:1.0" /><path d="M 819.0 1187.5 L 819.0 1177.7 L 868.4 1177.7" id="102,6" style="stroke:rgb(87.1%,72.2%,52.9%);stroke-opacity:1.0" /><path d="M 843.3 1197.3 L 843.3 1190.8 L 868.4 1190.8" id="98,5" style="stroke:rgb(87.1%,72.2%,52.9%);stroke-opacity:1.0" /><path d="M 843.3 1197.3 L 843.3 1203.8 L 868.4 1203.8" id="98,4" style="stroke:rgb(87.1%,72.2%,52.9%);stroke-opacity:1.0" /><path d="M 788.7 1228.2 L 788.7 1216.8 L 868.4 1216.8" id="101,3" style="stroke:rgb(87.1%,72.2%,52.9%);stroke-opacity:1.0" /><path d="M 801.8 1239.6 L 801.8 1229.9 L 868.4 1229.9" id="97,2" style="stroke:rgb(87.1%,72.2%,52.9%);stroke-opacity:1.0" /><path d="M 817.7 1249.4 L 817.7 1242.9 L 868.4 1242.9" id="95,1" style="stroke:rgb(87.1%,72.2%,52.9%);stroke-opacity:1.0" /><path d="M 817.7 1249.4 L 817.7 1255.9 L 868.4 1255.9" id="95,0" style="stroke:rgb(87.1%,72.2%,52.9%);stroke-opacity:1.0" /></g><g class="toytree-TipLabels" style="fill:rgb(14.9%,14.9%,14.9%);fill-opacity:1.0;font-family:helvetica;font-size:14px;font-weight:normal;stroke:none;white-space:pre"><g transform="translate(868.37,1255.93)rotate(0)"><text x="5.00" y="3.58" style="">Friulian</text></g><g transform="translate(868.37,1242.90)rotate(0)"><text x="5.00" y="3.58" style="">Romansh</text></g><g transform="translate(868.35,1229.87)rotate(0)"><text x="5.00" y="3.58" style="">Ladin</text></g><g transform="translate(868.35,1216.83)rotate(0)"><text x="5.00" y="3.58" style="">Italian</text></g><g transform="translate(868.35,1203.80)rotate(0)"><text x="5.00" y="3.58" style="">French</text></g><g transform="translate(868.35,1190.77)rotate(0)"><text x="5.00" y="3.58" style="">Walloon</text></g><g transform="translate(868.35,1177.74)rotate(0)"><text x="5.00" y="3.58" style="">Provencal</text></g><g transform="translate(868.34,1164.71)rotate(0)"><text x="5.00" y="3.58" style="">Spanish</text></g><g transform="translate(868.34,1151.68)rotate(0)"><text x="5.00" y="3.58" style="">Portuguese</text></g><g transform="translate(868.34,1138.65)rotate(0)"><text x="5.00" y="3.58" style="">Catalan</text></g><g transform="translate(868.35,1125.62)rotate(0)"><text x="5.00" y="3.58" style="">Romanian</text></g><g transform="translate(868.35,1112.59)rotate(0)"><text x="5.00" y="3.58" style="">Arumanian</text></g><g transform="translate(868.34,1099.56)rotate(0)"><text x="5.00" y="3.58" style="">Nuorese</text></g><g transform="translate(868.34,1086.53)rotate(0)"><text x="5.00" y="3.58" style="">Cagliari</text></g><g transform="translate(583.39,1073.50)rotate(0)"><text x="5.00" y="3.58" style="">Latin</text></g><g transform="translate(868.34,1060.47)rotate(0)"><text x="5.00" y="3.58" style="">Irish</text></g><g transform="translate(868.34,1047.44)rotate(0)"><text x="5.00" y="3.58" style="">Scots Gaelic</text></g><g transform="translate(699.82,1034.41)rotate(0)"><text x="5.00" y="3.58" style="">Old Irish</text></g><g transform="translate(825.49,1021.37)rotate(0)"><text x="5.00" y="3.58" style="">Cornish</text></g><g transform="translate(868.34,1008.34)rotate(0)"><text x="5.00" y="3.58" style="">Breton</text></g><g transform="translate(868.34,995.31)rotate(0)"><text x="5.00" y="3.58" style="">Welsh</text></g><g transform="translate(868.34,982.28)rotate(0)"><text x="5.00" y="3.58" style="">Swiss German</text></g><g transform="translate(868.34,969.25)rotate(0)"><text x="5.00" y="3.58" style="">German</text></g><g transform="translate(868.34,956.22)rotate(0)"><text x="5.00" y="3.58" style="">Lux'bourgish</text></g><g transform="translate(732.02,943.19)rotate(0)"><text x="5.00" y="3.58" style="">Old High German</text></g><g transform="translate(868.34,930.16)rotate(0)"><text x="5.00" y="3.58" style="">Dutch</text></g><g transform="translate(868.34,917.13)rotate(0)"><text x="5.00" y="3.58" style="">Flemish</text></g><g transform="translate(868.34,904.10)rotate(0)"><text x="5.00" y="3.58" style="">Afrikaans</text></g><g transform="translate(868.34,891.07)rotate(0)"><text x="5.00" y="3.58" style="">Frisian</text></g><g transform="translate(868.34,878.04)rotate(0)"><text x="5.00" y="3.58" style="">English</text></g><g transform="translate(731.88,865.01)rotate(0)"><text x="5.00" y="3.58" style="">Old English</text></g><g transform="translate(868.34,851.98)rotate(0)"><text x="5.00" y="3.58" style="">Faroese</text></g><g transform="translate(868.34,838.94)rotate(0)"><text x="5.00" y="3.58" style="">Icelandic</text></g><g transform="translate(868.34,825.91)rotate(0)"><text x="5.00" y="3.58" style="">Norwegian</text></g><g transform="translate(766.46,812.88)rotate(0)"><text x="5.00" y="3.58" style="">Old West Norse</text></g><g transform="translate(868.34,799.85)rotate(0)"><text x="5.00" y="3.58" style="">Danish</text></g><g transform="translate(868.34,786.82)rotate(0)"><text x="5.00" y="3.58" style="">Swedish</text></g><g transform="translate(648.25,773.79)rotate(0)"><text x="5.00" y="3.58" style="">Gothic</text></g><g transform="translate(868.34,760.76)rotate(0)"><text x="5.00" y="3.58" style="">Low. Sorbian</text></g><g transform="translate(868.34,747.73)rotate(0)"><text x="5.00" y="3.58" style="">Up. Sorbian</text></g><g transform="translate(868.35,734.70)rotate(0)"><text x="5.00" y="3.58" style="">Czech</text></g><g transform="translate(868.35,721.67)rotate(0)"><text x="5.00" y="3.58" style="">Slovak</text></g><g transform="translate(868.35,708.64)rotate(0)"><text x="5.00" y="3.58" style="">Polish</text></g><g transform="translate(868.34,695.61)rotate(0)"><text x="5.00" y="3.58" style="">Ukrainian</text></g><g transform="translate(868.34,682.58)rotate(0)"><text x="5.00" y="3.58" style="">Belarusian</text></g><g transform="translate(868.34,669.55)rotate(0)"><text x="5.00" y="3.58" style="">Russian</text></g><g transform="translate(868.33,656.52)rotate(0)"><text x="5.00" y="3.58" style="">Macedonian</text></g><g transform="translate(868.33,643.48)rotate(0)"><text x="5.00" y="3.58" style="">Bulgarian</text></g><g transform="translate(868.34,630.45)rotate(0)"><text x="5.00" y="3.58" style="">Serbian</text></g><g transform="translate(868.34,617.42)rotate(0)"><text x="5.00" y="3.58" style="">Slovenian</text></g><g transform="translate(740.27,604.39)rotate(0)"><text x="5.00" y="3.58" style="">Old Church Slavic</text></g><g transform="translate(868.34,591.36)rotate(0)"><text x="5.00" y="3.58" style="">Lithuanian</text></g><g transform="translate(868.34,578.33)rotate(0)"><text x="5.00" y="3.58" style="">Latvian</text></g><g transform="translate(794.63,565.30)rotate(0)"><text x="5.00" y="3.58" style="">Old Prussian</text></g><g transform="translate(868.30,552.27)rotate(0)"><text x="5.00" y="3.58" style="">Panjabi</text></g><g transform="translate(868.30,539.24)rotate(0)"><text x="5.00" y="3.58" style="">Lahnda</text></g><g transform="translate(868.30,526.21)rotate(0)"><text x="5.00" y="3.58" style="">Urdu</text></g><g transform="translate(868.30,513.18)rotate(0)"><text x="5.00" y="3.58" style="">Hindi</text></g><g transform="translate(868.30,500.15)rotate(0)"><text x="5.00" y="3.58" style="">Bihari</text></g><g transform="translate(868.30,487.12)rotate(0)"><text x="5.00" y="3.58" style="">Marathi</text></g><g transform="translate(868.30,474.09)rotate(0)"><text x="5.00" y="3.58" style="">Gujarati</text></g><g transform="translate(868.31,461.06)rotate(0)"><text x="5.00" y="3.58" style="">Assamese</text></g><g transform="translate(868.31,448.02)rotate(0)"><text x="5.00" y="3.58" style="">Oriya</text></g><g transform="translate(868.31,434.99)rotate(0)"><text x="5.00" y="3.58" style="">Bengali</text></g><g transform="translate(868.31,421.96)rotate(0)"><text x="5.00" y="3.58" style="">Nepali</text></g><g transform="translate(868.31,408.93)rotate(0)"><text x="5.00" y="3.58" style="">Marwari</text></g><g transform="translate(868.31,395.90)rotate(0)"><text x="5.00" y="3.58" style="">Sindhi</text></g><g transform="translate(868.31,382.87)rotate(0)"><text x="5.00" y="3.58" style="">Kashmiri</text></g><g transform="translate(868.31,369.84)rotate(0)"><text x="5.00" y="3.58" style="">Romani</text></g><g transform="translate(868.31,356.81)rotate(0)"><text x="5.00" y="3.58" style="">Singhalese</text></g><g transform="translate(403.60,343.78)rotate(0)"><text x="5.00" y="3.58" style="">Vedic Sanskrit</text></g><g transform="translate(868.31,330.75)rotate(0)"><text x="5.00" y="3.58" style="">Kurdish</text></g><g transform="translate(868.31,317.72)rotate(0)"><text x="5.00" y="3.58" style="">Zazaki</text></g><g transform="translate(868.33,304.69)rotate(0)"><text x="5.00" y="3.58" style="">Baluchi</text></g><g transform="translate(868.33,291.66)rotate(0)"><text x="5.00" y="3.58" style="">Tajik</text></g><g transform="translate(868.33,278.63)rotate(0)"><text x="5.00" y="3.58" style="">Persian</text></g><g transform="translate(868.34,265.59)rotate(0)"><text x="5.00" y="3.58" style="">Shughni</text></g><g transform="translate(868.34,252.56)rotate(0)"><text x="5.00" y="3.58" style="">Sariqoli</text></g><g transform="translate(868.33,239.53)rotate(0)"><text x="5.00" y="3.58" style="">Wakhi</text></g><g transform="translate(868.33,226.50)rotate(0)"><text x="5.00" y="3.58" style="">Pashto</text></g><g transform="translate(868.33,213.47)rotate(0)"><text x="5.00" y="3.58" style="">Waziri</text></g><g transform="translate(692.61,200.44)rotate(0)"><text x="5.00" y="3.58" style="">Sogdian</text></g><g transform="translate(868.33,187.41)rotate(0)"><text x="5.00" y="3.58" style="">Digor Ossetic</text></g><g transform="translate(531.13,174.38)rotate(0)"><text x="5.00" y="3.58" style="">Avestan</text></g><g transform="translate(868.33,161.35)rotate(0)"><text x="5.00" y="3.58" style="">East. Armenian</text></g><g transform="translate(868.33,148.32)rotate(0)"><text x="5.00" y="3.58" style="">Adapazar</text></g><g transform="translate(658.45,135.29)rotate(0)"><text x="5.00" y="3.58" style="">Classical Armenian</text></g><g transform="translate(543.26,122.26)rotate(0)"><text x="5.00" y="3.58" style="">Ancient Greek</text></g><g transform="translate(868.33,109.23)rotate(0)"><text x="5.00" y="3.58" style="">Modern Greek</text></g><g transform="translate(868.33,96.20)rotate(0)"><text x="5.00" y="3.58" style="">Tosk</text></g><g transform="translate(868.33,83.17)rotate(0)"><text x="5.00" y="3.58" style="">Arvanitika</text></g><g transform="translate(688.16,70.13)rotate(0)"><text x="5.00" y="3.58" style="">Tocharian B</text></g><g transform="translate(688.76,57.10)rotate(0)"><text x="5.00" y="3.58" style="">Tocharian A</text></g><g transform="translate(394.06,44.07)rotate(0)"><text x="5.00" y="3.58" style="">Hittite</text></g></g></g></g><g class="toyplot-coordinates-Axis" id="tc21424a5d2b849d0b56770a955abcfd7" transform="translate(0.0,30.0)translate(0,-5.0)"><g><g transform="translate(868.3650861459932,-6)"><text x="-4.448" y="0.0" style="fill:rgb(16.1%,15.3%,14.1%);fill-opacity:1.0;font-family:helvetica;font-size:16.0px;font-weight:normal;stroke:none;vertical-align:baseline;white-space:pre">0</text></g><g transform="translate(801.5677718270707,-6)"><text x="-13.344" y="0.0" style="fill:rgb(16.1%,15.3%,14.1%);fill-opacity:1.0;font-family:helvetica;font-size:16.0px;font-weight:normal;stroke:none;vertical-align:baseline;white-space:pre">500</text></g><g transform="translate(734.7704575081482,-6)"><text x="-17.792" y="0.0" style="fill:rgb(16.1%,15.3%,14.1%);fill-opacity:1.0;font-family:helvetica;font-size:16.0px;font-weight:normal;stroke:none;vertical-align:baseline;white-space:pre">1000</text></g><g transform="translate(667.9731431892255,-6)"><text x="-17.792" y="0.0" style="fill:rgb(16.1%,15.3%,14.1%);fill-opacity:1.0;font-family:helvetica;font-size:16.0px;font-weight:normal;stroke:none;vertical-align:baseline;white-space:pre">1500</text></g><g transform="translate(601.175828870303,-6)"><text x="-17.792" y="0.0" style="fill:rgb(16.1%,15.3%,14.1%);fill-opacity:1.0;font-family:helvetica;font-size:16.0px;font-weight:normal;stroke:none;vertical-align:baseline;white-space:pre">2000</text></g><g transform="translate(534.3785145513804,-6)"><text x="-17.792" y="0.0" style="fill:rgb(16.1%,15.3%,14.1%);fill-opacity:1.0;font-family:helvetica;font-size:16.0px;font-weight:normal;stroke:none;vertical-align:baseline;white-space:pre">2500</text></g><g transform="translate(467.5812002324579,-6)"><text x="-17.792" y="0.0" style="fill:rgb(16.1%,15.3%,14.1%);fill-opacity:1.0;font-family:helvetica;font-size:16.0px;font-weight:normal;stroke:none;vertical-align:baseline;white-space:pre">3000</text></g><g transform="translate(400.78388591353536,-6)"><text x="-17.792" y="0.0" style="fill:rgb(16.1%,15.3%,14.1%);fill-opacity:1.0;font-family:helvetica;font-size:16.0px;font-weight:normal;stroke:none;vertical-align:baseline;white-space:pre">3500</text></g><g transform="translate(333.98657159461277,-6)"><text x="-17.792" y="0.0" style="fill:rgb(16.1%,15.3%,14.1%);fill-opacity:1.0;font-family:helvetica;font-size:16.0px;font-weight:normal;stroke:none;vertical-align:baseline;white-space:pre">4000</text></g><g transform="translate(267.1892572756902,-6)"><text x="-17.792" y="0.0" style="fill:rgb(16.1%,15.3%,14.1%);fill-opacity:1.0;font-family:helvetica;font-size:16.0px;font-weight:normal;stroke:none;vertical-align:baseline;white-space:pre">4500</text></g><g transform="translate(200.39194295676768,-6)"><text x="-17.792" y="0.0" style="fill:rgb(16.1%,15.3%,14.1%);fill-opacity:1.0;font-family:helvetica;font-size:16.0px;font-weight:normal;stroke:none;vertical-align:baseline;white-space:pre">5000</text></g><g transform="translate(133.5946286378451,-6)"><text x="-17.792" y="0.0" style="fill:rgb(16.1%,15.3%,14.1%);fill-opacity:1.0;font-family:helvetica;font-size:16.0px;font-weight:normal;stroke:none;vertical-align:baseline;white-space:pre">5500</text></g><g transform="translate(66.79731431892255,-6)"><text x="-17.792" y="0.0" style="fill:rgb(16.1%,15.3%,14.1%);fill-opacity:1.0;font-family:helvetica;font-size:16.0px;font-weight:normal;stroke:none;vertical-align:baseline;white-space:pre">6000</text></g></g><g class="toyplot-coordinates-Axis-coordinates" style="visibility:hidden" transform=""><line x1="0" x2="0" y1="3.0" y2="-4.5" style="stroke:rgb(43.9%,50.2%,56.5%);stroke-opacity:1.0;stroke-width:1.0" /><text x="0" y="6" style="alignment-baseline:hanging;fill:rgb(43.9%,50.2%,56.5%);fill-opacity:1.0;font-size:10px;font-weight:normal;stroke:none;text-anchor:middle" /></g></g></g></svg>