<svg class="toyplot-canvas-Canvas" xmlns:toyplot="http://www.sandia.gov/toyplot" xmlns:xlink="http://www.w3.org/1999/xlink" xmlns="http://www.w3.org/2000/svg" width="600.0px" height="700.0px" viewBox="0 0 600.0 700.0" preserveAspectRatio="xMidYMid meet" style="background-color:transparent;border-color:#292724;border-style:none;border-width:1.0;fill:rgb(16.1%,15.3%,14.1%);fill-opacity:1.0;font-family:Helvetica;font-size:12px;opacity:1.0;stroke:rgb(16.1%,15.3%,14.1%);stroke-opacity:1.0;stroke-width:1.0" id="te414c836ae2646308ae59006a67c73ad"><g class="toyplot-coordinates-Cartesian" id="t3dcd1b3c80554befa956972cb87eb3e1"><clipPath id="t05faded199cd41529cbb65828044cfcc"><rect x="-5.0" y="25.0" width="610.0" height="650.0" /></clipPath><g clip-path="url(#t05faded199cd41529cbb65828044cfcc)"><g class="toyplot-mark-AxisLines" style="stroke:rgb(82.7%,82.7%,82.7%);stroke-dasharray:8,10;stroke-opacity:1.0" id="tfa93dd89cd08491a834f93ea59442886"><g class="toyplot-Series"><line class="toyplot-Datum" x1="472.00117985883196" x2="472.00117985883196" y1="30.0" y2="670.0" style="opacity:1.0;stroke:rgb(82.7%,82.7%,82.7%);stroke-dasharray:8,10;stroke-opacity:1.0" /><line class="toyplot-Datum" x1="424.80106187294876" x2="424.80106187294876" y1="30.0" y2="670.0" style="opacity:1.0;stroke:rgb(82.7%,82.7%,82.7%);stroke-dasharray:8,10;stroke-opacity:1.0" /><line class="toyplot-Datum" x1="377.60094388706557" x2="377.60094388706557" y1="30.0" y2="670.0" style="opacity:1.0;stroke:rgb(82.7%,82.7%,82.7%);stroke-dasharray:8,10;stroke-opacity:1.0" /><line class="toyplot-Datum" x1="330.4008259011824" x2="330.4008259011824" y1="30.0" y2="670.0" style="opacity:1.0;stroke:rgb(82.7%,82.7%,82.7%);stroke-dasharray:8,10;stroke-opacity:1.0" /><line class="toyplot-Datum" x1="283.2007079152991" x2="283.2007079152991" y1="30.0" y2="670.0" style="opacity:1.0;stroke:rgb(82.7%,82.7%,82.7%);stroke-dasharray:8,10;stroke-opacity:1.0" /><line class="toyplot-Datum" x1="236.00058992941598" x2="236.00058992941598" y1="30.0" y2="670.0" style="opacity:1.0;stroke:rgb(82.7%,82.7%,82.7%);stroke-dasharray:8,10;stroke-opacity:1.0" /><line class="toyplot-Datum" x1="188.80047194353278" x2="188.80047194353278" y1="30.0" y2="670.0" style="opacity:1.0;stroke:rgb(82.7%,82.7%,82.7%);stroke-dasharray:8,10;stroke-opacity:1.0" /><line class="toyplot-Datum" x1="141.60035395764956" x2="141.60035395764956" y1="30.0" y2="670.0" style="opacity:1.0;stroke:rgb(82.7%,82.7%,82.7%);stroke-dasharray:8,10;stroke-opacity:1.0" /><line class="toyplot-Datum" x1="94.40023597176639" x2="94.40023597176639" y1="30.0" y2="670.0" style="opacity:1.0;stroke:rgb(82.7%,82.7%,82.7%);stroke-dasharray:8,10;stroke-opacity:1.0" /><line class="toyplot-Datum" x1="47.200117985883196" x2="47.200117985883196" y1="30.0" y2="670.0" style="opacity:1.0;stroke:rgb(82.7%,82.7%,82.7%);stroke-dasharray:8,10;stroke-opacity:1.0" /></g></g><g class="toytree-mark-Toytree" id="t8726ff4281b0436e862c1f067c7cbfb6"><g class="toytree-Edges" style="fill:none;stroke:rgb(50.2%,50.2%,50.2%);stroke-linecap:round;stroke-opacity:1;stroke-width:2"><path d="M 35.8 89.9 L 35.8 137.2 L 110.9 137.2" id="102,101" /><path d="M 110.9 137.2 L 110.9 219.6 L 136.4 219.6" id="101,100" /><path d="M 136.4 219.6 L 136.4 79.9 L 152.2 79.9" id="100,99" /><path d="M 136.4 219.6 L 136.4 359.3 L 143.0 359.3" id="100,98" /><path d="M 152.2 79.9 L 152.2 93.1 L 281.0 93.1" id="99,97" /><path d="M 143.0 359.3 L 143.0 291.2 L 290.8 291.2" id="98,96" /><path d="M 143.0 359.3 L 143.0 427.3 L 200.6 427.3" id="98,95" /><path d="M 281.0 93.1 L 281.0 107.3 L 313.5 107.3" id="97,94" /><path d="M 290.8 291.2 L 290.8 277.7 L 356.5 277.7" id="96,93" /><path d="M 290.8 291.2 L 290.8 304.8 L 406.0 304.8" id="96,92" /><path d="M 200.6 427.3 L 200.6 357.7 L 378.8 357.7" id="95,91" /><path d="M 200.6 427.3 L 200.6 496.9 L 205.3 496.9" id="95,90" /><path d="M 313.5 107.3 L 313.5 123.7 L 346.2 123.7" id="94,89" /><path d="M 406.0 304.8 L 406.0 313.8 L 444.3 313.8" id="92,88" /><path d="M 378.8 357.7 L 378.8 383.5 L 401.0 383.5" id="91,87" /><path d="M 205.3 496.9 L 205.3 473.5 L 368.0 473.5" id="90,86" /><path d="M 205.3 496.9 L 205.3 520.3 L 369.7 520.3" id="90,85" /><path d="M 346.2 123.7 L 346.2 144.5 L 352.7 144.5" id="89,84" /><path d="M 401.0 383.5 L 401.0 354.5 L 433.8 354.5" id="87,83" /><path d="M 401.0 383.5 L 401.0 412.5 L 407.3 412.5" id="87,82" /><path d="M 368.0 473.5 L 368.0 482.6 L 372.4 482.6" id="86,81" /><path d="M 369.7 520.3 L 369.7 539.9 L 409.1 539.9" id="85,80" /><path d="M 352.7 144.5 L 352.7 121.0 L 359.1 121.0" id="84,79" /><path d="M 352.7 144.5 L 352.7 167.9 L 405.5 167.9" id="84,78" /><path d="M 433.8 354.5 L 433.8 365.1 L 457.0 365.1" id="83,77" /><path d="M 407.3 412.5 L 407.3 398.2 L 424.8 398.2" id="82,76" /><path d="M 407.3 412.5 L 407.3 426.8 L 424.5 426.8" id="82,75" /><path d="M 409.1 539.9 L 409.1 518.7 L 450.0 518.7" id="80,74" /><path d="M 409.1 539.9 L 409.1 561.1 L 412.7 561.1" id="80,73" /><path d="M 405.5 167.9 L 405.5 196.7 L 410.3 196.7" id="78,72" /><path d="M 457.0 365.1 L 457.0 374.1 L 459.9 374.1" id="77,71" /><path d="M 424.5 426.8 L 424.5 437.4 L 460.9 437.4" id="75,70" /><path d="M 412.7 561.1 L 412.7 585.4 L 417.1 585.4" id="73,69" /><path d="M 410.3 196.7 L 410.3 162.4 L 425.9 162.4" id="72,68" /><path d="M 410.3 196.7 L 410.3 231.0 L 413.3 231.0" id="72,67" /><path d="M 460.9 437.4 L 460.9 446.4 L 465.3 446.4" id="70,66" /><path d="M 417.1 585.4 L 417.1 557.9 L 426.2 557.9" id="69,65" /><path d="M 417.1 585.4 L 417.1 612.9 L 417.8 612.9" id="69,64" /><path d="M 425.9 162.4 L 425.9 173.7 L 448.0 173.7" id="68,63" /><path d="M 413.3 231.0 L 413.3 217.4 L 446.0 217.4" id="67,62" /><path d="M 413.3 231.0 L 413.3 244.5 L 425.8 244.5" id="67,61" /><path d="M 426.2 557.9 L 426.2 566.9 L 456.3 566.9" id="65,60" /><path d="M 417.8 612.9 L 417.8 594.1 L 441.0 594.1" id="64,59" /><path d="M 417.8 612.9 L 417.8 631.7 L 426.3 631.7" id="64,58" /><path d="M 448.0 173.7 L 448.0 184.3 L 453.0 184.3" id="63,57" /><path d="M 425.8 244.5 L 425.8 253.6 L 439.0 253.6" id="61,56" /><path d="M 441.0 594.1 L 441.0 603.1 L 466.6 603.1" id="59,55" /><path d="M 426.3 631.7 L 426.3 642.3 L 435.5 642.3" id="58,54" /><path d="M 453.0 184.3 L 453.0 193.3 L 460.8 193.3" id="57,53" /><path d="M 435.5 642.3 L 435.5 651.3 L 441.7 651.3" id="54,52" /><path d="M 35.8 89.9 L 35.8 42.7 L 303.6 42.7" id="102,51" /><path d="M 110.9 137.2 L 110.9 54.7 L 402.4 54.7" id="101,50" /><path d="M 152.2 79.9 L 152.2 66.8 L 425.4 66.8" id="99,49" /><path d="M 281.0 93.1 L 281.0 78.8 L 351.6 78.8" id="97,48" /><path d="M 313.5 107.3 L 313.5 90.9 L 313.5 90.9" id="94,47" /><path d="M 346.2 123.7 L 346.2 102.9 L 472.0 102.9" id="89,46" /><path d="M 359.1 121.0 L 359.1 115.0 L 472.0 115.0" id="79,45" /><path d="M 359.1 121.0 L 359.1 127.0 L 472.0 127.0" id="79,44" /><path d="M 405.5 167.9 L 405.5 139.1 L 472.0 139.1" id="78,43" /><path d="M 425.9 162.4 L 425.9 151.1 L 472.0 151.1" id="68,42" /><path d="M 448.0 173.7 L 448.0 163.2 L 472.0 163.2" id="63,41" /><path d="M 453.0 184.3 L 453.0 175.2 L 472.0 175.2" id="57,40" /><path d="M 460.8 193.3 L 460.8 187.3 L 472.0 187.3" id="53,39" /><path d="M 460.8 193.3 L 460.8 199.4 L 472.0 199.4" id="53,38" /><path d="M 446.0 217.4 L 446.0 211.4 L 472.0 211.4" id="62,37" /><path d="M 446.0 217.4 L 446.0 223.5 L 472.0 223.5" id="62,36" /><path d="M 425.8 244.5 L 425.8 235.5 L 472.0 235.5" id="61,35" /><path d="M 439.0 253.6 L 439.0 247.6 L 472.0 247.6" id="56,34" /><path d="M 439.0 253.6 L 439.0 259.6 L 472.0 259.6" id="56,33" /><path d="M 356.5 277.7 L 356.5 271.7 L 472.0 271.7" id="93,32" /><path d="M 356.5 277.7 L 356.5 283.7 L 356.5 283.7" id="93,31" /><path d="M 406.0 304.8 L 406.0 295.8 L 406.0 295.8" id="92,30" /><path d="M 444.3 313.8 L 444.3 307.8 L 472.0 307.8" id="88,29" /><path d="M 444.3 313.8 L 444.3 319.9 L 472.0 319.9" id="88,28" /><path d="M 378.8 357.7 L 378.8 331.9 L 394.9 331.9" id="91,27" /><path d="M 433.8 354.5 L 433.8 344.0 L 433.8 344.0" id="83,26" /><path d="M 457.0 365.1 L 457.0 356.0 L 472.0 356.0" id="77,25" /><path d="M 459.9 374.1 L 459.9 368.1 L 472.0 368.1" id="71,24" /><path d="M 459.9 374.1 L 459.9 380.1 L 472.0 380.1" id="71,23" /><path d="M 424.8 398.2 L 424.8 392.2 L 472.0 392.2" id="76,22" /><path d="M 424.8 398.2 L 424.8 404.2 L 424.8 404.2" id="76,21" /><path d="M 424.5 426.8 L 424.5 416.3 L 424.5 416.3" id="75,20" /><path d="M 460.9 437.4 L 460.9 428.3 L 472.0 428.3" id="70,19" /><path d="M 465.3 446.4 L 465.3 440.4 L 472.0 440.4" id="66,18" /><path d="M 465.3 446.4 L 465.3 452.4 L 472.0 452.4" id="66,17" /><path d="M 368.0 473.5 L 368.0 464.5 L 472.0 464.5" id="86,16" /><path d="M 372.4 482.6 L 372.4 476.5 L 415.0 476.5" id="81,15" /><path d="M 372.4 482.6 L 372.4 488.6 L 472.0 488.6" id="81,14" /><path d="M 369.7 520.3 L 369.7 500.6 L 369.7 500.6" id="85,13" /><path d="M 450.0 518.7 L 450.0 512.7 L 472.0 512.7" id="74,12" /><path d="M 450.0 518.7 L 450.0 524.8 L 472.0 524.8" id="74,11" /><path d="M 412.7 561.1 L 412.7 536.8 L 472.0 536.8" id="73,10" /><path d="M 426.2 557.9 L 426.2 548.9 L 472.0 548.9" id="65,9" /><path d="M 456.3 566.9 L 456.3 560.9 L 472.0 560.9" id="60,8" /><path d="M 456.3 566.9 L 456.3 573.0 L 472.0 573.0" id="60,7" /><path d="M 441.0 594.1 L 441.0 585.0 L 472.0 585.0" id="59,6" /><path d="M 466.6 603.1 L 466.6 597.1 L 472.0 597.1" id="55,5" /><path d="M 466.6 603.1 L 466.6 609.1 L 472.0 609.1" id="55,4" /><path d="M 426.3 631.7 L 426.3 621.2 L 472.0 621.2" id="58,3" /><path d="M 435.5 642.3 L 435.5 633.2 L 472.0 633.2" id="54,2" /><path d="M 441.7 651.3 L 441.7 645.3 L 472.0 645.3" id="52,1" /><path d="M 441.7 651.3 L 441.7 657.3 L 472.0 657.3" id="52,0" /></g><g class="toytree-TipLabels" style="fill:rgb(14.9%,14.9%,14.9%);fill-opacity:1.0;font-family:helvetica;font-size:12px;font-weight:normal;stroke:none;white-space:pre"><g transform="translate(472.00,657.32)rotate(0)"><text x="5.00" y="3.07" style="fill:rgb(87.1%,72.2%,52.9%);fill-opacity:1.0">Friulian</text></g><g transform="translate(472.00,645.27)rotate(0)"><text x="5.00" y="3.07" style="fill:rgb(87.1%,72.2%,52.9%);fill-opacity:1.0">Romansh</text></g><g transform="translate(472.00,633.22)rotate(0)"><text x="5.00" y="3.07" style="fill:rgb(87.1%,72.2%,52.9%);fill-opacity:1.0">Ladin</text></g><g transform="translate(472.00,621.17)rotate(0)"><text x="5.00" y="3.07" style="fill:rgb(87.1%,72.2%,52.9%);fill-opacity:1.0">Italian</text></g><g transform="translate(472.00,609.12)rotate(0)"><text x="5.00" y="3.07" style="fill:rgb(87.1%,72.2%,52.9%);fill-opacity:1.0">Walloon</text></g><g transform="translate(472.00,597.06)rotate(0)"><text x="5.00" y="3.07" style="fill:rgb(87.1%,72.2%,52.9%);fill-opacity:1.0">French</text></g><g transform="translate(472.00,585.01)rotate(0)"><text x="5.00" y="3.07" style="fill:rgb(87.1%,72.2%,52.9%);fill-opacity:1.0">Provencal</text></g><g transform="translate(472.00,572.96)rotate(0)"><text x="5.00" y="3.07" style="fill:rgb(87.1%,72.2%,52.9%);fill-opacity:1.0">Spanish</text></g><g transform="translate(472.00,560.91)rotate(0)"><text x="5.00" y="3.07" style="fill:rgb(87.1%,72.2%,52.9%);fill-opacity:1.0">Portuguese</text></g><g transform="translate(471.99,548.86)rotate(0)"><text x="5.00" y="3.07" style="fill:rgb(87.1%,72.2%,52.9%);fill-opacity:1.0">Catalan</text></g><g transform="translate(471.99,536.80)rotate(0)"><text x="5.00" y="3.07" style="fill:rgb(87.1%,72.2%,52.9%);fill-opacity:1.0">Romanian</text></g><g transform="translate(472.00,524.75)rotate(0)"><text x="5.00" y="3.07" style="fill:rgb(87.1%,72.2%,52.9%);fill-opacity:1.0">Cagliari</text></g><g transform="translate(472.00,512.70)rotate(0)"><text x="5.00" y="3.07" style="fill:rgb(87.1%,72.2%,52.9%);fill-opacity:1.0">Nuorese</text></g><g transform="translate(369.66,500.65)rotate(0)"><text x="5.00" y="3.07" style="fill:rgb(87.1%,72.2%,52.9%);fill-opacity:1.0">Latin</text></g><g transform="translate(472.00,488.60)rotate(0)"><text x="5.00" y="3.07" style="fill:rgb(73.7%,56.1%,56.1%);fill-opacity:1.0">Scots Gaelic</text></g><g transform="translate(415.01,476.54)rotate(0)"><text x="5.00" y="3.07" style="fill:rgb(73.7%,56.1%,56.1%);fill-opacity:1.0">Old Irish</text></g><g transform="translate(472.00,464.49)rotate(0)"><text x="5.00" y="3.07" style="fill:rgb(73.7%,56.1%,56.1%);fill-opacity:1.0">Irish</text></g><g transform="translate(472.00,452.44)rotate(0)"><text x="5.00" y="3.07" style="fill:rgb(60.4%,80.4%,19.6%);fill-opacity:1.0">Swiss German</text></g><g transform="translate(472.00,440.39)rotate(0)"><text x="5.00" y="3.07" style="fill:rgb(60.4%,80.4%,19.6%);fill-opacity:1.0">Luxembourgish</text></g><g transform="translate(472.00,428.34)rotate(0)"><text x="5.00" y="3.07" style="fill:rgb(60.4%,80.4%,19.6%);fill-opacity:1.0">German</text></g><g transform="translate(424.52,416.29)rotate(0)"><text x="5.00" y="3.07" style="fill:rgb(60.4%,80.4%,19.6%);fill-opacity:1.0">Old High German</text></g><g transform="translate(424.81,404.23)rotate(0)"><text x="5.00" y="3.07" style="fill:rgb(60.4%,80.4%,19.6%);fill-opacity:1.0">Old English</text></g><g transform="translate(471.99,392.18)rotate(0)"><text x="5.00" y="3.07" style="fill:rgb(60.4%,80.4%,19.6%);fill-opacity:1.0">English</text></g><g transform="translate(472.00,380.13)rotate(0)"><text x="5.00" y="3.07" style="fill:rgb(60.4%,80.4%,19.6%);fill-opacity:1.0">Norwegian</text></g><g transform="translate(472.00,368.08)rotate(0)"><text x="5.00" y="3.07" style="fill:rgb(60.4%,80.4%,19.6%);fill-opacity:1.0">Faroese</text></g><g transform="translate(472.00,356.03)rotate(0)"><text x="5.00" y="3.07" style="fill:rgb(60.4%,80.4%,19.6%);fill-opacity:1.0">Icelandic</text></g><g transform="translate(433.79,343.97)rotate(0)"><text x="5.00" y="3.07" style="fill:rgb(60.4%,80.4%,19.6%);fill-opacity:1.0">Old West Norse</text></g><g transform="translate(394.93,331.92)rotate(0)"><text x="5.00" y="3.07" style="fill:rgb(60.4%,80.4%,19.6%);fill-opacity:1.0">Gothic</text></g><g transform="translate(471.99,319.87)rotate(0)"><text x="5.00" y="3.07" style="fill:rgb(27.5%,51%,70.6%);fill-opacity:1.0">Eastern Armenian</text></g><g transform="translate(471.99,307.82)rotate(0)"><text x="5.00" y="3.07" style="fill:rgb(27.5%,51%,70.6%);fill-opacity:1.0">Adapazar</text></g><g transform="translate(405.98,295.77)rotate(0)"><text x="5.00" y="3.07" style="fill:rgb(27.5%,51%,70.6%);fill-opacity:1.0">Classical Armenian</text></g><g transform="translate(356.49,283.71)rotate(0)"><text x="5.00" y="3.07" style="fill:rgb(12.5%,69.8%,66.7%);fill-opacity:1.0">Ancient Greek</text></g><g transform="translate(472.00,271.66)rotate(0)"><text x="5.00" y="3.07" style="fill:rgb(12.5%,69.8%,66.7%);fill-opacity:1.0">Modern Greek</text></g><g transform="translate(472.00,259.61)rotate(0)"><text x="5.00" y="3.07" style="fill:rgb(57.6%,43.9%,85.9%);fill-opacity:1.0">Oriya</text></g><g transform="translate(472.00,247.56)rotate(0)"><text x="5.00" y="3.07" style="fill:rgb(57.6%,43.9%,85.9%);fill-opacity:1.0">Assamese</text></g><g transform="translate(472.00,235.51)rotate(0)"><text x="5.00" y="3.07" style="fill:rgb(57.6%,43.9%,85.9%);fill-opacity:1.0">Bengali</text></g><g transform="translate(471.99,223.46)rotate(0)"><text x="5.00" y="3.07" style="fill:rgb(57.6%,43.9%,85.9%);fill-opacity:1.0">Marathi</text></g><g transform="translate(471.99,211.40)rotate(0)"><text x="5.00" y="3.07" style="fill:rgb(57.6%,43.9%,85.9%);fill-opacity:1.0">Gujarati</text></g><g transform="translate(472.00,199.35)rotate(0)"><text x="5.00" y="3.07" style="fill:rgb(57.6%,43.9%,85.9%);fill-opacity:1.0">Lahnda</text></g><g transform="translate(472.00,187.30)rotate(0)"><text x="5.00" y="3.07" style="fill:rgb(57.6%,43.9%,85.9%);fill-opacity:1.0">Panjabi</text></g><g transform="translate(472.00,175.25)rotate(0)"><text x="5.00" y="3.07" style="fill:rgb(57.6%,43.9%,85.9%);fill-opacity:1.0">Urdu</text></g><g transform="translate(472.00,163.20)rotate(0)"><text x="5.00" y="3.07" style="fill:rgb(57.6%,43.9%,85.9%);fill-opacity:1.0">Hindi</text></g><g transform="translate(472.00,151.14)rotate(0)"><text x="5.00" y="3.07" style="fill:rgb(57.6%,43.9%,85.9%);fill-opacity:1.0">Bihari</text></g><g transform="translate(472.00,139.09)rotate(0)"><text x="5.00" y="3.07" style="fill:rgb(57.6%,43.9%,85.9%);fill-opacity:1.0">Nepali</text></g><g transform="translate(472.00,127.04)rotate(0)"><text x="5.00" y="3.07" style="fill:rgb(57.6%,43.9%,85.9%);fill-opacity:1.0">Romani</text></g><g transform="translate(472.00,114.99)rotate(0)"><text x="5.00" y="3.07" style="fill:rgb(57.6%,43.9%,85.9%);fill-opacity:1.0">Singhalese</text></g><g transform="translate(472.00,102.94)rotate(0)"><text x="5.00" y="3.07" style="fill:rgb(57.6%,43.9%,85.9%);fill-opacity:1.0">Kashmiri</text></g><g transform="translate(313.50,90.88)rotate(0)"><text x="5.00" y="3.07" style="fill:rgb(57.6%,43.9%,85.9%);fill-opacity:1.0">Vedic Sanskrit</text></g><g transform="translate(351.65,78.83)rotate(0)"><text x="5.00" y="3.07" style="fill:rgb(46.7%,53.3%,60%);fill-opacity:1.0">Avestan</text></g><g transform="translate(425.42,66.78)rotate(0)"><text x="5.00" y="3.07" style="fill:rgb(23.5%,70.2%,44.3%);fill-opacity:1.0">Old Church Slavic</text></g><g transform="translate(402.37,54.73)rotate(0)"><text x="5.00" y="3.07" style="fill:rgb(91.4%,58.8%,47.8%);fill-opacity:1.0">Tocharian B</text></g><g transform="translate(303.60,42.68)rotate(0)"><text x="5.00" y="3.07" style="fill:rgb(54.5%,27.1%,7.45%);fill-opacity:1.0">Hittite</text></g></g></g></g><g class="toyplot-coordinates-Axis" id="t1af502816fef4341b75e9d9cef734841" transform="translate(0.0,30.0)translate(0,-5.0)"><g><g transform="translate(472.00117985883196,-6)"><text x="-2.78" y="-4.440892098500626e-16" style="fill:rgb(16.1%,15.3%,14.1%);fill-opacity:1.0;font-family:helvetica;font-size:10.0px;font-weight:normal;stroke:none;vertical-align:baseline;white-space:pre">0</text></g><g transform="translate(424.80106187294876,-6)"><text x="-11.12" y="-4.440892098500626e-16" style="fill:rgb(16.1%,15.3%,14.1%);fill-opacity:1.0;font-family:helvetica;font-size:10.0px;font-weight:normal;stroke:none;vertical-align:baseline;white-space:pre">1000</text></g><g transform="translate(377.60094388706557,-6)"><text x="-11.12" y="-4.440892098500626e-16" style="fill:rgb(16.1%,15.3%,14.1%);fill-opacity:1.0;font-family:helvetica;font-size:10.0px;font-weight:normal;stroke:none;vertical-align:baseline;white-space:pre">2000</text></g><g transform="translate(330.4008259011824,-6)"><text x="-11.12" y="-4.440892098500626e-16" style="fill:rgb(16.1%,15.3%,14.1%);fill-opacity:1.0;font-family:helvetica;font-size:10.0px;font-weight:normal;stroke:none;vertical-align:baseline;white-space:pre">3000</text></g><g transform="translate(283.2007079152991,-6)"><text x="-11.12" y="-4.440892098500626e-16" style="fill:rgb(16.1%,15.3%,14.1%);fill-opacity:1.0;font-family:helvetica;font-size:10.0px;font-weight:normal;stroke:none;vertical-align:baseline;white-space:pre">4000</text></g><g transform="translate(236.00058992941598,-6)"><text x="-11.12" y="-4.440892098500626e-16" style="fill:rgb(16.1%,15.3%,14.1%);fill-opacity:1.0;font-family:helvetica;font-size:10.0px;font-weight:normal;stroke:none;vertical-align:baseline;white-space:pre">5000</text></g><g transform="translate(188.80047194353278,-6)"><text x="-11.12" y="-4.440892098500626e-16" style="fill:rgb(16.1%,15.3%,14.1%);fill-opacity:1.0;font-family:helvetica;font-size:10.0px;font-weight:normal;stroke:none;vertical-align:baseline;white-space:pre">6000</text></g><g transform="translate(141.60035395764956,-6)"><text x="-11.12" y="-4.440892098500626e-16" style="fill:rgb(16.1%,15.3%,14.1%);fill-opacity:1.0;font-family:helvetica;font-size:10.0px;font-weight:normal;stroke:none;vertical-align:baseline;white-space:pre">7000</text></g><g transform="translate(94.40023597176639,-6)"><text x="-11.12" y="-4.440892098500626e-16" style="fill:rgb(16.1%,15.3%,14.1%);fill-opacity:1.0;font-family:helvetica;font-size:10.0px;font-weight:normal;stroke:none;vertical-align:baseline;white-space:pre">8000</text></g><g transform="translate(47.200117985883196,-6)"><text x="-11.12" y="-4.440892098500626e-16" style="fill:rgb(16.1%,15.3%,14.1%);fill-opacity:1.0;font-family:helvetica;font-size:10.0px;font-weight:normal;stroke:none;vertical-align:baseline;white-space:pre">9000</text></g></g><g class="toyplot-coordinates-Axis-coordinates" style="visibility:hidden" transform=""><line x1="0" x2="0" y1="3.0" y2="-4.5" style="stroke:rgb(43.9%,50.2%,56.5%);stroke-opacity:1.0;stroke-width:1.0" /><text x="0" y="6" style="alignment-baseline:hanging;fill:rgb(43.9%,50.2%,56.5%);fill-opacity:1.0;font-size:10px;font-weight:normal;stroke:none;text-anchor:middle" /></g></g></g><g class="toyplot-mark-Text" id="t44eabc615bff4543ba604dac574475fe"><g class="toyplot-Series"><g class="toyplot-Datum" transform="translate(150.0,650.0)"><text x="-106.56" y="4.599" style="fill:rgb(16.1%,15.3%,14.1%);fill-opacity:1.0;font-family:helvetica;font-size:18.0px;font-weight:normal;opacity:1;stroke:none;vertical-align:baseline;white-space:pre">Root Age: 9242 years B.P.</text></g></g></g></svg>