<svg class="toyplot-canvas-Canvas" xmlns:toyplot="http://www.sandia.gov/toyplot" xmlns:xlink="http://www.w3.org/1999/xlink" xmlns="http://www.w3.org/2000/svg" width="600.0px" height="700.0px" viewBox="0 0 600.0 700.0" preserveAspectRatio="xMidYMid meet" style="background-color:transparent;border-color:#292724;border-style:none;border-width:1.0;fill:rgb(16.1%,15.3%,14.1%);fill-opacity:1.0;font-family:Helvetica;font-size:12px;opacity:1.0;stroke:rgb(16.1%,15.3%,14.1%);stroke-opacity:1.0;stroke-width:1.0" id="te2f0492915f04304bfed75064ca85e5c"><g class="toyplot-coordinates-Cartesian" id="t0df26f17e8524c5f8c90a0b4d41337ff"><clipPath id="tc8a73acc94a64013aca186cabc71d17e"><rect x="-5.0" y="25.0" width="610.0" height="650.0" /></clipPath><g clip-path="url(#tc8a73acc94a64013aca186cabc71d17e)"><g class="toyplot-mark-AxisLines" style="stroke:rgb(82.7%,82.7%,82.7%);stroke-dasharray:8,10;stroke-opacity:1.0" id="ta06f31e19051452cb1960636bc94ec8b"><g class="toyplot-Series"><line class="toyplot-Datum" x1="474.6538784363952" x2="474.6538784363952" y1="30.0" y2="670.0" style="opacity:1.0;stroke:rgb(82.7%,82.7%,82.7%);stroke-dasharray:8,10;stroke-opacity:1.0" /><line class="toyplot-Datum" x1="427.18849059275567" x2="427.18849059275567" y1="30.0" y2="670.0" style="opacity:1.0;stroke:rgb(82.7%,82.7%,82.7%);stroke-dasharray:8,10;stroke-opacity:1.0" /><line class="toyplot-Datum" x1="379.7231027491161" x2="379.7231027491161" y1="30.0" y2="670.0" style="opacity:1.0;stroke:rgb(82.7%,82.7%,82.7%);stroke-dasharray:8,10;stroke-opacity:1.0" /><line class="toyplot-Datum" x1="332.25771490547663" x2="332.25771490547663" y1="30.0" y2="670.0" style="opacity:1.0;stroke:rgb(82.7%,82.7%,82.7%);stroke-dasharray:8,10;stroke-opacity:1.0" /><line class="toyplot-Datum" x1="284.7923270618371" x2="284.7923270618371" y1="30.0" y2="670.0" style="opacity:1.0;stroke:rgb(82.7%,82.7%,82.7%);stroke-dasharray:8,10;stroke-opacity:1.0" /><line class="toyplot-Datum" x1="237.3269392181976" x2="237.3269392181976" y1="30.0" y2="670.0" style="opacity:1.0;stroke:rgb(82.7%,82.7%,82.7%);stroke-dasharray:8,10;stroke-opacity:1.0" /><line class="toyplot-Datum" x1="189.86155137455805" x2="189.86155137455805" y1="30.0" y2="670.0" style="opacity:1.0;stroke:rgb(82.7%,82.7%,82.7%);stroke-dasharray:8,10;stroke-opacity:1.0" /><line class="toyplot-Datum" x1="142.39616353091856" x2="142.39616353091856" y1="30.0" y2="670.0" style="opacity:1.0;stroke:rgb(82.7%,82.7%,82.7%);stroke-dasharray:8,10;stroke-opacity:1.0" /><line class="toyplot-Datum" x1="94.93077568727902" x2="94.93077568727902" y1="30.0" y2="670.0" style="opacity:1.0;stroke:rgb(82.7%,82.7%,82.7%);stroke-dasharray:8,10;stroke-opacity:1.0" /><line class="toyplot-Datum" x1="47.46538784363951" x2="47.46538784363951" y1="30.0" y2="670.0" style="opacity:1.0;stroke:rgb(82.7%,82.7%,82.7%);stroke-dasharray:8,10;stroke-opacity:1.0" /></g></g><g class="toytree-mark-Toytree" id="taa969c7145e441329cae58f415edbd1b"><g class="toytree-Edges" style="fill:none;stroke:rgb(50.2%,50.2%,50.2%);stroke-linecap:round;stroke-opacity:1;stroke-width:2"><path d="M 50.0 79.3 L 50.0 115.9 L 90.9 115.9" id="102,101" /><path d="M 90.9 115.9 L 90.9 60.8 L 161.8 60.8" id="101,100" /><path d="M 90.9 115.9 L 90.9 171.1 L 118.5 171.1" id="101,99" /><path d="M 118.5 171.1 L 118.5 84.9 L 155.3 84.9" id="99,98" /><path d="M 118.5 171.1 L 118.5 257.4 L 137.1 257.4" id="99,97" /><path d="M 137.1 257.4 L 137.1 115.7 L 175.8 115.7" id="97,96" /><path d="M 137.1 257.4 L 137.1 399.1 L 142.6 399.1" id="97,95" /><path d="M 175.8 115.7 L 175.8 128.4 L 251.0 128.4" id="96,94" /><path d="M 142.6 399.1 L 142.6 352.8 L 214.0 352.8" id="95,93" /><path d="M 142.6 399.1 L 142.6 445.3 L 229.2 445.3" id="95,92" /><path d="M 251.0 128.4 L 251.0 141.9 L 283.6 141.9" id="94,91" /><path d="M 214.0 352.8 L 214.0 337.9 L 221.7 337.9" id="93,90" /><path d="M 214.0 352.8 L 214.0 367.7 L 217.6 367.7" id="93,89" /><path d="M 229.2 445.3 L 229.2 462.3 L 234.0 462.3" id="92,88" /><path d="M 283.6 141.9 L 283.6 156.7 L 299.7 156.7" id="91,87" /><path d="M 217.6 367.7 L 217.6 379.4 L 297.9 379.4" id="89,86" /><path d="M 234.0 462.3 L 234.0 484.2 L 238.4 484.2" id="88,85" /><path d="M 299.7 156.7 L 299.7 174.4 L 327.5 174.4" id="87,84" /><path d="M 297.9 379.4 L 297.9 390.7 L 353.1 390.7" id="86,83" /><path d="M 238.4 484.2 L 238.4 516.0 L 376.0 516.0" id="85,82" /><path d="M 327.5 174.4 L 327.5 197.6 L 330.1 197.6" id="84,81" /><path d="M 353.1 390.7 L 353.1 401.2 L 365.2 401.2" id="83,80" /><path d="M 376.0 516.0 L 376.0 473.5 L 386.1 473.5" id="82,79" /><path d="M 376.0 516.0 L 376.0 558.5 L 376.7 558.5" id="82,78" /><path d="M 330.1 197.6 L 330.1 172.2 L 338.9 172.2" id="81,77" /><path d="M 330.1 197.6 L 330.1 223.0 L 347.2 223.0" id="81,76" /><path d="M 365.2 401.2 L 365.2 410.3 L 386.8 410.3" id="80,75" /><path d="M 386.1 473.5 L 386.1 482.6 L 407.1 482.6" id="79,74" /><path d="M 376.7 558.5 L 376.7 521.0 L 426.4 521.0" id="78,73" /><path d="M 376.7 558.5 L 376.7 595.9 L 389.5 595.9" id="78,72" /><path d="M 338.9 172.2 L 338.9 181.3 L 343.1 181.3" id="77,71" /><path d="M 347.2 223.0 L 347.2 246.6 L 369.7 246.6" id="76,70" /><path d="M 426.4 521.0 L 426.4 506.7 L 465.7 506.7" id="73,69" /><path d="M 426.4 521.0 L 426.4 535.3 L 427.0 535.3" id="73,68" /><path d="M 389.5 595.9 L 389.5 579.0 L 464.7 579.0" id="72,67" /><path d="M 389.5 595.9 L 389.5 612.9 L 395.9 612.9" id="72,66" /><path d="M 369.7 246.6 L 369.7 221.9 L 384.0 221.9" id="70,65" /><path d="M 369.7 246.6 L 369.7 271.3 L 395.9 271.3" id="70,64" /><path d="M 427.0 535.3 L 427.0 545.8 L 432.4 545.8" id="68,63" /><path d="M 395.9 612.9 L 395.9 628.7 L 402.4 628.7" id="66,62" /><path d="M 384.0 221.9 L 384.0 232.5 L 384.8 232.5" id="65,61" /><path d="M 395.9 271.3 L 395.9 283.0 L 397.4 283.0" id="64,60" /><path d="M 432.4 545.8 L 432.4 554.9 L 460.3 554.9" id="63,59" /><path d="M 402.4 628.7 L 402.4 615.1 L 429.0 615.1" id="62,58" /><path d="M 402.4 628.7 L 402.4 642.3 L 442.0 642.3" id="62,57" /><path d="M 384.8 232.5 L 384.8 241.5 L 391.4 241.5" id="61,56" /><path d="M 397.4 283.0 L 397.4 294.3 L 419.1 294.3" id="60,55" /><path d="M 442.0 642.3 L 442.0 651.3 L 452.4 651.3" id="57,54" /><path d="M 419.1 294.3 L 419.1 304.8 L 437.6 304.8" id="55,53" /><path d="M 437.6 304.8 L 437.6 313.8 L 445.1 313.8" id="53,52" /><path d="M 50.0 79.3 L 50.0 42.7 L 139.3 42.7" id="102,51" /><path d="M 161.8 60.8 L 161.8 54.7 L 239.5 54.7" id="100,50" /><path d="M 161.8 60.8 L 161.8 66.8 L 341.4 66.8" id="100,49" /><path d="M 155.3 84.9 L 155.3 78.8 L 183.0 78.8" id="98,48" /><path d="M 155.3 84.9 L 155.3 90.9 L 235.3 90.9" id="98,47" /><path d="M 175.8 115.7 L 175.8 102.9 L 383.0 102.9" id="96,46" /><path d="M 251.0 128.4 L 251.0 115.0 L 474.6 115.0" id="94,45" /><path d="M 283.6 141.9 L 283.6 127.0 L 474.6 127.0" id="91,44" /><path d="M 299.7 156.7 L 299.7 139.1 L 474.6 139.1" id="87,43" /><path d="M 327.5 174.4 L 327.5 151.1 L 474.6 151.1" id="84,42" /><path d="M 338.9 172.2 L 338.9 163.2 L 474.7 163.2" id="77,41" /><path d="M 343.1 181.3 L 343.1 175.2 L 474.6 175.2" id="71,40" /><path d="M 343.1 181.3 L 343.1 187.3 L 474.6 187.3" id="71,39" /><path d="M 347.2 223.0 L 347.2 199.4 L 474.6 199.4" id="76,38" /><path d="M 384.0 221.9 L 384.0 211.4 L 474.6 211.4" id="65,37" /><path d="M 384.8 232.5 L 384.8 223.5 L 474.7 223.5" id="61,36" /><path d="M 391.4 241.5 L 391.4 235.5 L 474.7 235.5" id="56,35" /><path d="M 391.4 241.5 L 391.4 247.6 L 474.7 247.6" id="56,34" /><path d="M 395.9 271.3 L 395.9 259.6 L 474.6 259.6" id="64,33" /><path d="M 397.4 283.0 L 397.4 271.7 L 474.7 271.7" id="60,32" /><path d="M 419.1 294.3 L 419.1 283.7 L 474.7 283.7" id="55,31" /><path d="M 437.6 304.8 L 437.6 295.8 L 474.7 295.8" id="53,30" /><path d="M 445.1 313.8 L 445.1 307.8 L 474.7 307.8" id="52,29" /><path d="M 445.1 313.8 L 445.1 319.9 L 474.7 319.9" id="52,28" /><path d="M 221.7 337.9 L 221.7 331.9 L 365.0 331.9" id="90,27" /><path d="M 221.7 337.9 L 221.7 344.0 L 333.9 344.0" id="90,26" /><path d="M 217.6 367.7 L 217.6 356.0 L 474.6 356.0" id="89,25" /><path d="M 297.9 379.4 L 297.9 368.1 L 316.7 368.1" id="86,24" /><path d="M 353.1 390.7 L 353.1 380.1 L 374.3 380.1" id="83,23" /><path d="M 365.2 401.2 L 365.2 392.2 L 381.9 392.2" id="80,22" /><path d="M 386.8 410.3 L 386.8 404.2 L 402.2 404.2" id="75,21" /><path d="M 386.8 410.3 L 386.8 416.3 L 474.6 416.3" id="75,20" /><path d="M 229.2 445.3 L 229.2 428.3 L 474.6 428.3" id="92,19" /><path d="M 234.0 462.3 L 234.0 440.4 L 269.9 440.4" id="88,18" /><path d="M 238.4 484.2 L 238.4 452.4 L 474.6 452.4" id="85,17" /><path d="M 386.1 473.5 L 386.1 464.5 L 474.6 464.5" id="79,16" /><path d="M 407.1 482.6 L 407.1 476.5 L 474.6 476.5" id="74,15" /><path d="M 407.1 482.6 L 407.1 488.6 L 474.6 488.6" id="74,14" /><path d="M 465.7 506.7 L 465.7 500.6 L 474.6 500.6" id="69,13" /><path d="M 465.7 506.7 L 465.7 512.7 L 474.6 512.7" id="69,12" /><path d="M 427.0 535.3 L 427.0 524.8 L 474.6 524.8" id="68,11" /><path d="M 432.4 545.8 L 432.4 536.8 L 474.6 536.8" id="63,10" /><path d="M 460.3 554.9 L 460.3 548.9 L 474.6 548.9" id="59,9" /><path d="M 460.3 554.9 L 460.3 560.9 L 474.6 560.9" id="59,8" /><path d="M 464.7 579.0 L 464.7 573.0 L 474.6 573.0" id="67,7" /><path d="M 464.7 579.0 L 464.7 585.0 L 474.6 585.0" id="67,6" /><path d="M 395.9 612.9 L 395.9 597.1 L 474.6 597.1" id="66,5" /><path d="M 429.0 615.1 L 429.0 609.1 L 474.6 609.1" id="58,4" /><path d="M 429.0 615.1 L 429.0 621.2 L 474.6 621.2" id="58,3" /><path d="M 442.0 642.3 L 442.0 633.2 L 474.6 633.2" id="57,2" /><path d="M 452.4 651.3 L 452.4 645.3 L 474.6 645.3" id="54,1" /><path d="M 452.4 651.3 L 452.4 657.3 L 474.6 657.3" id="54,0" /></g><g class="toytree-TipLabels" style="fill:rgb(14.9%,14.9%,14.9%);fill-opacity:1.0;font-family:helvetica;font-size:12px;font-weight:normal;stroke:none;white-space:pre"><g transform="translate(474.64,657.32)rotate(0)"><text x="5.00" y="3.07" style="fill:rgb(87.1%,72.2%,52.9%);fill-opacity:1.0">Walloon</text></g><g transform="translate(474.64,645.27)rotate(0)"><text x="5.00" y="3.07" style="fill:rgb(87.1%,72.2%,52.9%);fill-opacity:1.0">French</text></g><g transform="translate(474.64,633.22)rotate(0)"><text x="5.00" y="3.07" style="fill:rgb(87.1%,72.2%,52.9%);fill-opacity:1.0">Provencal</text></g><g transform="translate(474.63,621.17)rotate(0)"><text x="5.00" y="3.07" style="fill:rgb(87.1%,72.2%,52.9%);fill-opacity:1.0">Nuorese</text></g><g transform="translate(474.63,609.12)rotate(0)"><text x="5.00" y="3.07" style="fill:rgb(87.1%,72.2%,52.9%);fill-opacity:1.0">Cagliari</text></g><g transform="translate(474.64,597.06)rotate(0)"><text x="5.00" y="3.07" style="fill:rgb(87.1%,72.2%,52.9%);fill-opacity:1.0">Italian</text></g><g transform="translate(474.63,585.01)rotate(0)"><text x="5.00" y="3.07" style="fill:rgb(87.1%,72.2%,52.9%);fill-opacity:1.0">Spanish</text></g><g transform="translate(474.63,572.96)rotate(0)"><text x="5.00" y="3.07" style="fill:rgb(87.1%,72.2%,52.9%);fill-opacity:1.0">Portuguese</text></g><g transform="translate(474.64,560.91)rotate(0)"><text x="5.00" y="3.07" style="fill:rgb(60.4%,80.4%,19.6%);fill-opacity:1.0">Faroese</text></g><g transform="translate(474.64,548.86)rotate(0)"><text x="5.00" y="3.07" style="fill:rgb(60.4%,80.4%,19.6%);fill-opacity:1.0">Norwegian</text></g><g transform="translate(474.64,536.80)rotate(0)"><text x="5.00" y="3.07" style="fill:rgb(60.4%,80.4%,19.6%);fill-opacity:1.0">German</text></g><g transform="translate(474.64,524.75)rotate(0)"><text x="5.00" y="3.07" style="fill:rgb(60.4%,80.4%,19.6%);fill-opacity:1.0">English</text></g><g transform="translate(474.64,512.70)rotate(0)"><text x="5.00" y="3.07" style="fill:rgb(60.4%,80.4%,19.6%);fill-opacity:1.0">Swiss German</text></g><g transform="translate(474.64,500.65)rotate(0)"><text x="5.00" y="3.07" style="fill:rgb(60.4%,80.4%,19.6%);fill-opacity:1.0">Luxembourgish</text></g><g transform="translate(474.64,488.60)rotate(0)"><text x="5.00" y="3.07" style="fill:rgb(87.1%,72.2%,52.9%);fill-opacity:1.0">Romansh</text></g><g transform="translate(474.64,476.54)rotate(0)"><text x="5.00" y="3.07" style="fill:rgb(87.1%,72.2%,52.9%);fill-opacity:1.0">Ladin</text></g><g transform="translate(474.64,464.49)rotate(0)"><text x="5.00" y="3.07" style="fill:rgb(87.1%,72.2%,52.9%);fill-opacity:1.0">Friulian</text></g><g transform="translate(474.64,452.44)rotate(0)"><text x="5.00" y="3.07" style="fill:rgb(27.5%,51%,70.6%);fill-opacity:1.0">Adapazar</text></g><g transform="translate(269.89,440.39)rotate(0)"><text x="5.00" y="3.07" style="fill:rgb(87.1%,72.2%,52.9%);fill-opacity:1.0">Latin</text></g><g transform="translate(474.64,428.34)rotate(0)"><text x="5.00" y="3.07" style="fill:rgb(87.1%,72.2%,52.9%);fill-opacity:1.0">Catalan</text></g><g transform="translate(474.64,416.29)rotate(0)"><text x="5.00" y="3.07" style="fill:rgb(60.4%,80.4%,19.6%);fill-opacity:1.0">Icelandic</text></g><g transform="translate(402.17,404.23)rotate(0)"><text x="5.00" y="3.07" style="fill:rgb(60.4%,80.4%,19.6%);fill-opacity:1.0">Old West Norse</text></g><g transform="translate(381.86,392.18)rotate(0)"><text x="5.00" y="3.07" style="fill:rgb(60.4%,80.4%,19.6%);fill-opacity:1.0">Old English</text></g><g transform="translate(374.29,380.13)rotate(0)"><text x="5.00" y="3.07" style="fill:rgb(60.4%,80.4%,19.6%);fill-opacity:1.0">Old High German</text></g><g transform="translate(316.66,368.08)rotate(0)"><text x="5.00" y="3.07" style="fill:rgb(60.4%,80.4%,19.6%);fill-opacity:1.0">Gothic</text></g><g transform="translate(474.63,356.03)rotate(0)"><text x="5.00" y="3.07" style="fill:rgb(73.7%,56.1%,56.1%);fill-opacity:1.0">Scots Gaelic</text></g><g transform="translate(333.88,343.97)rotate(0)"><text x="5.00" y="3.07" style="fill:rgb(91.4%,58.8%,47.8%);fill-opacity:1.0">Tocharian B</text></g><g transform="translate(364.97,331.92)rotate(0)"><text x="5.00" y="3.07" style="fill:rgb(73.7%,56.1%,56.1%);fill-opacity:1.0">Old Irish</text></g><g transform="translate(474.65,319.87)rotate(0)"><text x="5.00" y="3.07" style="fill:rgb(57.6%,43.9%,85.9%);fill-opacity:1.0">Lahnda</text></g><g transform="translate(474.65,307.82)rotate(0)"><text x="5.00" y="3.07" style="fill:rgb(57.6%,43.9%,85.9%);fill-opacity:1.0">Panjabi</text></g><g transform="translate(474.65,295.77)rotate(0)"><text x="5.00" y="3.07" style="fill:rgb(57.6%,43.9%,85.9%);fill-opacity:1.0">Urdu</text></g><g transform="translate(474.65,283.71)rotate(0)"><text x="5.00" y="3.07" style="fill:rgb(57.6%,43.9%,85.9%);fill-opacity:1.0">Bihari</text></g><g transform="translate(474.65,271.66)rotate(0)"><text x="5.00" y="3.07" style="fill:rgb(57.6%,43.9%,85.9%);fill-opacity:1.0">Marathi</text></g><g transform="translate(474.64,259.61)rotate(0)"><text x="5.00" y="3.07" style="fill:rgb(57.6%,43.9%,85.9%);fill-opacity:1.0">Gujarati</text></g><g transform="translate(474.65,247.56)rotate(0)"><text x="5.00" y="3.07" style="fill:rgb(57.6%,43.9%,85.9%);fill-opacity:1.0">Nepali</text></g><g transform="translate(474.65,235.51)rotate(0)"><text x="5.00" y="3.07" style="fill:rgb(57.6%,43.9%,85.9%);fill-opacity:1.0">Oriya</text></g><g transform="translate(474.65,223.46)rotate(0)"><text x="5.00" y="3.07" style="fill:rgb(57.6%,43.9%,85.9%);fill-opacity:1.0">Romani</text></g><g transform="translate(474.64,211.40)rotate(0)"><text x="5.00" y="3.07" style="fill:rgb(57.6%,43.9%,85.9%);fill-opacity:1.0">Hindi</text></g><g transform="translate(474.64,199.35)rotate(0)"><text x="5.00" y="3.07" style="fill:rgb(12.5%,69.8%,66.7%);fill-opacity:1.0">Modern Greek</text></g><g transform="translate(474.64,187.30)rotate(0)"><text x="5.00" y="3.07" style="fill:rgb(57.6%,43.9%,85.9%);fill-opacity:1.0">Bengali</text></g><g transform="translate(474.64,175.25)rotate(0)"><text x="5.00" y="3.07" style="fill:rgb(27.5%,51%,70.6%);fill-opacity:1.0">Eastern Armenian</text></g><g transform="translate(474.65,163.20)rotate(0)"><text x="5.00" y="3.07" style="fill:rgb(87.1%,72.2%,52.9%);fill-opacity:1.0">Romanian</text></g><g transform="translate(474.64,151.14)rotate(0)"><text x="5.00" y="3.07" style="fill:rgb(73.7%,56.1%,56.1%);fill-opacity:1.0">Irish</text></g><g transform="translate(474.64,139.09)rotate(0)"><text x="5.00" y="3.07" style="fill:rgb(57.6%,43.9%,85.9%);fill-opacity:1.0">Assamese</text></g><g transform="translate(474.64,127.04)rotate(0)"><text x="5.00" y="3.07" style="fill:rgb(57.6%,43.9%,85.9%);fill-opacity:1.0">Kashmiri</text></g><g transform="translate(474.64,114.99)rotate(0)"><text x="5.00" y="3.07" style="fill:rgb(57.6%,43.9%,85.9%);fill-opacity:1.0">Singhalese</text></g><g transform="translate(382.97,102.94)rotate(0)"><text x="5.00" y="3.07" style="fill:rgb(23.5%,70.2%,44.3%);fill-opacity:1.0">Old Church Slavic</text></g><g transform="translate(235.30,90.88)rotate(0)"><text x="5.00" y="3.07" style="fill:rgb(46.7%,53.3%,60%);fill-opacity:1.0">Avestan</text></g><g transform="translate(183.03,78.83)rotate(0)"><text x="5.00" y="3.07" style="fill:rgb(57.6%,43.9%,85.9%);fill-opacity:1.0">Vedic Sanskrit</text></g><g transform="translate(341.35,66.78)rotate(0)"><text x="5.00" y="3.07" style="fill:rgb(27.5%,51%,70.6%);fill-opacity:1.0">Classical Armenian</text></g><g transform="translate(239.51,54.73)rotate(0)"><text x="5.00" y="3.07" style="fill:rgb(12.5%,69.8%,66.7%);fill-opacity:1.0">Ancient Greek</text></g><g transform="translate(139.30,42.68)rotate(0)"><text x="5.00" y="3.07" style="fill:rgb(54.5%,27.1%,7.45%);fill-opacity:1.0">Hittite</text></g></g></g></g><g class="toyplot-coordinates-Axis" id="t7d2ca229d24c41bd855ce4f41d94d278" transform="translate(0.0,30.0)translate(0,-5.0)"><g><g transform="translate(474.6538784363952,-6)"><text x="-2.78" y="-4.440892098500626e-16" style="fill:rgb(16.1%,15.3%,14.1%);fill-opacity:1.0;font-family:helvetica;font-size:10.0px;font-weight:normal;stroke:none;vertical-align:baseline;white-space:pre">0</text></g><g transform="translate(427.18849059275567,-6)"><text x="-8.34" y="-4.440892098500626e-16" style="fill:rgb(16.1%,15.3%,14.1%);fill-opacity:1.0;font-family:helvetica;font-size:10.0px;font-weight:normal;stroke:none;vertical-align:baseline;white-space:pre">500</text></g><g transform="translate(379.7231027491161,-6)"><text x="-11.12" y="-4.440892098500626e-16" style="fill:rgb(16.1%,15.3%,14.1%);fill-opacity:1.0;font-family:helvetica;font-size:10.0px;font-weight:normal;stroke:none;vertical-align:baseline;white-space:pre">1000</text></g><g transform="translate(332.25771490547663,-6)"><text x="-11.12" y="-4.440892098500626e-16" style="fill:rgb(16.1%,15.3%,14.1%);fill-opacity:1.0;font-family:helvetica;font-size:10.0px;font-weight:normal;stroke:none;vertical-align:baseline;white-space:pre">1500</text></g><g transform="translate(284.7923270618371,-6)"><text x="-11.12" y="-4.440892098500626e-16" style="fill:rgb(16.1%,15.3%,14.1%);fill-opacity:1.0;font-family:helvetica;font-size:10.0px;font-weight:normal;stroke:none;vertical-align:baseline;white-space:pre">2000</text></g><g transform="translate(237.3269392181976,-6)"><text x="-11.12" y="-4.440892098500626e-16" style="fill:rgb(16.1%,15.3%,14.1%);fill-opacity:1.0;font-family:helvetica;font-size:10.0px;font-weight:normal;stroke:none;vertical-align:baseline;white-space:pre">2500</text></g><g transform="translate(189.86155137455805,-6)"><text x="-11.12" y="-4.440892098500626e-16" style="fill:rgb(16.1%,15.3%,14.1%);fill-opacity:1.0;font-family:helvetica;font-size:10.0px;font-weight:normal;stroke:none;vertical-align:baseline;white-space:pre">3000</text></g><g transform="translate(142.39616353091856,-6)"><text x="-11.12" y="-4.440892098500626e-16" style="fill:rgb(16.1%,15.3%,14.1%);fill-opacity:1.0;font-family:helvetica;font-size:10.0px;font-weight:normal;stroke:none;vertical-align:baseline;white-space:pre">3500</text></g><g transform="translate(94.93077568727902,-6)"><text x="-11.12" y="-4.440892098500626e-16" style="fill:rgb(16.1%,15.3%,14.1%);fill-opacity:1.0;font-family:helvetica;font-size:10.0px;font-weight:normal;stroke:none;vertical-align:baseline;white-space:pre">4000</text></g><g transform="translate(47.46538784363951,-6)"><text x="-11.12" y="-4.440892098500626e-16" style="fill:rgb(16.1%,15.3%,14.1%);fill-opacity:1.0;font-family:helvetica;font-size:10.0px;font-weight:normal;stroke:none;vertical-align:baseline;white-space:pre">4500</text></g></g><g class="toyplot-coordinates-Axis-coordinates" style="visibility:hidden" transform=""><line x1="0" x2="0" y1="3.0" y2="-4.5" style="stroke:rgb(43.9%,50.2%,56.5%);stroke-opacity:1.0;stroke-width:1.0" /><text x="0" y="6" style="alignment-baseline:hanging;fill:rgb(43.9%,50.2%,56.5%);fill-opacity:1.0;font-size:10px;font-weight:normal;stroke:none;text-anchor:middle" /></g></g></g><g class="toyplot-mark-Text" id="t4e07c26359dc4236922d43edb3f9e8f3"><g class="toyplot-Series"><g class="toyplot-Datum" transform="translate(150.0,650.0)"><text x="-106.56" y="4.599" style="fill:rgb(16.1%,15.3%,14.1%);fill-opacity:1.0;font-family:helvetica;font-size:18.0px;font-weight:normal;opacity:1;stroke:none;vertical-align:baseline;white-space:pre">Root Age: 4473 years B.P.</text></g></g></g></svg>