<svg class="toyplot-canvas-Canvas" xmlns:toyplot="http://www.sandia.gov/toyplot" xmlns:xlink="http://www.w3.org/1999/xlink" xmlns="http://www.w3.org/2000/svg" width="1000.0px" height="700.0px" viewBox="0 0 1000.0 700.0" preserveAspectRatio="xMidYMid meet" style="background-color:transparent;border-color:#292724;border-style:none;border-width:1.0;fill:rgb(16.1%,15.3%,14.1%);fill-opacity:1.0;font-family:Helvetica;font-size:12px;opacity:1.0;stroke:rgb(16.1%,15.3%,14.1%);stroke-opacity:1.0;stroke-width:1.0" id="t3ccbff51ec2f40808636eedd000f37f7"><g class="toyplot-coordinates-Cartesian" id="tdec85ddc238341838639b9a8ca45963a"><clipPath id="t7a8e006b40b9406487573cf7c82099fe"><rect x="-5.0" y="25.0" width="1010.0" height="650.0" /></clipPath><g clip-path="url(#t7a8e006b40b9406487573cf7c82099fe)"><g class="toyplot-mark-AxisLines" style="stroke:rgb(82.7%,82.7%,82.7%);stroke-dasharray:8,10;stroke-opacity:1.0" id="te824574ad9254a36aa69f53d7c909489"><g class="toyplot-Series"><line class="toyplot-Datum" x1="857.8642128116874" x2="857.8642128116874" y1="30.0" y2="670.0" style="opacity:1.0;stroke:rgb(82.7%,82.7%,82.7%);stroke-dasharray:8,10;stroke-opacity:1.0" /><line class="toyplot-Datum" x1="807.4016120580587" x2="807.4016120580587" y1="30.0" y2="670.0" style="opacity:1.0;stroke:rgb(82.7%,82.7%,82.7%);stroke-dasharray:8,10;stroke-opacity:1.0" /><line class="toyplot-Datum" x1="756.93901130443" x2="756.93901130443" y1="30.0" y2="670.0" style="opacity:1.0;stroke:rgb(82.7%,82.7%,82.7%);stroke-dasharray:8,10;stroke-opacity:1.0" /><line class="toyplot-Datum" x1="706.4764105508013" x2="706.4764105508013" y1="30.0" y2="670.0" style="opacity:1.0;stroke:rgb(82.7%,82.7%,82.7%);stroke-dasharray:8,10;stroke-opacity:1.0" /><line class="toyplot-Datum" x1="656.0138097971727" x2="656.0138097971727" y1="30.0" y2="670.0" style="opacity:1.0;stroke:rgb(82.7%,82.7%,82.7%);stroke-dasharray:8,10;stroke-opacity:1.0" /><line class="toyplot-Datum" x1="605.551209043544" x2="605.551209043544" y1="30.0" y2="670.0" style="opacity:1.0;stroke:rgb(82.7%,82.7%,82.7%);stroke-dasharray:8,10;stroke-opacity:1.0" /><line class="toyplot-Datum" x1="555.0886082899153" x2="555.0886082899153" y1="30.0" y2="670.0" style="opacity:1.0;stroke:rgb(82.7%,82.7%,82.7%);stroke-dasharray:8,10;stroke-opacity:1.0" /><line class="toyplot-Datum" x1="504.62600753628675" x2="504.62600753628675" y1="30.0" y2="670.0" style="opacity:1.0;stroke:rgb(82.7%,82.7%,82.7%);stroke-dasharray:8,10;stroke-opacity:1.0" /><line class="toyplot-Datum" x1="454.163406782658" x2="454.163406782658" y1="30.0" y2="670.0" style="opacity:1.0;stroke:rgb(82.7%,82.7%,82.7%);stroke-dasharray:8,10;stroke-opacity:1.0" /><line class="toyplot-Datum" x1="403.70080602902937" x2="403.70080602902937" y1="30.0" y2="670.0" style="opacity:1.0;stroke:rgb(82.7%,82.7%,82.7%);stroke-dasharray:8,10;stroke-opacity:1.0" /><line class="toyplot-Datum" x1="353.2382052754007" x2="353.2382052754007" y1="30.0" y2="670.0" style="opacity:1.0;stroke:rgb(82.7%,82.7%,82.7%);stroke-dasharray:8,10;stroke-opacity:1.0" /><line class="toyplot-Datum" x1="302.775604521772" x2="302.775604521772" y1="30.0" y2="670.0" style="opacity:1.0;stroke:rgb(82.7%,82.7%,82.7%);stroke-dasharray:8,10;stroke-opacity:1.0" /><line class="toyplot-Datum" x1="252.31300376814337" x2="252.31300376814337" y1="30.0" y2="670.0" style="opacity:1.0;stroke:rgb(82.7%,82.7%,82.7%);stroke-dasharray:8,10;stroke-opacity:1.0" /><line class="toyplot-Datum" x1="201.85040301451468" x2="201.85040301451468" y1="30.0" y2="670.0" style="opacity:1.0;stroke:rgb(82.7%,82.7%,82.7%);stroke-dasharray:8,10;stroke-opacity:1.0" /><line class="toyplot-Datum" x1="151.387802260886" x2="151.387802260886" y1="30.0" y2="670.0" style="opacity:1.0;stroke:rgb(82.7%,82.7%,82.7%);stroke-dasharray:8,10;stroke-opacity:1.0" /><line class="toyplot-Datum" x1="100.92520150725734" x2="100.92520150725734" y1="30.0" y2="670.0" style="opacity:1.0;stroke:rgb(82.7%,82.7%,82.7%);stroke-dasharray:8,10;stroke-opacity:1.0" /><line class="toyplot-Datum" x1="50.46260075362867" x2="50.46260075362867" y1="30.0" y2="670.0" style="opacity:1.0;stroke:rgb(82.7%,82.7%,82.7%);stroke-dasharray:8,10;stroke-opacity:1.0" /></g></g><g class="toytree-mark-Toytree" id="tb07881bbb78b4e588e3aabba51d0572f"><g class="toytree-Edges" style="fill:none;stroke:rgb(50.2%,50.2%,50.2%);stroke-linecap:round;stroke-opacity:1;stroke-width:2"><path d="M 221.1 77.9 L 221.1 113.1 L 296.4 113.1" id="102,101" /><path d="M 296.4 113.1 L 296.4 171.4 L 330.9 171.4" id="101,100" /><path d="M 330.9 171.4 L 330.9 86.4 L 436.6 86.4" id="100,99" /><path d="M 330.9 171.4 L 330.9 256.5 L 350.7 256.5" id="100,98" /><path d="M 436.6 86.4 L 436.6 72.8 L 610.8 72.8" id="99,97" style="stroke:rgb(12.5%,69.8%,66.7%);stroke-opacity:1.0" /><path d="M 436.6 86.4 L 436.6 99.9 L 715.2 99.9" id="99,96" style="stroke:rgb(27.5%,51%,70.6%);stroke-opacity:1.0" /><path d="M 350.7 256.5 L 350.7 139.4 L 473.6 139.4" id="98,95" /><path d="M 350.7 256.5 L 350.7 373.6 L 399.6 373.6" id="98,94" /><path d="M 715.2 99.9 L 715.2 109.0 L 824.7 109.0" id="96,93" style="stroke:rgb(27.5%,51%,70.6%);stroke-opacity:1.0" /><path d="M 473.6 139.4 L 473.6 151.8 L 515.2 151.8" id="95,92" style="stroke:rgb(57.6%,43.9%,85.9%);stroke-opacity:1.0" /><path d="M 399.6 373.6 L 399.6 427.3 L 423.3 427.3" id="94,91" /><path d="M 515.2 151.8 L 515.2 164.5 L 646.2 164.5" id="92,90" style="stroke:rgb(57.6%,43.9%,85.9%);stroke-opacity:1.0" /><path d="M 423.3 427.3 L 423.3 357.7 L 663.0 357.7" id="91,89" style="stroke:rgb(60.4%,80.4%,19.6%);stroke-opacity:1.0" /><path d="M 423.3 427.3 L 423.3 496.9 L 446.1 496.9" id="91,88" /><path d="M 646.2 164.5 L 646.2 177.9 L 668.5 177.9" id="90,87" style="stroke:rgb(57.6%,43.9%,85.9%);stroke-opacity:1.0" /><path d="M 663.0 357.7 L 663.0 383.5 L 705.0 383.5" id="89,86" style="stroke:rgb(60.4%,80.4%,19.6%);stroke-opacity:1.0" /><path d="M 446.1 496.9 L 446.1 473.5 L 731.2 473.5" id="88,85" style="stroke:rgb(73.7%,56.1%,56.1%);stroke-opacity:1.0" /><path d="M 446.1 496.9 L 446.1 520.3 L 641.6 520.3" id="88,84" style="stroke:rgb(87.1%,72.2%,52.9%);stroke-opacity:1.0" /><path d="M 668.5 177.9 L 668.5 192.5 L 682.2 192.5" id="87,83" style="stroke:rgb(57.6%,43.9%,85.9%);stroke-opacity:1.0" /><path d="M 705.0 383.5 L 705.0 354.5 L 777.9 354.5" id="86,82" style="stroke:rgb(60.4%,80.4%,19.6%);stroke-opacity:1.0" /><path d="M 705.0 383.5 L 705.0 412.5 L 718.2 412.5" id="86,81" style="stroke:rgb(60.4%,80.4%,19.6%);stroke-opacity:1.0" /><path d="M 731.2 473.5 L 731.2 482.6 L 799.8 482.6" id="85,80" style="stroke:rgb(73.7%,56.1%,56.1%);stroke-opacity:1.0" /><path d="M 641.6 520.3 L 641.6 539.9 L 764.5 539.9" id="84,79" style="stroke:rgb(87.1%,72.2%,52.9%);stroke-opacity:1.0" /><path d="M 682.2 192.5 L 682.2 209.8 L 728.9 209.8" id="83,78" style="stroke:rgb(57.6%,43.9%,85.9%);stroke-opacity:1.0" /><path d="M 777.9 354.5 L 777.9 365.1 L 828.3 365.1" id="82,77" style="stroke:rgb(60.4%,80.4%,19.6%);stroke-opacity:1.0" /><path d="M 718.2 412.5 L 718.2 398.2 L 756.7 398.2" id="81,76" style="stroke:rgb(60.4%,80.4%,19.6%);stroke-opacity:1.0" /><path d="M 718.2 412.5 L 718.2 426.8 L 753.2 426.8" id="81,75" style="stroke:rgb(60.4%,80.4%,19.6%);stroke-opacity:1.0" /><path d="M 764.5 539.9 L 764.5 518.7 L 828.3 518.7" id="79,74" style="stroke:rgb(87.1%,72.2%,52.9%);stroke-opacity:1.0" /><path d="M 764.5 539.9 L 764.5 561.1 L 772.8 561.1" id="79,73" style="stroke:rgb(87.1%,72.2%,52.9%);stroke-opacity:1.0" /><path d="M 728.9 209.8 L 728.9 232.3 L 742.6 232.3" id="78,72" style="stroke:rgb(57.6%,43.9%,85.9%);stroke-opacity:1.0" /><path d="M 828.3 365.1 L 828.3 374.1 L 838.5 374.1" id="77,71" style="stroke:rgb(60.4%,80.4%,19.6%);stroke-opacity:1.0" /><path d="M 753.2 426.8 L 753.2 437.4 L 837.2 437.4" id="75,70" style="stroke:rgb(60.4%,80.4%,19.6%);stroke-opacity:1.0" /><path d="M 772.8 561.1 L 772.8 585.4 L 781.9 585.4" id="73,69" style="stroke:rgb(87.1%,72.2%,52.9%);stroke-opacity:1.0" /><path d="M 742.6 232.3 L 742.6 208.4 L 760.3 208.4" id="72,68" style="stroke:rgb(57.6%,43.9%,85.9%);stroke-opacity:1.0" /><path d="M 742.6 232.3 L 742.6 256.2 L 752.3 256.2" id="72,67" style="stroke:rgb(57.6%,43.9%,85.9%);stroke-opacity:1.0" /><path d="M 837.2 437.4 L 837.2 446.4 L 842.3 446.4" id="70,66" style="stroke:rgb(60.4%,80.4%,19.6%);stroke-opacity:1.0" /><path d="M 781.9 585.4 L 781.9 557.9 L 800.0 557.9" id="69,65" style="stroke:rgb(87.1%,72.2%,52.9%);stroke-opacity:1.0" /><path d="M 781.9 585.4 L 781.9 612.9 L 792.0 612.9" id="69,64" style="stroke:rgb(87.1%,72.2%,52.9%);stroke-opacity:1.0" /><path d="M 760.3 208.4 L 760.3 217.4 L 783.7 217.4" id="68,63" style="stroke:rgb(57.6%,43.9%,85.9%);stroke-opacity:1.0" /><path d="M 752.3 256.2 L 752.3 241.5 L 786.7 241.5" id="67,62" style="stroke:rgb(57.6%,43.9%,85.9%);stroke-opacity:1.0" /><path d="M 752.3 256.2 L 752.3 270.9 L 778.2 270.9" id="67,61" style="stroke:rgb(57.6%,43.9%,85.9%);stroke-opacity:1.0" /><path d="M 800.0 557.9 L 800.0 566.9 L 819.3 566.9" id="65,60" style="stroke:rgb(87.1%,72.2%,52.9%);stroke-opacity:1.0" /><path d="M 792.0 612.9 L 792.0 594.1 L 819.4 594.1" id="64,59" style="stroke:rgb(87.1%,72.2%,52.9%);stroke-opacity:1.0" /><path d="M 792.0 612.9 L 792.0 631.7 L 802.5 631.7" id="64,58" style="stroke:rgb(87.1%,72.2%,52.9%);stroke-opacity:1.0" /><path d="M 778.2 270.9 L 778.2 282.2 L 808.6 282.2" id="61,57" style="stroke:rgb(57.6%,43.9%,85.9%);stroke-opacity:1.0" /><path d="M 819.4 594.1 L 819.4 603.1 L 839.1 603.1" id="59,56" style="stroke:rgb(87.1%,72.2%,52.9%);stroke-opacity:1.0" /><path d="M 802.5 631.7 L 802.5 642.3 L 810.7 642.3" id="58,55" style="stroke:rgb(87.1%,72.2%,52.9%);stroke-opacity:1.0" /><path d="M 808.6 282.2 L 808.6 292.8 L 822.2 292.8" id="57,54" style="stroke:rgb(57.6%,43.9%,85.9%);stroke-opacity:1.0" /><path d="M 810.7 642.3 L 810.7 651.3 L 826.5 651.3" id="55,53" style="stroke:rgb(87.1%,72.2%,52.9%);stroke-opacity:1.0" /><path d="M 822.2 292.8 L 822.2 301.8 L 836.7 301.8" id="54,52" style="stroke:rgb(57.6%,43.9%,85.9%);stroke-opacity:1.0" /><path d="M 221.1 77.9 L 221.1 42.7 L 499.5 42.7" id="102,51" style="stroke:rgb(54.5%,27.1%,7.45%);stroke-opacity:1.0" /><path d="M 296.4 113.1 L 296.4 54.7 L 722.3 54.7" id="101,50" style="stroke:rgb(91.4%,58.8%,47.8%);stroke-opacity:1.0" /><path d="M 610.8 72.8 L 610.8 66.8 L 610.8 66.8" id="97,49" style="stroke:rgb(80.4%,36.1%,36.1%);stroke-opacity:1.0" /><path d="M 610.8 72.8 L 610.8 78.8 L 857.8 78.8" id="97,48" style="stroke:rgb(12.5%,69.8%,66.7%);stroke-opacity:1.0" /><path d="M 715.2 99.9 L 715.2 90.9 L 715.2 90.9" id="96,47" style="stroke:rgb(80.4%,36.1%,36.1%);stroke-opacity:1.0" /><path d="M 824.7 109.0 L 824.7 102.9 L 857.8 102.9" id="93,46" style="stroke:rgb(27.5%,51%,70.6%);stroke-opacity:1.0" /><path d="M 824.7 109.0 L 824.7 115.0 L 857.8 115.0" id="93,45" style="stroke:rgb(27.5%,51%,70.6%);stroke-opacity:1.0" /><path d="M 473.6 139.4 L 473.6 127.0 L 605.7 127.0" id="95,44" style="stroke:rgb(46.7%,53.3%,60%);stroke-opacity:1.0" /><path d="M 515.2 151.8 L 515.2 139.1 L 515.2 139.1" id="92,43" style="stroke:rgb(80.4%,36.1%,36.1%);stroke-opacity:1.0" /><path d="M 646.2 164.5 L 646.2 151.1 L 857.9 151.1" id="90,42" style="stroke:rgb(57.6%,43.9%,85.9%);stroke-opacity:1.0" /><path d="M 668.5 177.9 L 668.5 163.2 L 857.9 163.2" id="87,41" style="stroke:rgb(57.6%,43.9%,85.9%);stroke-opacity:1.0" /><path d="M 682.2 192.5 L 682.2 175.2 L 857.9 175.2" id="83,40" style="stroke:rgb(57.6%,43.9%,85.9%);stroke-opacity:1.0" /><path d="M 728.9 209.8 L 728.9 187.3 L 857.9 187.3" id="78,39" style="stroke:rgb(57.6%,43.9%,85.9%);stroke-opacity:1.0" /><path d="M 760.3 208.4 L 760.3 199.4 L 857.8 199.4" id="68,38" style="stroke:rgb(57.6%,43.9%,85.9%);stroke-opacity:1.0" /><path d="M 783.7 217.4 L 783.7 211.4 L 857.9 211.4" id="63,37" style="stroke:rgb(57.6%,43.9%,85.9%);stroke-opacity:1.0" /><path d="M 783.7 217.4 L 783.7 223.5 L 857.9 223.5" id="63,36" style="stroke:rgb(57.6%,43.9%,85.9%);stroke-opacity:1.0" /><path d="M 786.7 241.5 L 786.7 235.5 L 857.8 235.5" id="62,35" style="stroke:rgb(57.6%,43.9%,85.9%);stroke-opacity:1.0" /><path d="M 786.7 241.5 L 786.7 247.6 L 857.8 247.6" id="62,34" style="stroke:rgb(57.6%,43.9%,85.9%);stroke-opacity:1.0" /><path d="M 778.2 270.9 L 778.2 259.6 L 857.9 259.6" id="61,33" style="stroke:rgb(57.6%,43.9%,85.9%);stroke-opacity:1.0" /><path d="M 808.6 282.2 L 808.6 271.7 L 857.9 271.7" id="57,32" style="stroke:rgb(57.6%,43.9%,85.9%);stroke-opacity:1.0" /><path d="M 822.2 292.8 L 822.2 283.7 L 857.9 283.7" id="54,31" style="stroke:rgb(57.6%,43.9%,85.9%);stroke-opacity:1.0" /><path d="M 836.7 301.8 L 836.7 295.8 L 857.9 295.8" id="52,30" style="stroke:rgb(57.6%,43.9%,85.9%);stroke-opacity:1.0" /><path d="M 836.7 301.8 L 836.7 307.8 L 857.9 307.8" id="52,29" style="stroke:rgb(57.6%,43.9%,85.9%);stroke-opacity:1.0" /><path d="M 399.6 373.6 L 399.6 319.9 L 757.2 319.9" id="94,28" style="stroke:rgb(23.5%,70.2%,44.3%);stroke-opacity:1.0" /><path d="M 663.0 357.7 L 663.0 331.9 L 691.4 331.9" id="89,27" style="stroke:rgb(60.4%,80.4%,19.6%);stroke-opacity:1.0" /><path d="M 777.9 354.5 L 777.9 344.0 L 777.9 344.0" id="82,26" style="stroke:rgb(80.4%,36.1%,36.1%);stroke-opacity:1.0" /><path d="M 828.3 365.1 L 828.3 356.0 L 857.9 356.0" id="77,25" style="stroke:rgb(60.4%,80.4%,19.6%);stroke-opacity:1.0" /><path d="M 838.5 374.1 L 838.5 368.1 L 857.9 368.1" id="71,24" style="stroke:rgb(60.4%,80.4%,19.6%);stroke-opacity:1.0" /><path d="M 838.5 374.1 L 838.5 380.1 L 857.9 380.1" id="71,23" style="stroke:rgb(60.4%,80.4%,19.6%);stroke-opacity:1.0" /><path d="M 756.7 398.2 L 756.7 392.2 L 756.7 392.2" id="76,22" style="stroke:rgb(80.4%,36.1%,36.1%);stroke-opacity:1.0" /><path d="M 756.7 398.2 L 756.7 404.2 L 857.9 404.2" id="76,21" style="stroke:rgb(60.4%,80.4%,19.6%);stroke-opacity:1.0" /><path d="M 753.2 426.8 L 753.2 416.3 L 753.2 416.3" id="75,20" style="stroke:rgb(80.4%,36.1%,36.1%);stroke-opacity:1.0" /><path d="M 837.2 437.4 L 837.2 428.3 L 857.9 428.3" id="70,19" style="stroke:rgb(60.4%,80.4%,19.6%);stroke-opacity:1.0" /><path d="M 842.3 446.4 L 842.3 440.4 L 857.9 440.4" id="66,18" style="stroke:rgb(60.4%,80.4%,19.6%);stroke-opacity:1.0" /><path d="M 842.3 446.4 L 842.3 452.4 L 857.9 452.4" id="66,17" style="stroke:rgb(60.4%,80.4%,19.6%);stroke-opacity:1.0" /><path d="M 731.2 473.5 L 731.2 464.5 L 731.2 464.5" id="85,16" style="stroke:rgb(80.4%,36.1%,36.1%);stroke-opacity:1.0" /><path d="M 799.8 482.6 L 799.8 476.5 L 857.9 476.5" id="80,15" style="stroke:rgb(73.7%,56.1%,56.1%);stroke-opacity:1.0" /><path d="M 799.8 482.6 L 799.8 488.6 L 857.9 488.6" id="80,14" style="stroke:rgb(73.7%,56.1%,56.1%);stroke-opacity:1.0" /><path d="M 641.6 520.3 L 641.6 500.6 L 641.6 500.6" id="84,13" style="stroke:rgb(80.4%,36.1%,36.1%);stroke-opacity:1.0" /><path d="M 828.3 518.7 L 828.3 512.7 L 857.9 512.7" id="74,12" style="stroke:rgb(87.1%,72.2%,52.9%);stroke-opacity:1.0" /><path d="M 828.3 518.7 L 828.3 524.8 L 857.9 524.8" id="74,11" style="stroke:rgb(87.1%,72.2%,52.9%);stroke-opacity:1.0" /><path d="M 772.8 561.1 L 772.8 536.8 L 857.9 536.8" id="73,10" style="stroke:rgb(87.1%,72.2%,52.9%);stroke-opacity:1.0" /><path d="M 800.0 557.9 L 800.0 548.9 L 857.9 548.9" id="65,9" style="stroke:rgb(87.1%,72.2%,52.9%);stroke-opacity:1.0" /><path d="M 819.3 566.9 L 819.3 560.9 L 857.9 560.9" id="60,8" style="stroke:rgb(87.1%,72.2%,52.9%);stroke-opacity:1.0" /><path d="M 819.3 566.9 L 819.3 573.0 L 857.9 573.0" id="60,7" style="stroke:rgb(87.1%,72.2%,52.9%);stroke-opacity:1.0" /><path d="M 819.4 594.1 L 819.4 585.0 L 857.9 585.0" id="59,6" style="stroke:rgb(87.1%,72.2%,52.9%);stroke-opacity:1.0" /><path d="M 839.1 603.1 L 839.1 597.1 L 857.9 597.1" id="56,5" style="stroke:rgb(87.1%,72.2%,52.9%);stroke-opacity:1.0" /><path d="M 839.1 603.1 L 839.1 609.1 L 857.9 609.1" id="56,4" style="stroke:rgb(87.1%,72.2%,52.9%);stroke-opacity:1.0" /><path d="M 802.5 631.7 L 802.5 621.2 L 857.9 621.2" id="58,3" style="stroke:rgb(87.1%,72.2%,52.9%);stroke-opacity:1.0" /><path d="M 810.7 642.3 L 810.7 633.2 L 857.9 633.2" id="55,2" style="stroke:rgb(87.1%,72.2%,52.9%);stroke-opacity:1.0" /><path d="M 826.5 651.3 L 826.5 645.3 L 857.9 645.3" id="53,1" style="stroke:rgb(87.1%,72.2%,52.9%);stroke-opacity:1.0" /><path d="M 826.5 651.3 L 826.5 657.3 L 857.9 657.3" id="53,0" style="stroke:rgb(87.1%,72.2%,52.9%);stroke-opacity:1.0" /></g><g class="toytree-TipLabels" style="fill:rgb(14.9%,14.9%,14.9%);fill-opacity:1.0;font-family:helvetica;font-size:12px;font-weight:normal;stroke:none;white-space:pre"><g transform="translate(857.86,657.32)rotate(0)"><text x="5.00" y="3.07" style="">Friulian</text></g><g transform="translate(857.86,645.27)rotate(0)"><text x="5.00" y="3.07" style="">Romansh</text></g><g transform="translate(857.86,633.22)rotate(0)"><text x="5.00" y="3.07" style="">Ladin</text></g><g transform="translate(857.86,621.17)rotate(0)"><text x="5.00" y="3.07" style="">Italian</text></g><g transform="translate(857.86,609.12)rotate(0)"><text x="5.00" y="3.07" style="">French</text></g><g transform="translate(857.86,597.06)rotate(0)"><text x="5.00" y="3.07" style="">Walloon</text></g><g transform="translate(857.86,585.01)rotate(0)"><text x="5.00" y="3.07" style="">Provencal</text></g><g transform="translate(857.86,572.96)rotate(0)"><text x="5.00" y="3.07" style="">Spanish</text></g><g transform="translate(857.86,560.91)rotate(0)"><text x="5.00" y="3.07" style="">Portuguese</text></g><g transform="translate(857.86,548.86)rotate(0)"><text x="5.00" y="3.07" style="">Catalan</text></g><g transform="translate(857.86,536.80)rotate(0)"><text x="5.00" y="3.07" style="">Romanian</text></g><g transform="translate(857.85,524.75)rotate(0)"><text x="5.00" y="3.07" style="">Cagliari</text></g><g transform="translate(857.85,512.70)rotate(0)"><text x="5.00" y="3.07" style="">Nuorese</text></g><g transform="translate(641.55,500.65)rotate(0)"><text x="5.00" y="3.07" style="">Latin</text></g><g transform="translate(857.85,488.60)rotate(0)"><text x="5.00" y="3.07" style="">Irish</text></g><g transform="translate(857.85,476.54)rotate(0)"><text x="5.00" y="3.07" style="">Scots Gaelic</text></g><g transform="translate(731.16,464.49)rotate(0)"><text x="5.00" y="3.07" style="">Old Irish</text></g><g transform="translate(857.86,452.44)rotate(0)"><text x="5.00" y="3.07" style="">Luxembourgish</text></g><g transform="translate(857.86,440.39)rotate(0)"><text x="5.00" y="3.07" style="">Swiss German</text></g><g transform="translate(857.86,428.34)rotate(0)"><text x="5.00" y="3.07" style="">German</text></g><g transform="translate(753.20,416.29)rotate(0)"><text x="5.00" y="3.07" style="">Old High German</text></g><g transform="translate(857.86,404.23)rotate(0)"><text x="5.00" y="3.07" style="">English</text></g><g transform="translate(756.67,392.18)rotate(0)"><text x="5.00" y="3.07" style="">Old English</text></g><g transform="translate(857.85,380.13)rotate(0)"><text x="5.00" y="3.07" style="">Faroese</text></g><g transform="translate(857.85,368.08)rotate(0)"><text x="5.00" y="3.07" style="">Icelandic</text></g><g transform="translate(857.86,356.03)rotate(0)"><text x="5.00" y="3.07" style="">Norwegian</text></g><g transform="translate(777.93,343.97)rotate(0)"><text x="5.00" y="3.07" style="">Old West Norse</text></g><g transform="translate(691.41,331.92)rotate(0)"><text x="5.00" y="3.07" style="">Gothic</text></g><g transform="translate(757.21,319.87)rotate(0)"><text x="5.00" y="3.07" style="">Old Church Slavic</text></g><g transform="translate(857.86,307.82)rotate(0)"><text x="5.00" y="3.07" style="">Lahnda</text></g><g transform="translate(857.86,295.77)rotate(0)"><text x="5.00" y="3.07" style="">Panjabi</text></g><g transform="translate(857.86,283.71)rotate(0)"><text x="5.00" y="3.07" style="">Urdu</text></g><g transform="translate(857.86,271.66)rotate(0)"><text x="5.00" y="3.07" style="">Hindi</text></g><g transform="translate(857.85,259.61)rotate(0)"><text x="5.00" y="3.07" style="">Bihari</text></g><g transform="translate(857.84,247.56)rotate(0)"><text x="5.00" y="3.07" style="">Gujarati</text></g><g transform="translate(857.84,235.51)rotate(0)"><text x="5.00" y="3.07" style="">Marathi</text></g><g transform="translate(857.85,223.46)rotate(0)"><text x="5.00" y="3.07" style="">Assamese</text></g><g transform="translate(857.85,211.40)rotate(0)"><text x="5.00" y="3.07" style="">Oriya</text></g><g transform="translate(857.84,199.35)rotate(0)"><text x="5.00" y="3.07" style="">Bengali</text></g><g transform="translate(857.85,187.30)rotate(0)"><text x="5.00" y="3.07" style="">Nepali</text></g><g transform="translate(857.85,175.25)rotate(0)"><text x="5.00" y="3.07" style="">Kashmiri</text></g><g transform="translate(857.85,163.20)rotate(0)"><text x="5.00" y="3.07" style="">Romani</text></g><g transform="translate(857.86,151.14)rotate(0)"><text x="5.00" y="3.07" style="">Singhalese</text></g><g transform="translate(515.21,139.09)rotate(0)"><text x="5.00" y="3.07" style="">Vedic Sanskrit</text></g><g transform="translate(605.67,127.04)rotate(0)"><text x="5.00" y="3.07" style="">Avestan</text></g><g transform="translate(857.84,114.99)rotate(0)"><text x="5.00" y="3.07" style="">Eastern Armenian</text></g><g transform="translate(857.84,102.94)rotate(0)"><text x="5.00" y="3.07" style="">Adapazar</text></g><g transform="translate(715.21,90.88)rotate(0)"><text x="5.00" y="3.07" style="">Classical Armenian</text></g><g transform="translate(857.84,78.83)rotate(0)"><text x="5.00" y="3.07" style="">Modern Greek</text></g><g transform="translate(610.77,66.78)rotate(0)"><text x="5.00" y="3.07" style="">Ancient Greek</text></g><g transform="translate(722.34,54.73)rotate(0)"><text x="5.00" y="3.07" style="">Tocharian B</text></g><g transform="translate(499.52,42.68)rotate(0)"><text x="5.00" y="3.07" style="">Hittite</text></g></g></g></g><g class="toyplot-coordinates-Axis" id="tc5bc1f48f7f44ed59883d0fa4a9d04b1" transform="translate(0.0,30.0)translate(0,-5.0)"><g><g transform="translate(857.8642128116874,-6)"><text x="-2.78" y="-4.440892098500626e-16" style="fill:rgb(16.1%,15.3%,14.1%);fill-opacity:1.0;font-family:helvetica;font-size:10.0px;font-weight:normal;stroke:none;vertical-align:baseline;white-space:pre">0</text></g><g transform="translate(807.4016120580587,-6)"><text x="-8.34" y="-4.440892098500626e-16" style="fill:rgb(16.1%,15.3%,14.1%);fill-opacity:1.0;font-family:helvetica;font-size:10.0px;font-weight:normal;stroke:none;vertical-align:baseline;white-space:pre">500</text></g><g transform="translate(756.93901130443,-6)"><text x="-11.12" y="-4.440892098500626e-16" style="fill:rgb(16.1%,15.3%,14.1%);fill-opacity:1.0;font-family:helvetica;font-size:10.0px;font-weight:normal;stroke:none;vertical-align:baseline;white-space:pre">1000</text></g><g transform="translate(706.4764105508013,-6)"><text x="-11.12" y="-4.440892098500626e-16" style="fill:rgb(16.1%,15.3%,14.1%);fill-opacity:1.0;font-family:helvetica;font-size:10.0px;font-weight:normal;stroke:none;vertical-align:baseline;white-space:pre">1500</text></g><g transform="translate(656.0138097971727,-6)"><text x="-11.12" y="-4.440892098500626e-16" style="fill:rgb(16.1%,15.3%,14.1%);fill-opacity:1.0;font-family:helvetica;font-size:10.0px;font-weight:normal;stroke:none;vertical-align:baseline;white-space:pre">2000</text></g><g transform="translate(605.551209043544,-6)"><text x="-11.12" y="-4.440892098500626e-16" style="fill:rgb(16.1%,15.3%,14.1%);fill-opacity:1.0;font-family:helvetica;font-size:10.0px;font-weight:normal;stroke:none;vertical-align:baseline;white-space:pre">2500</text></g><g transform="translate(555.0886082899153,-6)"><text x="-11.12" y="-4.440892098500626e-16" style="fill:rgb(16.1%,15.3%,14.1%);fill-opacity:1.0;font-family:helvetica;font-size:10.0px;font-weight:normal;stroke:none;vertical-align:baseline;white-space:pre">3000</text></g><g transform="translate(504.62600753628675,-6)"><text x="-11.12" y="-4.440892098500626e-16" style="fill:rgb(16.1%,15.3%,14.1%);fill-opacity:1.0;font-family:helvetica;font-size:10.0px;font-weight:normal;stroke:none;vertical-align:baseline;white-space:pre">3500</text></g><g transform="translate(454.163406782658,-6)"><text x="-11.12" y="-4.440892098500626e-16" style="fill:rgb(16.1%,15.3%,14.1%);fill-opacity:1.0;font-family:helvetica;font-size:10.0px;font-weight:normal;stroke:none;vertical-align:baseline;white-space:pre">4000</text></g><g transform="translate(403.70080602902937,-6)"><text x="-11.12" y="-4.440892098500626e-16" style="fill:rgb(16.1%,15.3%,14.1%);fill-opacity:1.0;font-family:helvetica;font-size:10.0px;font-weight:normal;stroke:none;vertical-align:baseline;white-space:pre">4500</text></g><g transform="translate(353.2382052754007,-6)"><text x="-11.12" y="-4.440892098500626e-16" style="fill:rgb(16.1%,15.3%,14.1%);fill-opacity:1.0;font-family:helvetica;font-size:10.0px;font-weight:normal;stroke:none;vertical-align:baseline;white-space:pre">5000</text></g><g transform="translate(302.775604521772,-6)"><text x="-11.12" y="-4.440892098500626e-16" style="fill:rgb(16.1%,15.3%,14.1%);fill-opacity:1.0;font-family:helvetica;font-size:10.0px;font-weight:normal;stroke:none;vertical-align:baseline;white-space:pre">5500</text></g><g transform="translate(252.31300376814337,-6)"><text x="-11.12" y="-4.440892098500626e-16" style="fill:rgb(16.1%,15.3%,14.1%);fill-opacity:1.0;font-family:helvetica;font-size:10.0px;font-weight:normal;stroke:none;vertical-align:baseline;white-space:pre">6000</text></g><g transform="translate(201.85040301451468,-6)"><text x="-11.12" y="-4.440892098500626e-16" style="fill:rgb(16.1%,15.3%,14.1%);fill-opacity:1.0;font-family:helvetica;font-size:10.0px;font-weight:normal;stroke:none;vertical-align:baseline;white-space:pre">6500</text></g><g transform="translate(151.387802260886,-6)"><text x="-11.12" y="-4.440892098500626e-16" style="fill:rgb(16.1%,15.3%,14.1%);fill-opacity:1.0;font-family:helvetica;font-size:10.0px;font-weight:normal;stroke:none;vertical-align:baseline;white-space:pre">7000</text></g><g transform="translate(100.92520150725734,-6)"><text x="-11.12" y="-4.440892098500626e-16" style="fill:rgb(16.1%,15.3%,14.1%);fill-opacity:1.0;font-family:helvetica;font-size:10.0px;font-weight:normal;stroke:none;vertical-align:baseline;white-space:pre">7500</text></g><g transform="translate(50.46260075362867,-6)"><text x="-11.12" y="-4.440892098500626e-16" style="fill:rgb(16.1%,15.3%,14.1%);fill-opacity:1.0;font-family:helvetica;font-size:10.0px;font-weight:normal;stroke:none;vertical-align:baseline;white-space:pre">8000</text></g></g><g class="toyplot-coordinates-Axis-coordinates" style="visibility:hidden" transform=""><line x1="0" x2="0" y1="3.0" y2="-4.5" style="stroke:rgb(43.9%,50.2%,56.5%);stroke-opacity:1.0;stroke-width:1.0" /><text x="0" y="6" style="alignment-baseline:hanging;fill:rgb(43.9%,50.2%,56.5%);fill-opacity:1.0;font-size:10px;font-weight:normal;stroke:none;text-anchor:middle" /></g></g></g><g class="toyplot-mark-Text" id="t2868fca3602d4232ae353e594dd50165"><g class="toyplot-Series"><g class="toyplot-Datum" transform="translate(150.0,650.0)"><text x="-106.56" y="4.599" style="fill:rgb(16.1%,15.3%,14.1%);fill-opacity:1.0;font-family:helvetica;font-size:18.0px;font-weight:normal;opacity:1;stroke:none;vertical-align:baseline;white-space:pre">Root Age: 6309 years B.P.</text></g></g></g></svg>