<svg class="toyplot-canvas-Canvas" xmlns:toyplot="http://www.sandia.gov/toyplot" xmlns:xlink="http://www.w3.org/1999/xlink" xmlns="http://www.w3.org/2000/svg" width="1000.0px" height="1150.0px" viewBox="0 0 1000.0 1150.0" preserveAspectRatio="xMidYMid meet" style="background-color:transparent;border-color:#292724;border-style:none;border-width:1.0;fill:rgb(16.1%,15.3%,14.1%);fill-opacity:1.0;font-family:Helvetica;font-size:12px;opacity:1.0;stroke:rgb(16.1%,15.3%,14.1%);stroke-opacity:1.0;stroke-width:1.0" id="t1fdeb3c703bb41af85a86d29ffb562c8"><g class="toyplot-coordinates-Cartesian" id="t44cddd8491e9499eb9cc14deb5a58ba4"><clipPath id="tad80061c6e4f4951ae4696b03a4765cf"><rect x="-5.0" y="25.0" width="1010.0" height="1100.0" /></clipPath><g clip-path="url(#tad80061c6e4f4951ae4696b03a4765cf)"><g class="toyplot-mark-AxisLines" style="stroke:rgb(82.7%,82.7%,82.7%);stroke-dasharray:8,10;stroke-opacity:1.0" id="t160f91527d5949beae495f2dab597082"><g class="toyplot-Series"><line class="toyplot-Datum" x1="857.8728709109238" x2="857.8728709109238" y1="30.0" y2="1120.0" style="opacity:1.0;stroke:rgb(82.7%,82.7%,82.7%);stroke-dasharray:8,10;stroke-opacity:1.0" /><line class="toyplot-Datum" x1="807.4097608573401" x2="807.4097608573401" y1="30.0" y2="1120.0" style="opacity:1.0;stroke:rgb(82.7%,82.7%,82.7%);stroke-dasharray:8,10;stroke-opacity:1.0" /><line class="toyplot-Datum" x1="756.9466508037564" x2="756.9466508037564" y1="30.0" y2="1120.0" style="opacity:1.0;stroke:rgb(82.7%,82.7%,82.7%);stroke-dasharray:8,10;stroke-opacity:1.0" /><line class="toyplot-Datum" x1="706.4835407501726" x2="706.4835407501726" y1="30.0" y2="1120.0" style="opacity:1.0;stroke:rgb(82.7%,82.7%,82.7%);stroke-dasharray:8,10;stroke-opacity:1.0" /><line class="toyplot-Datum" x1="656.0204306965887" x2="656.0204306965887" y1="30.0" y2="1120.0" style="opacity:1.0;stroke:rgb(82.7%,82.7%,82.7%);stroke-dasharray:8,10;stroke-opacity:1.0" /><line class="toyplot-Datum" x1="605.557320643005" x2="605.557320643005" y1="30.0" y2="1120.0" style="opacity:1.0;stroke:rgb(82.7%,82.7%,82.7%);stroke-dasharray:8,10;stroke-opacity:1.0" /><line class="toyplot-Datum" x1="555.0942105894213" x2="555.0942105894213" y1="30.0" y2="1120.0" style="opacity:1.0;stroke:rgb(82.7%,82.7%,82.7%);stroke-dasharray:8,10;stroke-opacity:1.0" /><line class="toyplot-Datum" x1="504.6311005358375" x2="504.6311005358375" y1="30.0" y2="1120.0" style="opacity:1.0;stroke:rgb(82.7%,82.7%,82.7%);stroke-dasharray:8,10;stroke-opacity:1.0" /><line class="toyplot-Datum" x1="454.16799048225374" x2="454.16799048225374" y1="30.0" y2="1120.0" style="opacity:1.0;stroke:rgb(82.7%,82.7%,82.7%);stroke-dasharray:8,10;stroke-opacity:1.0" /><line class="toyplot-Datum" x1="403.70488042867004" x2="403.70488042867004" y1="30.0" y2="1120.0" style="opacity:1.0;stroke:rgb(82.7%,82.7%,82.7%);stroke-dasharray:8,10;stroke-opacity:1.0" /><line class="toyplot-Datum" x1="353.2417703750863" x2="353.2417703750863" y1="30.0" y2="1120.0" style="opacity:1.0;stroke:rgb(82.7%,82.7%,82.7%);stroke-dasharray:8,10;stroke-opacity:1.0" /><line class="toyplot-Datum" x1="302.7786603215025" x2="302.7786603215025" y1="30.0" y2="1120.0" style="opacity:1.0;stroke:rgb(82.7%,82.7%,82.7%);stroke-dasharray:8,10;stroke-opacity:1.0" /><line class="toyplot-Datum" x1="252.31555026791875" x2="252.31555026791875" y1="30.0" y2="1120.0" style="opacity:1.0;stroke:rgb(82.7%,82.7%,82.7%);stroke-dasharray:8,10;stroke-opacity:1.0" /><line class="toyplot-Datum" x1="201.85244021433502" x2="201.85244021433502" y1="30.0" y2="1120.0" style="opacity:1.0;stroke:rgb(82.7%,82.7%,82.7%);stroke-dasharray:8,10;stroke-opacity:1.0" /><line class="toyplot-Datum" x1="151.38933016075126" x2="151.38933016075126" y1="30.0" y2="1120.0" style="opacity:1.0;stroke:rgb(82.7%,82.7%,82.7%);stroke-dasharray:8,10;stroke-opacity:1.0" /><line class="toyplot-Datum" x1="100.92622010716751" x2="100.92622010716751" y1="30.0" y2="1120.0" style="opacity:1.0;stroke:rgb(82.7%,82.7%,82.7%);stroke-dasharray:8,10;stroke-opacity:1.0" /><line class="toyplot-Datum" x1="50.463110053583755" x2="50.463110053583755" y1="30.0" y2="1120.0" style="opacity:1.0;stroke:rgb(82.7%,82.7%,82.7%);stroke-dasharray:8,10;stroke-opacity:1.0" /></g></g><g class="toytree-mark-Toytree" id="t0d6ab002a0324dc3ac4f15ee6a433049"><g class="toytree-Edges" style="fill:none;stroke:rgb(50.2%,50.2%,50.2%);stroke-linecap:round;stroke-opacity:1;stroke-width:2"><path d="M 251.5 107.3 L 251.5 171.7 L 329.4 171.7" id="186,185" /><path d="M 329.4 171.7 L 329.4 60.1 L 678.8 60.1" id="185,184" style="stroke:rgb(91.4%,58.8%,47.8%);stroke-opacity:1.0" /><path d="M 329.4 171.7 L 329.4 283.4 L 347.8 283.4" id="185,183" /><path d="M 347.8 283.4 L 347.8 100.8 L 383.1 100.8" id="183,182" /><path d="M 347.8 283.4 L 347.8 465.9 L 371.4 465.9" id="183,181" /><path d="M 383.1 100.8 L 383.1 82.9 L 805.9 82.9" id="182,180" style="stroke:rgb(28.2%,82%,80%);stroke-opacity:1.0" /><path d="M 383.1 100.8 L 383.1 118.7 L 415.6 118.7" id="182,179" /><path d="M 371.4 465.9 L 371.4 245.0 L 445.4 245.0" id="181,178" /><path d="M 371.4 465.9 L 371.4 686.8 L 409.1 686.8" id="181,177" /><path d="M 415.6 118.7 L 415.6 105.8 L 612.3 105.8" id="179,176" style="stroke:rgb(12.5%,69.8%,66.7%);stroke-opacity:1.0" /><path d="M 415.6 118.7 L 415.6 131.6 L 699.3 131.6" id="179,175" style="stroke:rgb(27.5%,51%,70.6%);stroke-opacity:1.0" /><path d="M 445.4 245.0 L 445.4 171.0 L 545.5 171.0" id="178,174" style="stroke:rgb(46.7%,53.3%,60%);stroke-opacity:1.0" /><path d="M 445.4 245.0 L 445.4 318.9 L 506.8 318.9" id="178,173" style="stroke:rgb(57.6%,43.9%,85.9%);stroke-opacity:1.0" /><path d="M 409.1 686.8 L 409.1 546.2 L 614.9 546.2" id="177,172" /><path d="M 409.1 686.8 L 409.1 827.5 L 440.7 827.5" id="177,171" /><path d="M 699.3 131.6 L 699.3 140.2 L 779.0 140.2" id="175,170" style="stroke:rgb(27.5%,51%,70.6%);stroke-opacity:1.0" /><path d="M 545.5 171.0 L 545.5 184.8 L 588.4 184.8" id="174,169" style="stroke:rgb(46.7%,53.3%,60%);stroke-opacity:1.0" /><path d="M 506.8 318.9 L 506.8 331.7 L 617.6 331.7" id="173,168" style="stroke:rgb(57.6%,43.9%,85.9%);stroke-opacity:1.0" /><path d="M 614.9 546.2 L 614.9 509.2 L 685.7 509.2" id="172,167" style="stroke:rgb(42%,55.7%,13.7%);stroke-opacity:1.0" /><path d="M 614.9 546.2 L 614.9 583.2 L 745.3 583.2" id="172,166" style="stroke:rgb(23.5%,70.2%,44.3%);stroke-opacity:1.0" /><path d="M 440.7 827.5 L 440.7 719.1 L 651.5 719.1" id="171,165" style="stroke:rgb(60.4%,80.4%,19.6%);stroke-opacity:1.0" /><path d="M 440.7 827.5 L 440.7 935.8 L 461.9 935.8" id="171,164" /><path d="M 588.4 184.8 L 588.4 200.8 L 623.5 200.8" id="169,163" style="stroke:rgb(46.7%,53.3%,60%);stroke-opacity:1.0" /><path d="M 617.6 331.7 L 617.6 345.8 L 648.1 345.8" id="168,162" style="stroke:rgb(57.6%,43.9%,85.9%);stroke-opacity:1.0" /><path d="M 685.7 509.2 L 685.7 517.8 L 757.2 517.8" id="167,161" style="stroke:rgb(42%,55.7%,13.7%);stroke-opacity:1.0" /><path d="M 745.3 583.2 L 745.3 545.7 L 746.9 545.7" id="166,160" style="stroke:rgb(23.5%,70.2%,44.3%);stroke-opacity:1.0" /><path d="M 745.3 583.2 L 745.3 620.8 L 793.5 620.8" id="166,159" style="stroke:rgb(23.5%,70.2%,44.3%);stroke-opacity:1.0" /><path d="M 651.5 719.1 L 651.5 754.5 L 702.6 754.5" id="165,158" style="stroke:rgb(60.4%,80.4%,19.6%);stroke-opacity:1.0" /><path d="M 461.9 935.8 L 461.9 904.0 L 612.3 904.0" id="164,157" style="stroke:rgb(73.7%,56.1%,56.1%);stroke-opacity:1.0" /><path d="M 461.9 935.8 L 461.9 967.7 L 642.6 967.7" id="164,156" style="stroke:rgb(87.1%,72.2%,52.9%);stroke-opacity:1.0" /><path d="M 623.5 200.8 L 623.5 221.3 L 664.7 221.3" id="163,155" style="stroke:rgb(46.7%,53.3%,60%);stroke-opacity:1.0" /><path d="M 648.1 345.8 L 648.1 362.7 L 670.7 362.7" id="162,154" style="stroke:rgb(57.6%,43.9%,85.9%);stroke-opacity:1.0" /><path d="M 746.9 545.7 L 746.9 556.4 L 779.7 556.4" id="160,153" style="stroke:rgb(23.5%,70.2%,44.3%);stroke-opacity:1.0" /><path d="M 793.5 620.8 L 793.5 600.7 L 802.9 600.7" id="159,152" style="stroke:rgb(23.5%,70.2%,44.3%);stroke-opacity:1.0" /><path d="M 793.5 620.8 L 793.5 640.8 L 800.9 640.8" id="159,151" style="stroke:rgb(23.5%,70.2%,44.3%);stroke-opacity:1.0" /><path d="M 702.6 754.5 L 702.6 714.5 L 752.5 714.5" id="158,150" style="stroke:rgb(60.4%,80.4%,19.6%);stroke-opacity:1.0" /><path d="M 702.6 754.5 L 702.6 794.6 L 711.3 794.6" id="158,149" style="stroke:rgb(60.4%,80.4%,19.6%);stroke-opacity:1.0" /><path d="M 612.3 904.0 L 612.3 886.8 L 751.8 886.8" id="157,148" style="stroke:rgb(73.7%,56.1%,56.1%);stroke-opacity:1.0" /><path d="M 612.3 904.0 L 612.3 921.2 L 730.5 921.2" id="157,147" style="stroke:rgb(73.7%,56.1%,56.1%);stroke-opacity:1.0" /><path d="M 642.6 967.7 L 642.6 988.5 L 752.2 988.5" id="156,146" style="stroke:rgb(87.1%,72.2%,52.9%);stroke-opacity:1.0" /><path d="M 664.7 221.3 L 664.7 197.4 L 814.1 197.4" id="155,145" style="stroke:rgb(46.7%,53.3%,60%);stroke-opacity:1.0" /><path d="M 664.7 221.3 L 664.7 245.3 L 693.8 245.3" id="155,144" style="stroke:rgb(46.7%,53.3%,60%);stroke-opacity:1.0" /><path d="M 670.7 362.7 L 670.7 385.0 L 710.4 385.0" id="154,143" style="stroke:rgb(57.6%,43.9%,85.9%);stroke-opacity:1.0" /><path d="M 779.7 556.4 L 779.7 566.4 L 800.1 566.4" id="153,142" style="stroke:rgb(23.5%,70.2%,44.3%);stroke-opacity:1.0" /><path d="M 802.9 600.7 L 802.9 609.3 L 814.4 609.3" id="152,141" style="stroke:rgb(23.5%,70.2%,44.3%);stroke-opacity:1.0" /><path d="M 800.9 640.8 L 800.9 655.1 L 816.4 655.1" id="151,140" style="stroke:rgb(23.5%,70.2%,44.3%);stroke-opacity:1.0" /><path d="M 752.5 714.5 L 752.5 700.9 L 819.9 700.9" id="150,139" style="stroke:rgb(60.4%,80.4%,19.6%);stroke-opacity:1.0" /><path d="M 752.5 714.5 L 752.5 728.1 L 780.9 728.1" id="150,138" style="stroke:rgb(60.4%,80.4%,19.6%);stroke-opacity:1.0" /><path d="M 711.3 794.6 L 711.3 769.5 L 754.8 769.5" id="149,137" style="stroke:rgb(60.4%,80.4%,19.6%);stroke-opacity:1.0" /><path d="M 711.3 794.6 L 711.3 819.6 L 730.6 819.6" id="149,136" style="stroke:rgb(60.4%,80.4%,19.6%);stroke-opacity:1.0" /><path d="M 751.8 886.8 L 751.8 895.4 L 773.1 895.4" id="148,135" style="stroke:rgb(73.7%,56.1%,56.1%);stroke-opacity:1.0" /><path d="M 730.5 921.2 L 730.5 929.7 L 825.8 929.7" id="147,134" style="stroke:rgb(73.7%,56.1%,56.1%);stroke-opacity:1.0" /><path d="M 752.2 988.5 L 752.2 964.1 L 823.1 964.1" id="146,133" style="stroke:rgb(87.1%,72.2%,52.9%);stroke-opacity:1.0" /><path d="M 752.2 988.5 L 752.2 1012.9 L 755.0 1012.9" id="146,132" style="stroke:rgb(87.1%,72.2%,52.9%);stroke-opacity:1.0" /><path d="M 693.8 245.3 L 693.8 223.1 L 715.5 223.1" id="144,131" style="stroke:rgb(46.7%,53.3%,60%);stroke-opacity:1.0" /><path d="M 693.8 245.3 L 693.8 267.5 L 720.9 267.5" id="144,130" style="stroke:rgb(46.7%,53.3%,60%);stroke-opacity:1.0" /><path d="M 710.4 385.0 L 710.4 357.6 L 722.7 357.6" id="143,129" style="stroke:rgb(57.6%,43.9%,85.9%);stroke-opacity:1.0" /><path d="M 710.4 385.0 L 710.4 412.5 L 733.8 412.5" id="143,128" style="stroke:rgb(57.6%,43.9%,85.9%);stroke-opacity:1.0" /><path d="M 800.1 566.4 L 800.1 575.0 L 814.5 575.0" id="142,127" style="stroke:rgb(23.5%,70.2%,44.3%);stroke-opacity:1.0" /><path d="M 816.4 655.1 L 816.4 643.7 L 835.7 643.7" id="140,126" style="stroke:rgb(23.5%,70.2%,44.3%);stroke-opacity:1.0" /><path d="M 816.4 655.1 L 816.4 666.5 L 851.9 666.5" id="140,125" style="stroke:rgb(23.5%,70.2%,44.3%);stroke-opacity:1.0" /><path d="M 780.9 728.1 L 780.9 738.1 L 822.6 738.1" id="138,124" style="stroke:rgb(60.4%,80.4%,19.6%);stroke-opacity:1.0" /><path d="M 730.6 819.6 L 730.6 796.7 L 812.7 796.7" id="136,123" style="stroke:rgb(60.4%,80.4%,19.6%);stroke-opacity:1.0" /><path d="M 730.6 819.6 L 730.6 842.5 L 754.9 842.5" id="136,122" style="stroke:rgb(60.4%,80.4%,19.6%);stroke-opacity:1.0" /><path d="M 755.0 1012.9 L 755.0 987.0 L 804.3 987.0" id="132,121" style="stroke:rgb(87.1%,72.2%,52.9%);stroke-opacity:1.0" /><path d="M 755.0 1012.9 L 755.0 1038.8 L 777.2 1038.8" id="132,120" style="stroke:rgb(87.1%,72.2%,52.9%);stroke-opacity:1.0" /><path d="M 715.5 223.1 L 715.5 231.7 L 765.8 231.7" id="131,119" style="stroke:rgb(46.7%,53.3%,60%);stroke-opacity:1.0" /><path d="M 720.9 267.5 L 720.9 254.6 L 805.0 254.6" id="130,118" style="stroke:rgb(46.7%,53.3%,60%);stroke-opacity:1.0" /><path d="M 720.9 267.5 L 720.9 280.3 L 732.7 280.3" id="130,117" style="stroke:rgb(46.7%,53.3%,60%);stroke-opacity:1.0" /><path d="M 733.8 412.5 L 733.8 384.8 L 744.7 384.8" id="128,116" style="stroke:rgb(57.6%,43.9%,85.9%);stroke-opacity:1.0" /><path d="M 733.8 412.5 L 733.8 440.2 L 747.0 440.2" id="128,115" style="stroke:rgb(57.6%,43.9%,85.9%);stroke-opacity:1.0" /><path d="M 822.6 738.1 L 822.6 746.6 L 834.0 746.6" id="124,114" style="stroke:rgb(60.4%,80.4%,19.6%);stroke-opacity:1.0" /><path d="M 812.7 796.7 L 812.7 806.7 L 837.7 806.7" id="123,113" style="stroke:rgb(60.4%,80.4%,19.6%);stroke-opacity:1.0" /><path d="M 754.9 842.5 L 754.9 852.5 L 834.0 852.5" id="122,112" style="stroke:rgb(60.4%,80.4%,19.6%);stroke-opacity:1.0" /><path d="M 777.2 1038.8 L 777.2 1012.7 L 791.0 1012.7" id="120,111" style="stroke:rgb(87.1%,72.2%,52.9%);stroke-opacity:1.0" /><path d="M 777.2 1038.8 L 777.2 1064.9 L 786.3 1064.9" id="120,110" style="stroke:rgb(87.1%,72.2%,52.9%);stroke-opacity:1.0" /><path d="M 732.7 280.3 L 732.7 288.9 L 764.0 288.9" id="117,109" style="stroke:rgb(46.7%,53.3%,60%);stroke-opacity:1.0" /><path d="M 744.7 384.8 L 744.7 394.8 L 771.3 394.8" id="116,108" style="stroke:rgb(57.6%,43.9%,85.9%);stroke-opacity:1.0" /><path d="M 747.0 440.2 L 747.0 426.2 L 781.3 426.2" id="115,107" style="stroke:rgb(57.6%,43.9%,85.9%);stroke-opacity:1.0" /><path d="M 747.0 440.2 L 747.0 454.1 L 768.1 454.1" id="115,106" style="stroke:rgb(57.6%,43.9%,85.9%);stroke-opacity:1.0" /><path d="M 837.7 806.7 L 837.7 815.3 L 841.5 815.3" id="113,105" style="stroke:rgb(60.4%,80.4%,19.6%);stroke-opacity:1.0" /><path d="M 834.0 852.5 L 834.0 861.1 L 840.4 861.1" id="112,104" style="stroke:rgb(60.4%,80.4%,19.6%);stroke-opacity:1.0" /><path d="M 791.0 1012.7 L 791.0 1021.3 L 818.9 1021.3" id="111,103" style="stroke:rgb(87.1%,72.2%,52.9%);stroke-opacity:1.0" /><path d="M 786.3 1064.9 L 786.3 1047.0 L 820.6 1047.0" id="110,102" style="stroke:rgb(87.1%,72.2%,52.9%);stroke-opacity:1.0" /><path d="M 786.3 1064.9 L 786.3 1082.8 L 797.7 1082.8" id="110,101" style="stroke:rgb(87.1%,72.2%,52.9%);stroke-opacity:1.0" /><path d="M 771.3 394.8 L 771.3 403.4 L 782.1 403.4" id="108,100" style="stroke:rgb(57.6%,43.9%,85.9%);stroke-opacity:1.0" /><path d="M 768.1 454.1 L 768.1 464.9 L 804.4 464.9" id="106,99" style="stroke:rgb(57.6%,43.9%,85.9%);stroke-opacity:1.0" /><path d="M 820.6 1047.0 L 820.6 1055.6 L 839.0 1055.6" id="102,98" style="stroke:rgb(87.1%,72.2%,52.9%);stroke-opacity:1.0" /><path d="M 797.7 1082.8 L 797.7 1092.8 L 807.6 1092.8" id="101,97" style="stroke:rgb(87.1%,72.2%,52.9%);stroke-opacity:1.0" /><path d="M 804.4 464.9 L 804.4 474.9 L 817.2 474.9" id="99,96" style="stroke:rgb(57.6%,43.9%,85.9%);stroke-opacity:1.0" /><path d="M 807.6 1092.8 L 807.6 1101.4 L 819.6 1101.4" id="97,95" style="stroke:rgb(87.1%,72.2%,52.9%);stroke-opacity:1.0" /><path d="M 817.2 474.9 L 817.2 483.5 L 829.1 483.5" id="96,94" style="stroke:rgb(57.6%,43.9%,85.9%);stroke-opacity:1.0" /><path d="M 251.5 107.3 L 251.5 42.9 L 499.6 42.9" id="186,93" style="stroke:rgb(54.5%,27.1%,7.45%);stroke-opacity:1.0" /><path d="M 678.8 60.1 L 678.8 54.3 L 722.2 54.3" id="184,92" style="stroke:rgb(91.4%,58.8%,47.8%);stroke-opacity:1.0" /><path d="M 678.8 60.1 L 678.8 65.8 L 721.7 65.8" id="184,91" style="stroke:rgb(91.4%,58.8%,47.8%);stroke-opacity:1.0" /><path d="M 805.9 82.9 L 805.9 77.2 L 857.8 77.2" id="180,90" style="stroke:rgb(28.2%,82%,80%);stroke-opacity:1.0" /><path d="M 805.9 82.9 L 805.9 88.7 L 857.8 88.7" id="180,89" style="stroke:rgb(28.2%,82%,80%);stroke-opacity:1.0" /><path d="M 612.3 105.8 L 612.3 100.1 L 857.8 100.1" id="176,88" style="stroke:rgb(12.5%,69.8%,66.7%);stroke-opacity:1.0" /><path d="M 612.3 105.8 L 612.3 111.5 L 612.3 111.5" id="176,87" style="stroke:rgb(80.4%,36.1%,36.1%);stroke-opacity:1.0" /><path d="M 699.3 131.6 L 699.3 123.0 L 699.3 123.0" id="175,86" style="stroke:rgb(80.4%,36.1%,36.1%);stroke-opacity:1.0" /><path d="M 779.0 140.2 L 779.0 134.4 L 857.8 134.4" id="170,85" style="stroke:rgb(27.5%,51%,70.6%);stroke-opacity:1.0" /><path d="M 779.0 140.2 L 779.0 145.9 L 857.8 145.9" id="170,84" style="stroke:rgb(27.5%,51%,70.6%);stroke-opacity:1.0" /><path d="M 545.5 171.0 L 545.5 157.3 L 603.1 157.3" id="174,83" style="stroke:rgb(46.7%,53.3%,60%);stroke-opacity:1.0" /><path d="M 588.4 184.8 L 588.4 168.8 L 857.8 168.8" id="169,82" style="stroke:rgb(46.7%,53.3%,60%);stroke-opacity:1.0" /><path d="M 623.5 200.8 L 623.5 180.2 L 725.1 180.2" id="163,81" style="stroke:rgb(46.7%,53.3%,60%);stroke-opacity:1.0" /><path d="M 814.1 197.4 L 814.1 191.7 L 857.8 191.7" id="145,80" style="stroke:rgb(46.7%,53.3%,60%);stroke-opacity:1.0" /><path d="M 814.1 197.4 L 814.1 203.1 L 857.8 203.1" id="145,79" style="stroke:rgb(46.7%,53.3%,60%);stroke-opacity:1.0" /><path d="M 715.5 223.1 L 715.5 214.5 L 857.8 214.5" id="131,78" style="stroke:rgb(46.7%,53.3%,60%);stroke-opacity:1.0" /><path d="M 765.8 231.7 L 765.8 226.0 L 857.9 226.0" id="119,77" style="stroke:rgb(46.7%,53.3%,60%);stroke-opacity:1.0" /><path d="M 765.8 231.7 L 765.8 237.4 L 857.9 237.4" id="119,76" style="stroke:rgb(46.7%,53.3%,60%);stroke-opacity:1.0" /><path d="M 805.0 254.6 L 805.0 248.9 L 857.8 248.9" id="118,75" style="stroke:rgb(46.7%,53.3%,60%);stroke-opacity:1.0" /><path d="M 805.0 254.6 L 805.0 260.3 L 857.8 260.3" id="118,74" style="stroke:rgb(46.7%,53.3%,60%);stroke-opacity:1.0" /><path d="M 732.7 280.3 L 732.7 271.8 L 857.8 271.8" id="117,73" style="stroke:rgb(46.7%,53.3%,60%);stroke-opacity:1.0" /><path d="M 764.0 288.9 L 764.0 283.2 L 857.8 283.2" id="109,72" style="stroke:rgb(46.7%,53.3%,60%);stroke-opacity:1.0" /><path d="M 764.0 288.9 L 764.0 294.6 L 857.8 294.6" id="109,71" style="stroke:rgb(46.7%,53.3%,60%);stroke-opacity:1.0" /><path d="M 506.8 318.9 L 506.8 306.1 L 506.8 306.1" id="173,70" style="stroke:rgb(80.4%,36.1%,36.1%);stroke-opacity:1.0" /><path d="M 617.6 331.7 L 617.6 317.5 L 857.8 317.5" id="168,69" style="stroke:rgb(57.6%,43.9%,85.9%);stroke-opacity:1.0" /><path d="M 648.1 345.8 L 648.1 329.0 L 857.8 329.0" id="162,68" style="stroke:rgb(57.6%,43.9%,85.9%);stroke-opacity:1.0" /><path d="M 670.7 362.7 L 670.7 340.4 L 857.8 340.4" id="154,67" style="stroke:rgb(57.6%,43.9%,85.9%);stroke-opacity:1.0" /><path d="M 722.7 357.6 L 722.7 351.9 L 857.8 351.9" id="129,66" style="stroke:rgb(57.6%,43.9%,85.9%);stroke-opacity:1.0" /><path d="M 722.7 357.6 L 722.7 363.3 L 857.8 363.3" id="129,65" style="stroke:rgb(57.6%,43.9%,85.9%);stroke-opacity:1.0" /><path d="M 744.7 384.8 L 744.7 374.7 L 857.8 374.7" id="116,64" style="stroke:rgb(57.6%,43.9%,85.9%);stroke-opacity:1.0" /><path d="M 771.3 394.8 L 771.3 386.2 L 857.8 386.2" id="108,63" style="stroke:rgb(57.6%,43.9%,85.9%);stroke-opacity:1.0" /><path d="M 782.1 403.4 L 782.1 397.6 L 857.8 397.6" id="100,62" style="stroke:rgb(57.6%,43.9%,85.9%);stroke-opacity:1.0" /><path d="M 782.1 403.4 L 782.1 409.1 L 857.8 409.1" id="100,61" style="stroke:rgb(57.6%,43.9%,85.9%);stroke-opacity:1.0" /><path d="M 781.3 426.2 L 781.3 420.5 L 857.8 420.5" id="107,60" style="stroke:rgb(57.6%,43.9%,85.9%);stroke-opacity:1.0" /><path d="M 781.3 426.2 L 781.3 432.0 L 857.8 432.0" id="107,59" style="stroke:rgb(57.6%,43.9%,85.9%);stroke-opacity:1.0" /><path d="M 768.1 454.1 L 768.1 443.4 L 857.8 443.4" id="106,58" style="stroke:rgb(57.6%,43.9%,85.9%);stroke-opacity:1.0" /><path d="M 804.4 464.9 L 804.4 454.8 L 857.8 454.8" id="99,57" style="stroke:rgb(57.6%,43.9%,85.9%);stroke-opacity:1.0" /><path d="M 817.2 474.9 L 817.2 466.3 L 857.8 466.3" id="96,56" style="stroke:rgb(57.6%,43.9%,85.9%);stroke-opacity:1.0" /><path d="M 829.1 483.5 L 829.1 477.7 L 857.8 477.7" id="94,55" style="stroke:rgb(57.6%,43.9%,85.9%);stroke-opacity:1.0" /><path d="M 829.1 483.5 L 829.1 489.2 L 857.8 489.2" id="94,54" style="stroke:rgb(57.6%,43.9%,85.9%);stroke-opacity:1.0" /><path d="M 685.7 509.2 L 685.7 500.6 L 802.2 500.6" id="167,53" style="stroke:rgb(42%,55.7%,13.7%);stroke-opacity:1.0" /><path d="M 757.2 517.8 L 757.2 512.1 L 857.9 512.1" id="161,52" style="stroke:rgb(42%,55.7%,13.7%);stroke-opacity:1.0" /><path d="M 757.2 517.8 L 757.2 523.5 L 857.9 523.5" id="161,51" style="stroke:rgb(42%,55.7%,13.7%);stroke-opacity:1.0" /><path d="M 746.9 545.7 L 746.9 534.9 L 761.1 534.9" id="160,50" style="stroke:rgb(23.5%,70.2%,44.3%);stroke-opacity:1.0" /><path d="M 779.7 556.4 L 779.7 546.4 L 857.9 546.4" id="153,49" style="stroke:rgb(23.5%,70.2%,44.3%);stroke-opacity:1.0" /><path d="M 800.1 566.4 L 800.1 557.8 L 857.9 557.8" id="142,48" style="stroke:rgb(23.5%,70.2%,44.3%);stroke-opacity:1.0" /><path d="M 814.5 575.0 L 814.5 569.3 L 857.8 569.3" id="127,47" style="stroke:rgb(23.5%,70.2%,44.3%);stroke-opacity:1.0" /><path d="M 814.5 575.0 L 814.5 580.7 L 857.8 580.7" id="127,46" style="stroke:rgb(23.5%,70.2%,44.3%);stroke-opacity:1.0" /><path d="M 802.9 600.7 L 802.9 592.2 L 857.9 592.2" id="152,45" style="stroke:rgb(23.5%,70.2%,44.3%);stroke-opacity:1.0" /><path d="M 814.4 609.3 L 814.4 603.6 L 857.9 603.6" id="141,44" style="stroke:rgb(23.5%,70.2%,44.3%);stroke-opacity:1.0" /><path d="M 814.4 609.3 L 814.4 615.1 L 857.9 615.1" id="141,43" style="stroke:rgb(23.5%,70.2%,44.3%);stroke-opacity:1.0" /><path d="M 800.9 640.8 L 800.9 626.5 L 857.9 626.5" id="151,42" style="stroke:rgb(23.5%,70.2%,44.3%);stroke-opacity:1.0" /><path d="M 835.7 643.7 L 835.7 637.9 L 857.9 637.9" id="126,41" style="stroke:rgb(23.5%,70.2%,44.3%);stroke-opacity:1.0" /><path d="M 835.7 643.7 L 835.7 649.4 L 857.9 649.4" id="126,40" style="stroke:rgb(23.5%,70.2%,44.3%);stroke-opacity:1.0" /><path d="M 851.9 666.5 L 851.9 660.8 L 857.9 660.8" id="125,39" style="stroke:rgb(23.5%,70.2%,44.3%);stroke-opacity:1.0" /><path d="M 851.9 666.5 L 851.9 672.3 L 857.9 672.3" id="125,38" style="stroke:rgb(23.5%,70.2%,44.3%);stroke-opacity:1.0" /><path d="M 651.5 719.1 L 651.5 683.7 L 691.6 683.7" id="165,37" style="stroke:rgb(60.4%,80.4%,19.6%);stroke-opacity:1.0" /><path d="M 819.9 700.9 L 819.9 695.2 L 857.9 695.2" id="139,36" style="stroke:rgb(60.4%,80.4%,19.6%);stroke-opacity:1.0" /><path d="M 819.9 700.9 L 819.9 706.6 L 857.9 706.6" id="139,35" style="stroke:rgb(60.4%,80.4%,19.6%);stroke-opacity:1.0" /><path d="M 780.9 728.1 L 780.9 718.0 L 780.9 718.0" id="138,34" style="stroke:rgb(80.4%,36.1%,36.1%);stroke-opacity:1.0" /><path d="M 822.6 738.1 L 822.6 729.5 L 857.9 729.5" id="124,33" style="stroke:rgb(60.4%,80.4%,19.6%);stroke-opacity:1.0" /><path d="M 834.0 746.6 L 834.0 740.9 L 857.9 740.9" id="114,32" style="stroke:rgb(60.4%,80.4%,19.6%);stroke-opacity:1.0" /><path d="M 834.0 746.6 L 834.0 752.4 L 857.9 752.4" id="114,31" style="stroke:rgb(60.4%,80.4%,19.6%);stroke-opacity:1.0" /><path d="M 754.8 769.5 L 754.8 763.8 L 754.8 763.8" id="137,30" style="stroke:rgb(80.4%,36.1%,36.1%);stroke-opacity:1.0" /><path d="M 754.8 769.5 L 754.8 775.3 L 857.9 775.3" id="137,29" style="stroke:rgb(60.4%,80.4%,19.6%);stroke-opacity:1.0" /><path d="M 812.7 796.7 L 812.7 786.7 L 857.9 786.7" id="123,28" style="stroke:rgb(60.4%,80.4%,19.6%);stroke-opacity:1.0" /><path d="M 837.7 806.7 L 837.7 798.1 L 857.9 798.1" id="113,27" style="stroke:rgb(60.4%,80.4%,19.6%);stroke-opacity:1.0" /><path d="M 841.5 815.3 L 841.5 809.6 L 857.9 809.6" id="105,26" style="stroke:rgb(60.4%,80.4%,19.6%);stroke-opacity:1.0" /><path d="M 841.5 815.3 L 841.5 821.0 L 857.9 821.0" id="105,25" style="stroke:rgb(60.4%,80.4%,19.6%);stroke-opacity:1.0" /><path d="M 754.9 842.5 L 754.9 832.5 L 754.9 832.5" id="122,24" style="stroke:rgb(80.4%,36.1%,36.1%);stroke-opacity:1.0" /><path d="M 834.0 852.5 L 834.0 843.9 L 857.9 843.9" id="112,23" style="stroke:rgb(60.4%,80.4%,19.6%);stroke-opacity:1.0" /><path d="M 840.4 861.1 L 840.4 855.4 L 857.9 855.4" id="104,22" style="stroke:rgb(60.4%,80.4%,19.6%);stroke-opacity:1.0" /><path d="M 840.4 861.1 L 840.4 866.8 L 857.9 866.8" id="104,21" style="stroke:rgb(60.4%,80.4%,19.6%);stroke-opacity:1.0" /><path d="M 751.8 886.8 L 751.8 878.2 L 857.9 878.2" id="148,20" style="stroke:rgb(73.7%,56.1%,56.1%);stroke-opacity:1.0" /><path d="M 773.1 895.4 L 773.1 889.7 L 857.9 889.7" id="135,19" style="stroke:rgb(73.7%,56.1%,56.1%);stroke-opacity:1.0" /><path d="M 773.1 895.4 L 773.1 901.1 L 825.5 901.1" id="135,18" style="stroke:rgb(73.7%,56.1%,56.1%);stroke-opacity:1.0" /><path d="M 730.5 921.2 L 730.5 912.6 L 730.5 912.6" id="147,17" style="stroke:rgb(80.4%,36.1%,36.1%);stroke-opacity:1.0" /><path d="M 825.8 929.7 L 825.8 924.0 L 857.9 924.0" id="134,16" style="stroke:rgb(73.7%,56.1%,56.1%);stroke-opacity:1.0" /><path d="M 825.8 929.7 L 825.8 935.5 L 857.9 935.5" id="134,15" style="stroke:rgb(73.7%,56.1%,56.1%);stroke-opacity:1.0" /><path d="M 642.6 967.7 L 642.6 946.9 L 642.6 946.9" id="156,14" style="stroke:rgb(80.4%,36.1%,36.1%);stroke-opacity:1.0" /><path d="M 823.1 964.1 L 823.1 958.3 L 857.9 958.3" id="133,13" style="stroke:rgb(87.1%,72.2%,52.9%);stroke-opacity:1.0" /><path d="M 823.1 964.1 L 823.1 969.8 L 857.9 969.8" id="133,12" style="stroke:rgb(87.1%,72.2%,52.9%);stroke-opacity:1.0" /><path d="M 804.3 987.0 L 804.3 981.2 L 857.9 981.2" id="121,11" style="stroke:rgb(87.1%,72.2%,52.9%);stroke-opacity:1.0" /><path d="M 804.3 987.0 L 804.3 992.7 L 857.9 992.7" id="121,10" style="stroke:rgb(87.1%,72.2%,52.9%);stroke-opacity:1.0" /><path d="M 791.0 1012.7 L 791.0 1004.1 L 857.9 1004.1" id="111,9" style="stroke:rgb(87.1%,72.2%,52.9%);stroke-opacity:1.0" /><path d="M 818.9 1021.3 L 818.9 1015.6 L 857.9 1015.6" id="103,8" style="stroke:rgb(87.1%,72.2%,52.9%);stroke-opacity:1.0" /><path d="M 818.9 1021.3 L 818.9 1027.0 L 857.9 1027.0" id="103,7" style="stroke:rgb(87.1%,72.2%,52.9%);stroke-opacity:1.0" /><path d="M 820.6 1047.0 L 820.6 1038.5 L 857.9 1038.5" id="102,6" style="stroke:rgb(87.1%,72.2%,52.9%);stroke-opacity:1.0" /><path d="M 839.0 1055.6 L 839.0 1049.9 L 857.9 1049.9" id="98,5" style="stroke:rgb(87.1%,72.2%,52.9%);stroke-opacity:1.0" /><path d="M 839.0 1055.6 L 839.0 1061.3 L 857.9 1061.3" id="98,4" style="stroke:rgb(87.1%,72.2%,52.9%);stroke-opacity:1.0" /><path d="M 797.7 1082.8 L 797.7 1072.8 L 857.9 1072.8" id="101,3" style="stroke:rgb(87.1%,72.2%,52.9%);stroke-opacity:1.0" /><path d="M 807.6 1092.8 L 807.6 1084.2 L 857.9 1084.2" id="97,2" style="stroke:rgb(87.1%,72.2%,52.9%);stroke-opacity:1.0" /><path d="M 819.6 1101.4 L 819.6 1095.7 L 857.9 1095.7" id="95,1" style="stroke:rgb(87.1%,72.2%,52.9%);stroke-opacity:1.0" /><path d="M 819.6 1101.4 L 819.6 1107.1 L 857.9 1107.1" id="95,0" style="stroke:rgb(87.1%,72.2%,52.9%);stroke-opacity:1.0" /></g><g class="toytree-TipLabels" style="fill:rgb(14.9%,14.9%,14.9%);fill-opacity:1.0;font-family:helvetica;font-size:12px;font-weight:normal;stroke:none;white-space:pre"><g transform="translate(857.87,1107.11)rotate(0)"><text x="5.00" y="3.07" style="">Friulian</text></g><g transform="translate(857.87,1095.67)rotate(0)"><text x="5.00" y="3.07" style="">Romansh</text></g><g transform="translate(857.86,1084.23)rotate(0)"><text x="5.00" y="3.07" style="">Ladin</text></g><g transform="translate(857.86,1072.78)rotate(0)"><text x="5.00" y="3.07" style="">Italian</text></g><g transform="translate(857.86,1061.34)rotate(0)"><text x="5.00" y="3.07" style="">French</text></g><g transform="translate(857.86,1049.90)rotate(0)"><text x="5.00" y="3.07" style="">Walloon</text></g><g transform="translate(857.86,1038.45)rotate(0)"><text x="5.00" y="3.07" style="">Provencal</text></g><g transform="translate(857.85,1027.01)rotate(0)"><text x="5.00" y="3.07" style="">Spanish</text></g><g transform="translate(857.85,1015.57)rotate(0)"><text x="5.00" y="3.07" style="">Portuguese</text></g><g transform="translate(857.85,1004.12)rotate(0)"><text x="5.00" y="3.07" style="">Catalan</text></g><g transform="translate(857.86,992.68)rotate(0)"><text x="5.00" y="3.07" style="">Romanian</text></g><g transform="translate(857.86,981.24)rotate(0)"><text x="5.00" y="3.07" style="">Arumanian</text></g><g transform="translate(857.85,969.79)rotate(0)"><text x="5.00" y="3.07" style="">Nuorese</text></g><g transform="translate(857.85,958.35)rotate(0)"><text x="5.00" y="3.07" style="">Cagliari</text></g><g transform="translate(642.59,946.91)rotate(0)"><text x="5.00" y="3.07" style="">Latin</text></g><g transform="translate(857.85,935.46)rotate(0)"><text x="5.00" y="3.07" style="">Irish</text></g><g transform="translate(857.85,924.02)rotate(0)"><text x="5.00" y="3.07" style="">Scots Gaelic</text></g><g transform="translate(730.54,912.58)rotate(0)"><text x="5.00" y="3.07" style="">Old Irish</text></g><g transform="translate(825.49,901.13)rotate(0)"><text x="5.00" y="3.07" style="">Cornish</text></g><g transform="translate(857.85,889.69)rotate(0)"><text x="5.00" y="3.07" style="">Breton</text></g><g transform="translate(857.85,878.25)rotate(0)"><text x="5.00" y="3.07" style="">Welsh</text></g><g transform="translate(857.85,866.80)rotate(0)"><text x="5.00" y="3.07" style="">Swiss German</text></g><g transform="translate(857.85,855.36)rotate(0)"><text x="5.00" y="3.07" style="">German</text></g><g transform="translate(857.85,843.92)rotate(0)"><text x="5.00" y="3.07" style="">Luxembourgish</text></g><g transform="translate(754.87,832.47)rotate(0)"><text x="5.00" y="3.07" style="">Old High German</text></g><g transform="translate(857.85,821.03)rotate(0)"><text x="5.00" y="3.07" style="">Dutch</text></g><g transform="translate(857.85,809.59)rotate(0)"><text x="5.00" y="3.07" style="">Flemish</text></g><g transform="translate(857.85,798.14)rotate(0)"><text x="5.00" y="3.07" style="">Afrikaans</text></g><g transform="translate(857.85,786.70)rotate(0)"><text x="5.00" y="3.07" style="">Frisian</text></g><g transform="translate(857.85,775.26)rotate(0)"><text x="5.00" y="3.07" style="">English</text></g><g transform="translate(754.77,763.81)rotate(0)"><text x="5.00" y="3.07" style="">Old English</text></g><g transform="translate(857.85,752.37)rotate(0)"><text x="5.00" y="3.07" style="">Faroese</text></g><g transform="translate(857.85,740.93)rotate(0)"><text x="5.00" y="3.07" style="">Icelandic</text></g><g transform="translate(857.85,729.48)rotate(0)"><text x="5.00" y="3.07" style="">Norwegian</text></g><g transform="translate(780.89,718.04)rotate(0)"><text x="5.00" y="3.07" style="">Old West Norse</text></g><g transform="translate(857.85,706.60)rotate(0)"><text x="5.00" y="3.07" style="">Danish</text></g><g transform="translate(857.85,695.15)rotate(0)"><text x="5.00" y="3.07" style="">Swedish</text></g><g transform="translate(691.59,683.71)rotate(0)"><text x="5.00" y="3.07" style="">Gothic</text></g><g transform="translate(857.85,672.27)rotate(0)"><text x="5.00" y="3.07" style="">Lower Sorbian</text></g><g transform="translate(857.85,660.82)rotate(0)"><text x="5.00" y="3.07" style="">Upper Sorbian</text></g><g transform="translate(857.86,649.38)rotate(0)"><text x="5.00" y="3.07" style="">Czech</text></g><g transform="translate(857.86,637.94)rotate(0)"><text x="5.00" y="3.07" style="">Slovak</text></g><g transform="translate(857.86,626.49)rotate(0)"><text x="5.00" y="3.07" style="">Polish</text></g><g transform="translate(857.85,615.05)rotate(0)"><text x="5.00" y="3.07" style="">Ukrainian</text></g><g transform="translate(857.85,603.61)rotate(0)"><text x="5.00" y="3.07" style="">Belarusian</text></g><g transform="translate(857.85,592.16)rotate(0)"><text x="5.00" y="3.07" style="">Russian</text></g><g transform="translate(857.84,580.72)rotate(0)"><text x="5.00" y="3.07" style="">Macedonian</text></g><g transform="translate(857.84,569.28)rotate(0)"><text x="5.00" y="3.07" style="">Bulgarian</text></g><g transform="translate(857.85,557.84)rotate(0)"><text x="5.00" y="3.07" style="">Serbian</text></g><g transform="translate(857.85,546.39)rotate(0)"><text x="5.00" y="3.07" style="">Slovenian</text></g><g transform="translate(761.10,534.95)rotate(0)"><text x="5.00" y="3.07" style="">Old Church Slavic</text></g><g transform="translate(857.85,523.51)rotate(0)"><text x="5.00" y="3.07" style="">Lithuanian</text></g><g transform="translate(857.85,512.06)rotate(0)"><text x="5.00" y="3.07" style="">Latvian</text></g><g transform="translate(802.17,500.62)rotate(0)"><text x="5.00" y="3.07" style="">Old Prussian</text></g><g transform="translate(857.82,489.18)rotate(0)"><text x="5.00" y="3.07" style="">Panjabi</text></g><g transform="translate(857.82,477.73)rotate(0)"><text x="5.00" y="3.07" style="">Lahnda</text></g><g transform="translate(857.82,466.29)rotate(0)"><text x="5.00" y="3.07" style="">Urdu</text></g><g transform="translate(857.82,454.85)rotate(0)"><text x="5.00" y="3.07" style="">Hindi</text></g><g transform="translate(857.82,443.40)rotate(0)"><text x="5.00" y="3.07" style="">Bihari</text></g><g transform="translate(857.82,431.96)rotate(0)"><text x="5.00" y="3.07" style="">Marathi</text></g><g transform="translate(857.82,420.52)rotate(0)"><text x="5.00" y="3.07" style="">Gujarati</text></g><g transform="translate(857.83,409.07)rotate(0)"><text x="5.00" y="3.07" style="">Assamese</text></g><g transform="translate(857.83,397.63)rotate(0)"><text x="5.00" y="3.07" style="">Oriya</text></g><g transform="translate(857.83,386.19)rotate(0)"><text x="5.00" y="3.07" style="">Bengali</text></g><g transform="translate(857.83,374.74)rotate(0)"><text x="5.00" y="3.07" style="">Nepali</text></g><g transform="translate(857.83,363.30)rotate(0)"><text x="5.00" y="3.07" style="">Marwari</text></g><g transform="translate(857.83,351.86)rotate(0)"><text x="5.00" y="3.07" style="">Sindhi</text></g><g transform="translate(857.83,340.41)rotate(0)"><text x="5.00" y="3.07" style="">Kashmiri</text></g><g transform="translate(857.83,328.97)rotate(0)"><text x="5.00" y="3.07" style="">Romani</text></g><g transform="translate(857.83,317.53)rotate(0)"><text x="5.00" y="3.07" style="">Singhalese</text></g><g transform="translate(506.76,306.08)rotate(0)"><text x="5.00" y="3.07" style="">Vedic Sanskrit</text></g><g transform="translate(857.83,294.64)rotate(0)"><text x="5.00" y="3.07" style="">Kurdish</text></g><g transform="translate(857.83,283.20)rotate(0)"><text x="5.00" y="3.07" style="">Zazaki</text></g><g transform="translate(857.84,271.75)rotate(0)"><text x="5.00" y="3.07" style="">Baluchi</text></g><g transform="translate(857.84,260.31)rotate(0)"><text x="5.00" y="3.07" style="">Tajik</text></g><g transform="translate(857.84,248.87)rotate(0)"><text x="5.00" y="3.07" style="">Persian</text></g><g transform="translate(857.85,237.42)rotate(0)"><text x="5.00" y="3.07" style="">Shughni</text></g><g transform="translate(857.85,225.98)rotate(0)"><text x="5.00" y="3.07" style="">Sariqoli</text></g><g transform="translate(857.84,214.54)rotate(0)"><text x="5.00" y="3.07" style="">Wakhi</text></g><g transform="translate(857.84,203.09)rotate(0)"><text x="5.00" y="3.07" style="">Pashto</text></g><g transform="translate(857.84,191.65)rotate(0)"><text x="5.00" y="3.07" style="">Waziri</text></g><g transform="translate(725.09,180.21)rotate(0)"><text x="5.00" y="3.07" style="">Sogdian</text></g><g transform="translate(857.84,168.76)rotate(0)"><text x="5.00" y="3.07" style="">Digor Ossetic</text></g><g transform="translate(603.10,157.32)rotate(0)"><text x="5.00" y="3.07" style="">Avestan</text></g><g transform="translate(857.84,145.88)rotate(0)"><text x="5.00" y="3.07" style="">Eastern Armenian</text></g><g transform="translate(857.84,134.43)rotate(0)"><text x="5.00" y="3.07" style="">Adapazar</text></g><g transform="translate(699.29,122.99)rotate(0)"><text x="5.00" y="3.07" style="">Classical Armenian</text></g><g transform="translate(612.27,111.55)rotate(0)"><text x="5.00" y="3.07" style="">Ancient Greek</text></g><g transform="translate(857.84,100.10)rotate(0)"><text x="5.00" y="3.07" style="">Modern Greek</text></g><g transform="translate(857.84,88.66)rotate(0)"><text x="5.00" y="3.07" style="">Tosk</text></g><g transform="translate(857.84,77.22)rotate(0)"><text x="5.00" y="3.07" style="">Arvanitika</text></g><g transform="translate(721.73,65.77)rotate(0)"><text x="5.00" y="3.07" style="">Tocharian B</text></g><g transform="translate(722.19,54.33)rotate(0)"><text x="5.00" y="3.07" style="">Tocharian A</text></g><g transform="translate(499.55,42.89)rotate(0)"><text x="5.00" y="3.07" style="">Hittite</text></g></g></g></g><g class="toyplot-coordinates-Axis" id="t9734cc70ff3b474ea6c8fa53e5c711fe" transform="translate(0.0,30.0)translate(0,-5.0)"><g><g transform="translate(857.8728709109238,-6)"><text x="-2.78" y="-4.440892098500626e-16" style="fill:rgb(16.1%,15.3%,14.1%);fill-opacity:1.0;font-family:helvetica;font-size:10.0px;font-weight:normal;stroke:none;vertical-align:baseline;white-space:pre">0</text></g><g transform="translate(807.4097608573401,-6)"><text x="-8.34" y="-4.440892098500626e-16" style="fill:rgb(16.1%,15.3%,14.1%);fill-opacity:1.0;font-family:helvetica;font-size:10.0px;font-weight:normal;stroke:none;vertical-align:baseline;white-space:pre">500</text></g><g transform="translate(756.9466508037564,-6)"><text x="-11.12" y="-4.440892098500626e-16" style="fill:rgb(16.1%,15.3%,14.1%);fill-opacity:1.0;font-family:helvetica;font-size:10.0px;font-weight:normal;stroke:none;vertical-align:baseline;white-space:pre">1000</text></g><g transform="translate(706.4835407501726,-6)"><text x="-11.12" y="-4.440892098500626e-16" style="fill:rgb(16.1%,15.3%,14.1%);fill-opacity:1.0;font-family:helvetica;font-size:10.0px;font-weight:normal;stroke:none;vertical-align:baseline;white-space:pre">1500</text></g><g transform="translate(656.0204306965887,-6)"><text x="-11.12" y="-4.440892098500626e-16" style="fill:rgb(16.1%,15.3%,14.1%);fill-opacity:1.0;font-family:helvetica;font-size:10.0px;font-weight:normal;stroke:none;vertical-align:baseline;white-space:pre">2000</text></g><g transform="translate(605.557320643005,-6)"><text x="-11.12" y="-4.440892098500626e-16" style="fill:rgb(16.1%,15.3%,14.1%);fill-opacity:1.0;font-family:helvetica;font-size:10.0px;font-weight:normal;stroke:none;vertical-align:baseline;white-space:pre">2500</text></g><g transform="translate(555.0942105894213,-6)"><text x="-11.12" y="-4.440892098500626e-16" style="fill:rgb(16.1%,15.3%,14.1%);fill-opacity:1.0;font-family:helvetica;font-size:10.0px;font-weight:normal;stroke:none;vertical-align:baseline;white-space:pre">3000</text></g><g transform="translate(504.6311005358375,-6)"><text x="-11.12" y="-4.440892098500626e-16" style="fill:rgb(16.1%,15.3%,14.1%);fill-opacity:1.0;font-family:helvetica;font-size:10.0px;font-weight:normal;stroke:none;vertical-align:baseline;white-space:pre">3500</text></g><g transform="translate(454.16799048225374,-6)"><text x="-11.12" y="-4.440892098500626e-16" style="fill:rgb(16.1%,15.3%,14.1%);fill-opacity:1.0;font-family:helvetica;font-size:10.0px;font-weight:normal;stroke:none;vertical-align:baseline;white-space:pre">4000</text></g><g transform="translate(403.70488042867004,-6)"><text x="-11.12" y="-4.440892098500626e-16" style="fill:rgb(16.1%,15.3%,14.1%);fill-opacity:1.0;font-family:helvetica;font-size:10.0px;font-weight:normal;stroke:none;vertical-align:baseline;white-space:pre">4500</text></g><g transform="translate(353.2417703750863,-6)"><text x="-11.12" y="-4.440892098500626e-16" style="fill:rgb(16.1%,15.3%,14.1%);fill-opacity:1.0;font-family:helvetica;font-size:10.0px;font-weight:normal;stroke:none;vertical-align:baseline;white-space:pre">5000</text></g><g transform="translate(302.7786603215025,-6)"><text x="-11.12" y="-4.440892098500626e-16" style="fill:rgb(16.1%,15.3%,14.1%);fill-opacity:1.0;font-family:helvetica;font-size:10.0px;font-weight:normal;stroke:none;vertical-align:baseline;white-space:pre">5500</text></g><g transform="translate(252.31555026791875,-6)"><text x="-11.12" y="-4.440892098500626e-16" style="fill:rgb(16.1%,15.3%,14.1%);fill-opacity:1.0;font-family:helvetica;font-size:10.0px;font-weight:normal;stroke:none;vertical-align:baseline;white-space:pre">6000</text></g><g transform="translate(201.85244021433502,-6)"><text x="-11.12" y="-4.440892098500626e-16" style="fill:rgb(16.1%,15.3%,14.1%);fill-opacity:1.0;font-family:helvetica;font-size:10.0px;font-weight:normal;stroke:none;vertical-align:baseline;white-space:pre">6500</text></g><g transform="translate(151.38933016075126,-6)"><text x="-11.12" y="-4.440892098500626e-16" style="fill:rgb(16.1%,15.3%,14.1%);fill-opacity:1.0;font-family:helvetica;font-size:10.0px;font-weight:normal;stroke:none;vertical-align:baseline;white-space:pre">7000</text></g><g transform="translate(100.92622010716751,-6)"><text x="-11.12" y="-4.440892098500626e-16" style="fill:rgb(16.1%,15.3%,14.1%);fill-opacity:1.0;font-family:helvetica;font-size:10.0px;font-weight:normal;stroke:none;vertical-align:baseline;white-space:pre">7500</text></g><g transform="translate(50.463110053583755,-6)"><text x="-11.12" y="-4.440892098500626e-16" style="fill:rgb(16.1%,15.3%,14.1%);fill-opacity:1.0;font-family:helvetica;font-size:10.0px;font-weight:normal;stroke:none;vertical-align:baseline;white-space:pre">8000</text></g></g><g class="toyplot-coordinates-Axis-coordinates" style="visibility:hidden" transform=""><line x1="0" x2="0" y1="3.0" y2="-4.5" style="stroke:rgb(43.9%,50.2%,56.5%);stroke-opacity:1.0;stroke-width:1.0" /><text x="0" y="6" style="alignment-baseline:hanging;fill:rgb(43.9%,50.2%,56.5%);fill-opacity:1.0;font-size:10px;font-weight:normal;stroke:none;text-anchor:middle" /></g></g></g><g class="toyplot-mark-Text" id="tba141fdf8b4748ec85ff1979b22c2c41"><g class="toyplot-Series"><g class="toyplot-Datum" transform="translate(150.0,1100.0)"><text x="-106.56" y="4.599" style="fill:rgb(16.1%,15.3%,14.1%);fill-opacity:1.0;font-family:helvetica;font-size:18.0px;font-weight:normal;opacity:1;stroke:none;vertical-align:baseline;white-space:pre">Root Age: 6008 years B.P.</text></g></g></g></svg>