<svg class="toyplot-canvas-Canvas" xmlns:toyplot="http://www.sandia.gov/toyplot" xmlns:xlink="http://www.w3.org/1999/xlink" xmlns="http://www.w3.org/2000/svg" width="1000.0px" height="1150.0px" viewBox="0 0 1000.0 1150.0" preserveAspectRatio="xMidYMid meet" style="background-color:transparent;border-color:#292724;border-style:none;border-width:1.0;fill:rgb(16.1%,15.3%,14.1%);fill-opacity:1.0;font-family:Helvetica;font-size:12px;opacity:1.0;stroke:rgb(16.1%,15.3%,14.1%);stroke-opacity:1.0;stroke-width:1.0" id="tcbccfd4c7dd94102aaab41d29f0d1a69"><g class="toyplot-coordinates-Cartesian" id="t57959ebb86d447d59e3f55ef8da2fe8c"><clipPath id="tfc2f3b40caee44f68fb7ac9ada285b8c"><rect x="-5.0" y="25.0" width="1010.0" height="1100.0" /></clipPath><g clip-path="url(#tfc2f3b40caee44f68fb7ac9ada285b8c)"><g class="toyplot-mark-AxisLines" style="stroke:rgb(82.7%,82.7%,82.7%);stroke-dasharray:8,10;stroke-opacity:1.0" id="t2bfc0d9fcfc74de889c6040c0f6488a1"><g class="toyplot-Series"><line class="toyplot-Datum" x1="857.8642128116874" x2="857.8642128116874" y1="30.0" y2="1120.0" style="opacity:1.0;stroke:rgb(82.7%,82.7%,82.7%);stroke-dasharray:8,10;stroke-opacity:1.0" /><line class="toyplot-Datum" x1="807.4016120580587" x2="807.4016120580587" y1="30.0" y2="1120.0" style="opacity:1.0;stroke:rgb(82.7%,82.7%,82.7%);stroke-dasharray:8,10;stroke-opacity:1.0" /><line class="toyplot-Datum" x1="756.93901130443" x2="756.93901130443" y1="30.0" y2="1120.0" style="opacity:1.0;stroke:rgb(82.7%,82.7%,82.7%);stroke-dasharray:8,10;stroke-opacity:1.0" /><line class="toyplot-Datum" x1="706.4764105508013" x2="706.4764105508013" y1="30.0" y2="1120.0" style="opacity:1.0;stroke:rgb(82.7%,82.7%,82.7%);stroke-dasharray:8,10;stroke-opacity:1.0" /><line class="toyplot-Datum" x1="656.0138097971727" x2="656.0138097971727" y1="30.0" y2="1120.0" style="opacity:1.0;stroke:rgb(82.7%,82.7%,82.7%);stroke-dasharray:8,10;stroke-opacity:1.0" /><line class="toyplot-Datum" x1="605.551209043544" x2="605.551209043544" y1="30.0" y2="1120.0" style="opacity:1.0;stroke:rgb(82.7%,82.7%,82.7%);stroke-dasharray:8,10;stroke-opacity:1.0" /><line class="toyplot-Datum" x1="555.0886082899153" x2="555.0886082899153" y1="30.0" y2="1120.0" style="opacity:1.0;stroke:rgb(82.7%,82.7%,82.7%);stroke-dasharray:8,10;stroke-opacity:1.0" /><line class="toyplot-Datum" x1="504.62600753628675" x2="504.62600753628675" y1="30.0" y2="1120.0" style="opacity:1.0;stroke:rgb(82.7%,82.7%,82.7%);stroke-dasharray:8,10;stroke-opacity:1.0" /><line class="toyplot-Datum" x1="454.163406782658" x2="454.163406782658" y1="30.0" y2="1120.0" style="opacity:1.0;stroke:rgb(82.7%,82.7%,82.7%);stroke-dasharray:8,10;stroke-opacity:1.0" /><line class="toyplot-Datum" x1="403.70080602902937" x2="403.70080602902937" y1="30.0" y2="1120.0" style="opacity:1.0;stroke:rgb(82.7%,82.7%,82.7%);stroke-dasharray:8,10;stroke-opacity:1.0" /><line class="toyplot-Datum" x1="353.2382052754007" x2="353.2382052754007" y1="30.0" y2="1120.0" style="opacity:1.0;stroke:rgb(82.7%,82.7%,82.7%);stroke-dasharray:8,10;stroke-opacity:1.0" /><line class="toyplot-Datum" x1="302.775604521772" x2="302.775604521772" y1="30.0" y2="1120.0" style="opacity:1.0;stroke:rgb(82.7%,82.7%,82.7%);stroke-dasharray:8,10;stroke-opacity:1.0" /><line class="toyplot-Datum" x1="252.31300376814337" x2="252.31300376814337" y1="30.0" y2="1120.0" style="opacity:1.0;stroke:rgb(82.7%,82.7%,82.7%);stroke-dasharray:8,10;stroke-opacity:1.0" /><line class="toyplot-Datum" x1="201.85040301451468" x2="201.85040301451468" y1="30.0" y2="1120.0" style="opacity:1.0;stroke:rgb(82.7%,82.7%,82.7%);stroke-dasharray:8,10;stroke-opacity:1.0" /><line class="toyplot-Datum" x1="151.387802260886" x2="151.387802260886" y1="30.0" y2="1120.0" style="opacity:1.0;stroke:rgb(82.7%,82.7%,82.7%);stroke-dasharray:8,10;stroke-opacity:1.0" /><line class="toyplot-Datum" x1="100.92520150725734" x2="100.92520150725734" y1="30.0" y2="1120.0" style="opacity:1.0;stroke:rgb(82.7%,82.7%,82.7%);stroke-dasharray:8,10;stroke-opacity:1.0" /><line class="toyplot-Datum" x1="50.46260075362867" x2="50.46260075362867" y1="30.0" y2="1120.0" style="opacity:1.0;stroke:rgb(82.7%,82.7%,82.7%);stroke-dasharray:8,10;stroke-opacity:1.0" /></g></g><g class="toytree-mark-Toytree" id="tda9826e9a5b8484db6dffb0c79a213e8"><g class="toytree-Edges" style="fill:none;stroke:rgb(50.2%,50.2%,50.2%);stroke-linecap:round;stroke-opacity:1;stroke-width:2"><path d="M 250.1 114.8 L 250.1 186.7 L 328.6 186.7" id="186,185" /><path d="M 328.6 186.7 L 328.6 60.1 L 678.2 60.1" id="185,184" style="stroke:rgb(91.4%,58.8%,47.8%);stroke-opacity:1.0" /><path d="M 328.6 186.7 L 328.6 313.3 L 347.5 313.3" id="185,183" /><path d="M 347.5 313.3 L 347.5 100.8 L 382.6 100.8" id="183,182" /><path d="M 347.5 313.3 L 347.5 525.7 L 366.9 525.7" id="183,181" /><path d="M 382.6 100.8 L 382.6 82.9 L 805.0 82.9" id="182,180" style="stroke:rgb(28.2%,82%,80%);stroke-opacity:1.0" /><path d="M 382.6 100.8 L 382.6 118.7 L 416.1 118.7" id="182,179" /><path d="M 366.9 525.7 L 366.9 301.1 L 432.7 301.1" id="181,178" /><path d="M 366.9 525.7 L 366.9 750.3 L 388.4 750.3" id="181,177" /><path d="M 416.1 118.7 L 416.1 105.8 L 612.0 105.8" id="179,176" style="stroke:rgb(12.5%,69.8%,66.7%);stroke-opacity:1.0" /><path d="M 416.1 118.7 L 416.1 131.6 L 697.8 131.6" id="179,175" style="stroke:rgb(27.5%,51%,70.6%);stroke-opacity:1.0" /><path d="M 432.7 301.1 L 432.7 192.7 L 649.2 192.7" id="178,174" style="stroke:rgb(60.4%,80.4%,19.6%);stroke-opacity:1.0" /><path d="M 432.7 301.1 L 432.7 409.5 L 455.3 409.5" id="178,173" /><path d="M 388.4 750.3 L 388.4 637.8 L 612.4 637.8" id="177,172" /><path d="M 388.4 750.3 L 388.4 862.9 L 442.3 862.9" id="177,171" /><path d="M 697.8 131.6 L 697.8 140.2 L 756.8 140.2" id="175,170" style="stroke:rgb(27.5%,51%,70.6%);stroke-opacity:1.0" /><path d="M 649.2 192.7 L 649.2 228.1 L 700.4 228.1" id="174,169" style="stroke:rgb(60.4%,80.4%,19.6%);stroke-opacity:1.0" /><path d="M 455.3 409.5 L 455.3 377.6 L 608.6 377.6" id="173,168" style="stroke:rgb(73.7%,56.1%,56.1%);stroke-opacity:1.0" /><path d="M 455.3 409.5 L 455.3 441.3 L 641.6 441.3" id="173,167" style="stroke:rgb(87.1%,72.2%,52.9%);stroke-opacity:1.0" /><path d="M 612.4 637.8 L 612.4 600.7 L 684.4 600.7" id="172,166" style="stroke:rgb(42%,55.7%,13.7%);stroke-opacity:1.0" /><path d="M 612.4 637.8 L 612.4 674.8 L 744.3 674.8" id="172,165" style="stroke:rgb(23.5%,70.2%,44.3%);stroke-opacity:1.0" /><path d="M 442.3 862.9 L 442.3 789.0 L 543.6 789.0" id="171,164" style="stroke:rgb(46.7%,53.3%,60%);stroke-opacity:1.0" /><path d="M 442.3 862.9 L 442.3 936.8 L 507.0 936.8" id="171,163" style="stroke:rgb(57.6%,43.9%,85.9%);stroke-opacity:1.0" /><path d="M 700.4 228.1 L 700.4 188.1 L 749.4 188.1" id="169,162" style="stroke:rgb(60.4%,80.4%,19.6%);stroke-opacity:1.0" /><path d="M 700.4 228.1 L 700.4 268.2 L 709.4 268.2" id="169,161" style="stroke:rgb(60.4%,80.4%,19.6%);stroke-opacity:1.0" /><path d="M 608.6 377.6 L 608.6 360.4 L 728.1 360.4" id="168,160" style="stroke:rgb(73.7%,56.1%,56.1%);stroke-opacity:1.0" /><path d="M 608.6 377.6 L 608.6 394.8 L 748.7 394.8" id="168,159" style="stroke:rgb(73.7%,56.1%,56.1%);stroke-opacity:1.0" /><path d="M 641.6 441.3 L 641.6 462.1 L 749.3 462.1" id="167,158" style="stroke:rgb(87.1%,72.2%,52.9%);stroke-opacity:1.0" /><path d="M 684.4 600.7 L 684.4 609.3 L 755.4 609.3" id="166,157" style="stroke:rgb(42%,55.7%,13.7%);stroke-opacity:1.0" /><path d="M 744.3 674.8 L 744.3 637.2 L 746.0 637.2" id="165,156" style="stroke:rgb(23.5%,70.2%,44.3%);stroke-opacity:1.0" /><path d="M 744.3 674.8 L 744.3 712.3 L 791.8 712.3" id="165,155" style="stroke:rgb(23.5%,70.2%,44.3%);stroke-opacity:1.0" /><path d="M 543.6 789.0 L 543.6 802.7 L 588.9 802.7" id="164,154" style="stroke:rgb(46.7%,53.3%,60%);stroke-opacity:1.0" /><path d="M 507.0 936.8 L 507.0 949.6 L 622.6 949.6" id="163,153" style="stroke:rgb(57.6%,43.9%,85.9%);stroke-opacity:1.0" /><path d="M 749.4 188.1 L 749.4 174.5 L 816.8 174.5" id="162,152" style="stroke:rgb(60.4%,80.4%,19.6%);stroke-opacity:1.0" /><path d="M 749.4 188.1 L 749.4 201.7 L 780.5 201.7" id="162,151" style="stroke:rgb(60.4%,80.4%,19.6%);stroke-opacity:1.0" /><path d="M 709.4 268.2 L 709.4 243.1 L 754.6 243.1" id="161,150" style="stroke:rgb(60.4%,80.4%,19.6%);stroke-opacity:1.0" /><path d="M 709.4 268.2 L 709.4 293.2 L 728.7 293.2" id="161,149" style="stroke:rgb(60.4%,80.4%,19.6%);stroke-opacity:1.0" /><path d="M 728.1 360.4 L 728.1 369.0 L 795.9 369.0" id="160,148" style="stroke:rgb(73.7%,56.1%,56.1%);stroke-opacity:1.0" /><path d="M 748.7 394.8 L 748.7 403.4 L 770.6 403.4" id="159,147" style="stroke:rgb(73.7%,56.1%,56.1%);stroke-opacity:1.0" /><path d="M 749.3 462.1 L 749.3 437.7 L 820.3 437.7" id="158,146" style="stroke:rgb(87.1%,72.2%,52.9%);stroke-opacity:1.0" /><path d="M 749.3 462.1 L 749.3 486.5 L 751.9 486.5" id="158,145" style="stroke:rgb(87.1%,72.2%,52.9%);stroke-opacity:1.0" /><path d="M 746.0 637.2 L 746.0 648.0 L 777.6 648.0" id="156,144" style="stroke:rgb(23.5%,70.2%,44.3%);stroke-opacity:1.0" /><path d="M 791.8 712.3 L 791.8 692.3 L 801.3 692.3" id="155,143" style="stroke:rgb(23.5%,70.2%,44.3%);stroke-opacity:1.0" /><path d="M 791.8 712.3 L 791.8 732.3 L 798.9 732.3" id="155,142" style="stroke:rgb(23.5%,70.2%,44.3%);stroke-opacity:1.0" /><path d="M 588.9 802.7 L 588.9 818.7 L 621.6 818.7" id="154,141" style="stroke:rgb(46.7%,53.3%,60%);stroke-opacity:1.0" /><path d="M 622.6 949.6 L 622.6 963.8 L 649.6 963.8" id="153,140" style="stroke:rgb(57.6%,43.9%,85.9%);stroke-opacity:1.0" /><path d="M 780.5 201.7 L 780.5 211.7 L 820.5 211.7" id="151,139" style="stroke:rgb(60.4%,80.4%,19.6%);stroke-opacity:1.0" /><path d="M 728.7 293.2 L 728.7 270.3 L 811.2 270.3" id="149,138" style="stroke:rgb(60.4%,80.4%,19.6%);stroke-opacity:1.0" /><path d="M 728.7 293.2 L 728.7 316.1 L 754.3 316.1" id="149,137" style="stroke:rgb(60.4%,80.4%,19.6%);stroke-opacity:1.0" /><path d="M 751.9 486.5 L 751.9 460.6 L 801.7 460.6" id="145,136" style="stroke:rgb(87.1%,72.2%,52.9%);stroke-opacity:1.0" /><path d="M 751.9 486.5 L 751.9 512.4 L 774.4 512.4" id="145,135" style="stroke:rgb(87.1%,72.2%,52.9%);stroke-opacity:1.0" /><path d="M 777.6 648.0 L 777.6 658.0 L 797.9 658.0" id="144,134" style="stroke:rgb(23.5%,70.2%,44.3%);stroke-opacity:1.0" /><path d="M 801.3 692.3 L 801.3 700.9 L 813.2 700.9" id="143,133" style="stroke:rgb(23.5%,70.2%,44.3%);stroke-opacity:1.0" /><path d="M 798.9 732.3 L 798.9 746.6 L 814.9 746.6" id="142,132" style="stroke:rgb(23.5%,70.2%,44.3%);stroke-opacity:1.0" /><path d="M 621.6 818.7 L 621.6 839.3 L 663.7 839.3" id="141,131" style="stroke:rgb(46.7%,53.3%,60%);stroke-opacity:1.0" /><path d="M 649.6 963.8 L 649.6 980.7 L 668.6 980.7" id="140,130" style="stroke:rgb(57.6%,43.9%,85.9%);stroke-opacity:1.0" /><path d="M 820.5 211.7 L 820.5 220.3 L 832.6 220.3" id="139,129" style="stroke:rgb(60.4%,80.4%,19.6%);stroke-opacity:1.0" /><path d="M 811.2 270.3 L 811.2 280.3 L 836.7 280.3" id="138,128" style="stroke:rgb(60.4%,80.4%,19.6%);stroke-opacity:1.0" /><path d="M 754.3 316.1 L 754.3 326.1 L 833.3 326.1" id="137,127" style="stroke:rgb(60.4%,80.4%,19.6%);stroke-opacity:1.0" /><path d="M 774.4 512.4 L 774.4 486.3 L 788.9 486.3" id="135,126" style="stroke:rgb(87.1%,72.2%,52.9%);stroke-opacity:1.0" /><path d="M 774.4 512.4 L 774.4 538.5 L 783.1 538.5" id="135,125" style="stroke:rgb(87.1%,72.2%,52.9%);stroke-opacity:1.0" /><path d="M 797.9 658.0 L 797.9 666.5 L 813.0 666.5" id="134,124" style="stroke:rgb(23.5%,70.2%,44.3%);stroke-opacity:1.0" /><path d="M 814.9 746.6 L 814.9 735.2 L 851.8 735.2" id="132,123" style="stroke:rgb(23.5%,70.2%,44.3%);stroke-opacity:1.0" /><path d="M 814.9 746.6 L 814.9 758.1 L 834.9 758.1" id="132,122" style="stroke:rgb(23.5%,70.2%,44.3%);stroke-opacity:1.0" /><path d="M 663.7 839.3 L 663.7 815.3 L 812.4 815.3" id="131,121" style="stroke:rgb(46.7%,53.3%,60%);stroke-opacity:1.0" /><path d="M 663.7 839.3 L 663.7 863.2 L 691.6 863.2" id="131,120" style="stroke:rgb(46.7%,53.3%,60%);stroke-opacity:1.0" /><path d="M 668.6 980.7 L 668.6 1003.0 L 709.4 1003.0" id="130,119" style="stroke:rgb(57.6%,43.9%,85.9%);stroke-opacity:1.0" /><path d="M 836.7 280.3 L 836.7 288.9 L 841.0 288.9" id="128,118" style="stroke:rgb(60.4%,80.4%,19.6%);stroke-opacity:1.0" /><path d="M 833.3 326.1 L 833.3 334.7 L 838.4 334.7" id="127,117" style="stroke:rgb(60.4%,80.4%,19.6%);stroke-opacity:1.0" /><path d="M 788.9 486.3 L 788.9 494.9 L 816.7 494.9" id="126,116" style="stroke:rgb(87.1%,72.2%,52.9%);stroke-opacity:1.0" /><path d="M 783.1 538.5 L 783.1 520.6 L 818.2 520.6" id="125,115" style="stroke:rgb(87.1%,72.2%,52.9%);stroke-opacity:1.0" /><path d="M 783.1 538.5 L 783.1 556.4 L 794.1 556.4" id="125,114" style="stroke:rgb(87.1%,72.2%,52.9%);stroke-opacity:1.0" /><path d="M 691.6 863.2 L 691.6 841.1 L 713.6 841.1" id="120,113" style="stroke:rgb(46.7%,53.3%,60%);stroke-opacity:1.0" /><path d="M 691.6 863.2 L 691.6 885.4 L 718.7 885.4" id="120,112" style="stroke:rgb(46.7%,53.3%,60%);stroke-opacity:1.0" /><path d="M 709.4 1003.0 L 709.4 975.5 L 723.0 975.5" id="119,111" style="stroke:rgb(57.6%,43.9%,85.9%);stroke-opacity:1.0" /><path d="M 709.4 1003.0 L 709.4 1030.4 L 731.4 1030.4" id="119,110" style="stroke:rgb(57.6%,43.9%,85.9%);stroke-opacity:1.0" /><path d="M 818.2 520.6 L 818.2 529.2 L 837.4 529.2" id="115,109" style="stroke:rgb(87.1%,72.2%,52.9%);stroke-opacity:1.0" /><path d="M 794.1 556.4 L 794.1 566.4 L 804.7 566.4" id="114,108" style="stroke:rgb(87.1%,72.2%,52.9%);stroke-opacity:1.0" /><path d="M 713.6 841.1 L 713.6 849.6 L 764.2 849.6" id="113,107" style="stroke:rgb(46.7%,53.3%,60%);stroke-opacity:1.0" /><path d="M 718.7 885.4 L 718.7 872.5 L 803.1 872.5" id="112,106" style="stroke:rgb(46.7%,53.3%,60%);stroke-opacity:1.0" /><path d="M 718.7 885.4 L 718.7 898.3 L 731.8 898.3" id="112,105" style="stroke:rgb(46.7%,53.3%,60%);stroke-opacity:1.0" /><path d="M 731.4 1030.4 L 731.4 1002.7 L 741.5 1002.7" id="110,104" style="stroke:rgb(57.6%,43.9%,85.9%);stroke-opacity:1.0" /><path d="M 731.4 1030.4 L 731.4 1058.1 L 744.2 1058.1" id="110,103" style="stroke:rgb(57.6%,43.9%,85.9%);stroke-opacity:1.0" /><path d="M 804.7 566.4 L 804.7 575.0 L 817.6 575.0" id="108,102" style="stroke:rgb(87.1%,72.2%,52.9%);stroke-opacity:1.0" /><path d="M 731.8 898.3 L 731.8 906.9 L 760.6 906.9" id="105,101" style="stroke:rgb(46.7%,53.3%,60%);stroke-opacity:1.0" /><path d="M 741.5 1002.7 L 741.5 1012.7 L 768.9 1012.7" id="104,100" style="stroke:rgb(57.6%,43.9%,85.9%);stroke-opacity:1.0" /><path d="M 744.2 1058.1 L 744.2 1044.2 L 778.7 1044.2" id="103,99" style="stroke:rgb(57.6%,43.9%,85.9%);stroke-opacity:1.0" /><path d="M 744.2 1058.1 L 744.2 1072.1 L 763.9 1072.1" id="103,98" style="stroke:rgb(57.6%,43.9%,85.9%);stroke-opacity:1.0" /><path d="M 768.9 1012.7 L 768.9 1021.3 L 779.7 1021.3" id="100,97" style="stroke:rgb(57.6%,43.9%,85.9%);stroke-opacity:1.0" /><path d="M 763.9 1072.1 L 763.9 1082.8 L 800.6 1082.8" id="98,96" style="stroke:rgb(57.6%,43.9%,85.9%);stroke-opacity:1.0" /><path d="M 800.6 1082.8 L 800.6 1092.8 L 814.7 1092.8" id="96,95" style="stroke:rgb(57.6%,43.9%,85.9%);stroke-opacity:1.0" /><path d="M 814.7 1092.8 L 814.7 1101.4 L 827.4 1101.4" id="95,94" style="stroke:rgb(57.6%,43.9%,85.9%);stroke-opacity:1.0" /><path d="M 250.1 114.8 L 250.1 42.9 L 499.5 42.9" id="186,93" style="stroke:rgb(54.5%,27.1%,7.45%);stroke-opacity:1.0" /><path d="M 678.2 60.1 L 678.2 54.3 L 721.8 54.3" id="184,92" style="stroke:rgb(91.4%,58.8%,47.8%);stroke-opacity:1.0" /><path d="M 678.2 60.1 L 678.2 65.8 L 722.2 65.8" id="184,91" style="stroke:rgb(91.4%,58.8%,47.8%);stroke-opacity:1.0" /><path d="M 805.0 82.9 L 805.0 77.2 L 857.8 77.2" id="180,90" style="stroke:rgb(28.2%,82%,80%);stroke-opacity:1.0" /><path d="M 805.0 82.9 L 805.0 88.7 L 857.8 88.7" id="180,89" style="stroke:rgb(28.2%,82%,80%);stroke-opacity:1.0" /><path d="M 612.0 105.8 L 612.0 100.1 L 612.0 100.1" id="176,88" style="stroke:rgb(80.4%,36.1%,36.1%);stroke-opacity:1.0" /><path d="M 612.0 105.8 L 612.0 111.5 L 857.9 111.5" id="176,87" style="stroke:rgb(12.5%,69.8%,66.7%);stroke-opacity:1.0" /><path d="M 697.8 131.6 L 697.8 123.0 L 697.8 123.0" id="175,86" style="stroke:rgb(80.4%,36.1%,36.1%);stroke-opacity:1.0" /><path d="M 756.8 140.2 L 756.8 134.4 L 857.8 134.4" id="170,85" style="stroke:rgb(27.5%,51%,70.6%);stroke-opacity:1.0" /><path d="M 756.8 140.2 L 756.8 145.9 L 857.8 145.9" id="170,84" style="stroke:rgb(27.5%,51%,70.6%);stroke-opacity:1.0" /><path d="M 649.2 192.7 L 649.2 157.3 L 691.5 157.3" id="174,83" style="stroke:rgb(60.4%,80.4%,19.6%);stroke-opacity:1.0" /><path d="M 816.8 174.5 L 816.8 168.8 L 857.8 168.8" id="152,82" style="stroke:rgb(60.4%,80.4%,19.6%);stroke-opacity:1.0" /><path d="M 816.8 174.5 L 816.8 180.2 L 857.8 180.2" id="152,81" style="stroke:rgb(60.4%,80.4%,19.6%);stroke-opacity:1.0" /><path d="M 780.5 201.7 L 780.5 191.7 L 780.5 191.7" id="151,80" style="stroke:rgb(80.4%,36.1%,36.1%);stroke-opacity:1.0" /><path d="M 820.5 211.7 L 820.5 203.1 L 857.9 203.1" id="139,79" style="stroke:rgb(60.4%,80.4%,19.6%);stroke-opacity:1.0" /><path d="M 832.6 220.3 L 832.6 214.5 L 857.9 214.5" id="129,78" style="stroke:rgb(60.4%,80.4%,19.6%);stroke-opacity:1.0" /><path d="M 832.6 220.3 L 832.6 226.0 L 857.9 226.0" id="129,77" style="stroke:rgb(60.4%,80.4%,19.6%);stroke-opacity:1.0" /><path d="M 754.6 243.1 L 754.6 237.4 L 754.6 237.4" id="150,76" style="stroke:rgb(80.4%,36.1%,36.1%);stroke-opacity:1.0" /><path d="M 754.6 243.1 L 754.6 248.9 L 857.8 248.9" id="150,75" style="stroke:rgb(60.4%,80.4%,19.6%);stroke-opacity:1.0" /><path d="M 811.2 270.3 L 811.2 260.3 L 857.9 260.3" id="138,74" style="stroke:rgb(60.4%,80.4%,19.6%);stroke-opacity:1.0" /><path d="M 836.7 280.3 L 836.7 271.8 L 857.9 271.8" id="128,73" style="stroke:rgb(60.4%,80.4%,19.6%);stroke-opacity:1.0" /><path d="M 841.0 288.9 L 841.0 283.2 L 857.9 283.2" id="118,72" style="stroke:rgb(60.4%,80.4%,19.6%);stroke-opacity:1.0" /><path d="M 841.0 288.9 L 841.0 294.6 L 857.9 294.6" id="118,71" style="stroke:rgb(60.4%,80.4%,19.6%);stroke-opacity:1.0" /><path d="M 754.3 316.1 L 754.3 306.1 L 754.3 306.1" id="137,70" style="stroke:rgb(80.4%,36.1%,36.1%);stroke-opacity:1.0" /><path d="M 833.3 326.1 L 833.3 317.5 L 857.9 317.5" id="127,69" style="stroke:rgb(60.4%,80.4%,19.6%);stroke-opacity:1.0" /><path d="M 838.4 334.7 L 838.4 329.0 L 857.9 329.0" id="117,68" style="stroke:rgb(60.4%,80.4%,19.6%);stroke-opacity:1.0" /><path d="M 838.4 334.7 L 838.4 340.4 L 857.9 340.4" id="117,67" style="stroke:rgb(60.4%,80.4%,19.6%);stroke-opacity:1.0" /><path d="M 728.1 360.4 L 728.1 351.9 L 728.1 351.9" id="160,66" style="stroke:rgb(80.4%,36.1%,36.1%);stroke-opacity:1.0" /><path d="M 795.9 369.0 L 795.9 363.3 L 857.8 363.3" id="148,65" style="stroke:rgb(73.7%,56.1%,56.1%);stroke-opacity:1.0" /><path d="M 795.9 369.0 L 795.9 374.7 L 857.8 374.7" id="148,64" style="stroke:rgb(73.7%,56.1%,56.1%);stroke-opacity:1.0" /><path d="M 748.7 394.8 L 748.7 386.2 L 857.8 386.2" id="159,63" style="stroke:rgb(73.7%,56.1%,56.1%);stroke-opacity:1.0" /><path d="M 770.6 403.4 L 770.6 397.6 L 857.9 397.6" id="147,62" style="stroke:rgb(73.7%,56.1%,56.1%);stroke-opacity:1.0" /><path d="M 770.6 403.4 L 770.6 409.1 L 825.3 409.1" id="147,61" style="stroke:rgb(73.7%,56.1%,56.1%);stroke-opacity:1.0" /><path d="M 641.6 441.3 L 641.6 420.5 L 641.6 420.5" id="167,60" style="stroke:rgb(80.4%,36.1%,36.1%);stroke-opacity:1.0" /><path d="M 820.3 437.7 L 820.3 432.0 L 857.8 432.0" id="146,59" style="stroke:rgb(87.1%,72.2%,52.9%);stroke-opacity:1.0" /><path d="M 820.3 437.7 L 820.3 443.4 L 857.8 443.4" id="146,58" style="stroke:rgb(87.1%,72.2%,52.9%);stroke-opacity:1.0" /><path d="M 801.7 460.6 L 801.7 454.8 L 857.8 454.8" id="136,57" style="stroke:rgb(87.1%,72.2%,52.9%);stroke-opacity:1.0" /><path d="M 801.7 460.6 L 801.7 466.3 L 857.8 466.3" id="136,56" style="stroke:rgb(87.1%,72.2%,52.9%);stroke-opacity:1.0" /><path d="M 788.9 486.3 L 788.9 477.7 L 857.8 477.7" id="126,55" style="stroke:rgb(87.1%,72.2%,52.9%);stroke-opacity:1.0" /><path d="M 816.7 494.9 L 816.7 489.2 L 857.8 489.2" id="116,54" style="stroke:rgb(87.1%,72.2%,52.9%);stroke-opacity:1.0" /><path d="M 816.7 494.9 L 816.7 500.6 L 857.8 500.6" id="116,53" style="stroke:rgb(87.1%,72.2%,52.9%);stroke-opacity:1.0" /><path d="M 818.2 520.6 L 818.2 512.1 L 857.8 512.1" id="115,52" style="stroke:rgb(87.1%,72.2%,52.9%);stroke-opacity:1.0" /><path d="M 837.4 529.2 L 837.4 523.5 L 857.8 523.5" id="109,51" style="stroke:rgb(87.1%,72.2%,52.9%);stroke-opacity:1.0" /><path d="M 837.4 529.2 L 837.4 534.9 L 857.8 534.9" id="109,50" style="stroke:rgb(87.1%,72.2%,52.9%);stroke-opacity:1.0" /><path d="M 794.1 556.4 L 794.1 546.4 L 857.8 546.4" id="114,49" style="stroke:rgb(87.1%,72.2%,52.9%);stroke-opacity:1.0" /><path d="M 804.7 566.4 L 804.7 557.8 L 857.8 557.8" id="108,48" style="stroke:rgb(87.1%,72.2%,52.9%);stroke-opacity:1.0" /><path d="M 817.6 575.0 L 817.6 569.3 L 857.8 569.3" id="102,47" style="stroke:rgb(87.1%,72.2%,52.9%);stroke-opacity:1.0" /><path d="M 817.6 575.0 L 817.6 580.7 L 857.8 580.7" id="102,46" style="stroke:rgb(87.1%,72.2%,52.9%);stroke-opacity:1.0" /><path d="M 684.4 600.7 L 684.4 592.2 L 802.2 592.2" id="166,45" style="stroke:rgb(42%,55.7%,13.7%);stroke-opacity:1.0" /><path d="M 755.4 609.3 L 755.4 603.6 L 857.8 603.6" id="157,44" style="stroke:rgb(42%,55.7%,13.7%);stroke-opacity:1.0" /><path d="M 755.4 609.3 L 755.4 615.1 L 857.8 615.1" id="157,43" style="stroke:rgb(42%,55.7%,13.7%);stroke-opacity:1.0" /><path d="M 746.0 637.2 L 746.0 626.5 L 761.1 626.5" id="156,42" style="stroke:rgb(23.5%,70.2%,44.3%);stroke-opacity:1.0" /><path d="M 777.6 648.0 L 777.6 637.9 L 857.8 637.9" id="144,41" style="stroke:rgb(23.5%,70.2%,44.3%);stroke-opacity:1.0" /><path d="M 797.9 658.0 L 797.9 649.4 L 857.8 649.4" id="134,40" style="stroke:rgb(23.5%,70.2%,44.3%);stroke-opacity:1.0" /><path d="M 813.0 666.5 L 813.0 660.8 L 857.8 660.8" id="124,39" style="stroke:rgb(23.5%,70.2%,44.3%);stroke-opacity:1.0" /><path d="M 813.0 666.5 L 813.0 672.3 L 857.8 672.3" id="124,38" style="stroke:rgb(23.5%,70.2%,44.3%);stroke-opacity:1.0" /><path d="M 801.3 692.3 L 801.3 683.7 L 857.8 683.7" id="143,37" style="stroke:rgb(23.5%,70.2%,44.3%);stroke-opacity:1.0" /><path d="M 813.2 700.9 L 813.2 695.2 L 857.8 695.2" id="133,36" style="stroke:rgb(23.5%,70.2%,44.3%);stroke-opacity:1.0" /><path d="M 813.2 700.9 L 813.2 706.6 L 857.8 706.6" id="133,35" style="stroke:rgb(23.5%,70.2%,44.3%);stroke-opacity:1.0" /><path d="M 798.9 732.3 L 798.9 718.0 L 857.8 718.0" id="142,34" style="stroke:rgb(23.5%,70.2%,44.3%);stroke-opacity:1.0" /><path d="M 851.8 735.2 L 851.8 729.5 L 857.8 729.5" id="123,33" style="stroke:rgb(23.5%,70.2%,44.3%);stroke-opacity:1.0" /><path d="M 851.8 735.2 L 851.8 740.9 L 857.8 740.9" id="123,32" style="stroke:rgb(23.5%,70.2%,44.3%);stroke-opacity:1.0" /><path d="M 834.9 758.1 L 834.9 752.4 L 857.9 752.4" id="122,31" style="stroke:rgb(23.5%,70.2%,44.3%);stroke-opacity:1.0" /><path d="M 834.9 758.1 L 834.9 763.8 L 857.9 763.8" id="122,30" style="stroke:rgb(23.5%,70.2%,44.3%);stroke-opacity:1.0" /><path d="M 543.6 789.0 L 543.6 775.3 L 603.3 775.3" id="164,29" style="stroke:rgb(46.7%,53.3%,60%);stroke-opacity:1.0" /><path d="M 588.9 802.7 L 588.9 786.7 L 857.9 786.7" id="154,28" style="stroke:rgb(46.7%,53.3%,60%);stroke-opacity:1.0" /><path d="M 621.6 818.7 L 621.6 798.1 L 725.1 798.1" id="141,27" style="stroke:rgb(46.7%,53.3%,60%);stroke-opacity:1.0" /><path d="M 812.4 815.3 L 812.4 809.6 L 857.9 809.6" id="121,26" style="stroke:rgb(46.7%,53.3%,60%);stroke-opacity:1.0" /><path d="M 812.4 815.3 L 812.4 821.0 L 857.9 821.0" id="121,25" style="stroke:rgb(46.7%,53.3%,60%);stroke-opacity:1.0" /><path d="M 713.6 841.1 L 713.6 832.5 L 857.9 832.5" id="113,24" style="stroke:rgb(46.7%,53.3%,60%);stroke-opacity:1.0" /><path d="M 764.2 849.6 L 764.2 843.9 L 857.8 843.9" id="107,23" style="stroke:rgb(46.7%,53.3%,60%);stroke-opacity:1.0" /><path d="M 764.2 849.6 L 764.2 855.4 L 857.8 855.4" id="107,22" style="stroke:rgb(46.7%,53.3%,60%);stroke-opacity:1.0" /><path d="M 803.1 872.5 L 803.1 866.8 L 857.9 866.8" id="106,21" style="stroke:rgb(46.7%,53.3%,60%);stroke-opacity:1.0" /><path d="M 803.1 872.5 L 803.1 878.2 L 857.9 878.2" id="106,20" style="stroke:rgb(46.7%,53.3%,60%);stroke-opacity:1.0" /><path d="M 731.8 898.3 L 731.8 889.7 L 857.9 889.7" id="105,19" style="stroke:rgb(46.7%,53.3%,60%);stroke-opacity:1.0" /><path d="M 760.6 906.9 L 760.6 901.1 L 857.9 901.1" id="101,18" style="stroke:rgb(46.7%,53.3%,60%);stroke-opacity:1.0" /><path d="M 760.6 906.9 L 760.6 912.6 L 857.9 912.6" id="101,17" style="stroke:rgb(46.7%,53.3%,60%);stroke-opacity:1.0" /><path d="M 507.0 936.8 L 507.0 924.0 L 507.0 924.0" id="163,16" style="stroke:rgb(80.4%,36.1%,36.1%);stroke-opacity:1.0" /><path d="M 622.6 949.6 L 622.6 935.5 L 857.8 935.5" id="153,15" style="stroke:rgb(57.6%,43.9%,85.9%);stroke-opacity:1.0" /><path d="M 649.6 963.8 L 649.6 946.9 L 857.8 946.9" id="140,14" style="stroke:rgb(57.6%,43.9%,85.9%);stroke-opacity:1.0" /><path d="M 668.6 980.7 L 668.6 958.3 L 857.9 958.3" id="130,13" style="stroke:rgb(57.6%,43.9%,85.9%);stroke-opacity:1.0" /><path d="M 723.0 975.5 L 723.0 969.8 L 857.8 969.8" id="111,12" style="stroke:rgb(57.6%,43.9%,85.9%);stroke-opacity:1.0" /><path d="M 723.0 975.5 L 723.0 981.2 L 857.8 981.2" id="111,11" style="stroke:rgb(57.6%,43.9%,85.9%);stroke-opacity:1.0" /><path d="M 741.5 1002.7 L 741.5 992.7 L 857.9 992.7" id="104,10" style="stroke:rgb(57.6%,43.9%,85.9%);stroke-opacity:1.0" /><path d="M 768.9 1012.7 L 768.9 1004.1 L 857.8 1004.1" id="100,9" style="stroke:rgb(57.6%,43.9%,85.9%);stroke-opacity:1.0" /><path d="M 779.7 1021.3 L 779.7 1015.6 L 857.8 1015.6" id="97,8" style="stroke:rgb(57.6%,43.9%,85.9%);stroke-opacity:1.0" /><path d="M 779.7 1021.3 L 779.7 1027.0 L 857.8 1027.0" id="97,7" style="stroke:rgb(57.6%,43.9%,85.9%);stroke-opacity:1.0" /><path d="M 778.7 1044.2 L 778.7 1038.5 L 857.9 1038.5" id="99,6" style="stroke:rgb(57.6%,43.9%,85.9%);stroke-opacity:1.0" /><path d="M 778.7 1044.2 L 778.7 1049.9 L 857.9 1049.9" id="99,5" style="stroke:rgb(57.6%,43.9%,85.9%);stroke-opacity:1.0" /><path d="M 763.9 1072.1 L 763.9 1061.3 L 857.9 1061.3" id="98,4" style="stroke:rgb(57.6%,43.9%,85.9%);stroke-opacity:1.0" /><path d="M 800.6 1082.8 L 800.6 1072.8 L 857.9 1072.8" id="96,3" style="stroke:rgb(57.6%,43.9%,85.9%);stroke-opacity:1.0" /><path d="M 814.7 1092.8 L 814.7 1084.2 L 857.9 1084.2" id="95,2" style="stroke:rgb(57.6%,43.9%,85.9%);stroke-opacity:1.0" /><path d="M 827.4 1101.4 L 827.4 1095.7 L 857.9 1095.7" id="94,1" style="stroke:rgb(57.6%,43.9%,85.9%);stroke-opacity:1.0" /><path d="M 827.4 1101.4 L 827.4 1107.1 L 857.9 1107.1" id="94,0" style="stroke:rgb(57.6%,43.9%,85.9%);stroke-opacity:1.0" /></g><g class="toytree-TipLabels" style="fill:rgb(14.9%,14.9%,14.9%);fill-opacity:1.0;font-family:helvetica;font-size:12px;font-weight:normal;stroke:none;white-space:pre"><g transform="translate(857.86,1107.11)rotate(0)"><text x="5.00" y="3.07" style="">Lahnda</text></g><g transform="translate(857.86,1095.67)rotate(0)"><text x="5.00" y="3.07" style="">Panjabi</text></g><g transform="translate(857.86,1084.23)rotate(0)"><text x="5.00" y="3.07" style="">Urdu</text></g><g transform="translate(857.86,1072.78)rotate(0)"><text x="5.00" y="3.07" style="">Hindi</text></g><g transform="translate(857.85,1061.34)rotate(0)"><text x="5.00" y="3.07" style="">Bihari</text></g><g transform="translate(857.85,1049.90)rotate(0)"><text x="5.00" y="3.07" style="">Marathi</text></g><g transform="translate(857.85,1038.45)rotate(0)"><text x="5.00" y="3.07" style="">Gujarati</text></g><g transform="translate(857.84,1027.01)rotate(0)"><text x="5.00" y="3.07" style="">Assamese</text></g><g transform="translate(857.84,1015.57)rotate(0)"><text x="5.00" y="3.07" style="">Oriya</text></g><g transform="translate(857.84,1004.12)rotate(0)"><text x="5.00" y="3.07" style="">Bengali</text></g><g transform="translate(857.85,992.68)rotate(0)"><text x="5.00" y="3.07" style="">Nepali</text></g><g transform="translate(857.84,981.24)rotate(0)"><text x="5.00" y="3.07" style="">Sindhi</text></g><g transform="translate(857.84,969.79)rotate(0)"><text x="5.00" y="3.07" style="">Marwari</text></g><g transform="translate(857.85,958.35)rotate(0)"><text x="5.00" y="3.07" style="">Kashmiri</text></g><g transform="translate(857.84,946.91)rotate(0)"><text x="5.00" y="3.07" style="">Romani</text></g><g transform="translate(857.84,935.46)rotate(0)"><text x="5.00" y="3.07" style="">Singhalese</text></g><g transform="translate(506.96,924.02)rotate(0)"><text x="5.00" y="3.07" style="">Vedic Sanskrit</text></g><g transform="translate(857.85,912.58)rotate(0)"><text x="5.00" y="3.07" style="">Zazaki</text></g><g transform="translate(857.85,901.13)rotate(0)"><text x="5.00" y="3.07" style="">Kurdish</text></g><g transform="translate(857.85,889.69)rotate(0)"><text x="5.00" y="3.07" style="">Baluchi</text></g><g transform="translate(857.85,878.25)rotate(0)"><text x="5.00" y="3.07" style="">Persian</text></g><g transform="translate(857.85,866.80)rotate(0)"><text x="5.00" y="3.07" style="">Tajik</text></g><g transform="translate(857.84,855.36)rotate(0)"><text x="5.00" y="3.07" style="">Sariqoli</text></g><g transform="translate(857.84,843.92)rotate(0)"><text x="5.00" y="3.07" style="">Shughni</text></g><g transform="translate(857.85,832.47)rotate(0)"><text x="5.00" y="3.07" style="">Wakhi</text></g><g transform="translate(857.85,821.03)rotate(0)"><text x="5.00" y="3.07" style="">Waziri</text></g><g transform="translate(857.85,809.59)rotate(0)"><text x="5.00" y="3.07" style="">Pashto</text></g><g transform="translate(725.08,798.14)rotate(0)"><text x="5.00" y="3.07" style="">Sogdian</text></g><g transform="translate(857.85,786.70)rotate(0)"><text x="5.00" y="3.07" style="">Digor Ossetic</text></g><g transform="translate(603.26,775.26)rotate(0)"><text x="5.00" y="3.07" style="">Avestan</text></g><g transform="translate(857.85,763.81)rotate(0)"><text x="5.00" y="3.07" style="">Slovak</text></g><g transform="translate(857.85,752.37)rotate(0)"><text x="5.00" y="3.07" style="">Czech</text></g><g transform="translate(857.84,740.93)rotate(0)"><text x="5.00" y="3.07" style="">Upper Sorbian</text></g><g transform="translate(857.84,729.48)rotate(0)"><text x="5.00" y="3.07" style="">Lower Sorbian</text></g><g transform="translate(857.84,718.04)rotate(0)"><text x="5.00" y="3.07" style="">Polish</text></g><g transform="translate(857.83,706.60)rotate(0)"><text x="5.00" y="3.07" style="">Ukrainian</text></g><g transform="translate(857.83,695.15)rotate(0)"><text x="5.00" y="3.07" style="">Belarusian</text></g><g transform="translate(857.83,683.71)rotate(0)"><text x="5.00" y="3.07" style="">Russian</text></g><g transform="translate(857.84,672.27)rotate(0)"><text x="5.00" y="3.07" style="">Macedonian</text></g><g transform="translate(857.84,660.82)rotate(0)"><text x="5.00" y="3.07" style="">Bulgarian</text></g><g transform="translate(857.84,649.38)rotate(0)"><text x="5.00" y="3.07" style="">Serbian</text></g><g transform="translate(857.84,637.94)rotate(0)"><text x="5.00" y="3.07" style="">Slovenian</text></g><g transform="translate(761.06,626.49)rotate(0)"><text x="5.00" y="3.07" style="">Old Church Slavic</text></g><g transform="translate(857.84,615.05)rotate(0)"><text x="5.00" y="3.07" style="">Lithuanian</text></g><g transform="translate(857.84,603.61)rotate(0)"><text x="5.00" y="3.07" style="">Latvian</text></g><g transform="translate(802.23,592.16)rotate(0)"><text x="5.00" y="3.07" style="">Old Prussian</text></g><g transform="translate(857.84,580.72)rotate(0)"><text x="5.00" y="3.07" style="">Friulian</text></g><g transform="translate(857.84,569.28)rotate(0)"><text x="5.00" y="3.07" style="">Romansh</text></g><g transform="translate(857.84,557.84)rotate(0)"><text x="5.00" y="3.07" style="">Ladin</text></g><g transform="translate(857.84,546.39)rotate(0)"><text x="5.00" y="3.07" style="">Italian</text></g><g transform="translate(857.83,534.95)rotate(0)"><text x="5.00" y="3.07" style="">French</text></g><g transform="translate(857.83,523.51)rotate(0)"><text x="5.00" y="3.07" style="">Walloon</text></g><g transform="translate(857.84,512.06)rotate(0)"><text x="5.00" y="3.07" style="">Provencal</text></g><g transform="translate(857.84,500.62)rotate(0)"><text x="5.00" y="3.07" style="">Spanish</text></g><g transform="translate(857.84,489.18)rotate(0)"><text x="5.00" y="3.07" style="">Portuguese</text></g><g transform="translate(857.84,477.73)rotate(0)"><text x="5.00" y="3.07" style="">Catalan</text></g><g transform="translate(857.84,466.29)rotate(0)"><text x="5.00" y="3.07" style="">Romanian</text></g><g transform="translate(857.84,454.85)rotate(0)"><text x="5.00" y="3.07" style="">Arumanian</text></g><g transform="translate(857.84,443.40)rotate(0)"><text x="5.00" y="3.07" style="">Cagliari</text></g><g transform="translate(857.84,431.96)rotate(0)"><text x="5.00" y="3.07" style="">Nuorese</text></g><g transform="translate(641.64,420.52)rotate(0)"><text x="5.00" y="3.07" style="">Latin</text></g><g transform="translate(825.35,409.07)rotate(0)"><text x="5.00" y="3.07" style="">Cornish</text></g><g transform="translate(857.85,397.63)rotate(0)"><text x="5.00" y="3.07" style="">Breton</text></g><g transform="translate(857.84,386.19)rotate(0)"><text x="5.00" y="3.07" style="">Welsh</text></g><g transform="translate(857.84,374.74)rotate(0)"><text x="5.00" y="3.07" style="">Irish</text></g><g transform="translate(857.84,363.30)rotate(0)"><text x="5.00" y="3.07" style="">Scots Gaelic</text></g><g transform="translate(728.08,351.86)rotate(0)"><text x="5.00" y="3.07" style="">Old Irish</text></g><g transform="translate(857.85,340.41)rotate(0)"><text x="5.00" y="3.07" style="">Swiss German</text></g><g transform="translate(857.85,328.97)rotate(0)"><text x="5.00" y="3.07" style="">Luxembourgish</text></g><g transform="translate(857.85,317.53)rotate(0)"><text x="5.00" y="3.07" style="">German</text></g><g transform="translate(754.30,306.08)rotate(0)"><text x="5.00" y="3.07" style="">Old High German</text></g><g transform="translate(857.85,294.64)rotate(0)"><text x="5.00" y="3.07" style="">Dutch</text></g><g transform="translate(857.85,283.20)rotate(0)"><text x="5.00" y="3.07" style="">Flemish</text></g><g transform="translate(857.85,271.75)rotate(0)"><text x="5.00" y="3.07" style="">Afrikaans</text></g><g transform="translate(857.85,260.31)rotate(0)"><text x="5.00" y="3.07" style="">Frisian</text></g><g transform="translate(857.84,248.87)rotate(0)"><text x="5.00" y="3.07" style="">English</text></g><g transform="translate(754.62,237.42)rotate(0)"><text x="5.00" y="3.07" style="">Old English</text></g><g transform="translate(857.85,225.98)rotate(0)"><text x="5.00" y="3.07" style="">Icelandic</text></g><g transform="translate(857.85,214.54)rotate(0)"><text x="5.00" y="3.07" style="">Faroese</text></g><g transform="translate(857.85,203.09)rotate(0)"><text x="5.00" y="3.07" style="">Norwegian</text></g><g transform="translate(780.45,191.65)rotate(0)"><text x="5.00" y="3.07" style="">Old West Norse</text></g><g transform="translate(857.84,180.21)rotate(0)"><text x="5.00" y="3.07" style="">Danish</text></g><g transform="translate(857.84,168.76)rotate(0)"><text x="5.00" y="3.07" style="">Swedish</text></g><g transform="translate(691.51,157.32)rotate(0)"><text x="5.00" y="3.07" style="">Gothic</text></g><g transform="translate(857.84,145.88)rotate(0)"><text x="5.00" y="3.07" style="">Adapazar</text></g><g transform="translate(857.84,134.43)rotate(0)"><text x="5.00" y="3.07" style="">Eastern Armenian</text></g><g transform="translate(697.84,122.99)rotate(0)"><text x="5.00" y="3.07" style="">Classical Armenian</text></g><g transform="translate(857.85,111.55)rotate(0)"><text x="5.00" y="3.07" style="">Modern Greek</text></g><g transform="translate(611.97,100.10)rotate(0)"><text x="5.00" y="3.07" style="">Ancient Greek</text></g><g transform="translate(857.84,88.66)rotate(0)"><text x="5.00" y="3.07" style="">Tosk</text></g><g transform="translate(857.84,77.22)rotate(0)"><text x="5.00" y="3.07" style="">Arvanitika</text></g><g transform="translate(722.24,65.77)rotate(0)"><text x="5.00" y="3.07" style="">Tocharian A</text></g><g transform="translate(721.79,54.33)rotate(0)"><text x="5.00" y="3.07" style="">Tocharian B</text></g><g transform="translate(499.52,42.89)rotate(0)"><text x="5.00" y="3.07" style="">Hittite</text></g></g></g></g><g class="toyplot-coordinates-Axis" id="t6f3725c8c06443d7a95b62b7e2453fda" transform="translate(0.0,30.0)translate(0,-5.0)"><g><g transform="translate(857.8642128116874,-6)"><text x="-2.78" y="-4.440892098500626e-16" style="fill:rgb(16.1%,15.3%,14.1%);fill-opacity:1.0;font-family:helvetica;font-size:10.0px;font-weight:normal;stroke:none;vertical-align:baseline;white-space:pre">0</text></g><g transform="translate(807.4016120580587,-6)"><text x="-8.34" y="-4.440892098500626e-16" style="fill:rgb(16.1%,15.3%,14.1%);fill-opacity:1.0;font-family:helvetica;font-size:10.0px;font-weight:normal;stroke:none;vertical-align:baseline;white-space:pre">500</text></g><g transform="translate(756.93901130443,-6)"><text x="-11.12" y="-4.440892098500626e-16" style="fill:rgb(16.1%,15.3%,14.1%);fill-opacity:1.0;font-family:helvetica;font-size:10.0px;font-weight:normal;stroke:none;vertical-align:baseline;white-space:pre">1000</text></g><g transform="translate(706.4764105508013,-6)"><text x="-11.12" y="-4.440892098500626e-16" style="fill:rgb(16.1%,15.3%,14.1%);fill-opacity:1.0;font-family:helvetica;font-size:10.0px;font-weight:normal;stroke:none;vertical-align:baseline;white-space:pre">1500</text></g><g transform="translate(656.0138097971727,-6)"><text x="-11.12" y="-4.440892098500626e-16" style="fill:rgb(16.1%,15.3%,14.1%);fill-opacity:1.0;font-family:helvetica;font-size:10.0px;font-weight:normal;stroke:none;vertical-align:baseline;white-space:pre">2000</text></g><g transform="translate(605.551209043544,-6)"><text x="-11.12" y="-4.440892098500626e-16" style="fill:rgb(16.1%,15.3%,14.1%);fill-opacity:1.0;font-family:helvetica;font-size:10.0px;font-weight:normal;stroke:none;vertical-align:baseline;white-space:pre">2500</text></g><g transform="translate(555.0886082899153,-6)"><text x="-11.12" y="-4.440892098500626e-16" style="fill:rgb(16.1%,15.3%,14.1%);fill-opacity:1.0;font-family:helvetica;font-size:10.0px;font-weight:normal;stroke:none;vertical-align:baseline;white-space:pre">3000</text></g><g transform="translate(504.62600753628675,-6)"><text x="-11.12" y="-4.440892098500626e-16" style="fill:rgb(16.1%,15.3%,14.1%);fill-opacity:1.0;font-family:helvetica;font-size:10.0px;font-weight:normal;stroke:none;vertical-align:baseline;white-space:pre">3500</text></g><g transform="translate(454.163406782658,-6)"><text x="-11.12" y="-4.440892098500626e-16" style="fill:rgb(16.1%,15.3%,14.1%);fill-opacity:1.0;font-family:helvetica;font-size:10.0px;font-weight:normal;stroke:none;vertical-align:baseline;white-space:pre">4000</text></g><g transform="translate(403.70080602902937,-6)"><text x="-11.12" y="-4.440892098500626e-16" style="fill:rgb(16.1%,15.3%,14.1%);fill-opacity:1.0;font-family:helvetica;font-size:10.0px;font-weight:normal;stroke:none;vertical-align:baseline;white-space:pre">4500</text></g><g transform="translate(353.2382052754007,-6)"><text x="-11.12" y="-4.440892098500626e-16" style="fill:rgb(16.1%,15.3%,14.1%);fill-opacity:1.0;font-family:helvetica;font-size:10.0px;font-weight:normal;stroke:none;vertical-align:baseline;white-space:pre">5000</text></g><g transform="translate(302.775604521772,-6)"><text x="-11.12" y="-4.440892098500626e-16" style="fill:rgb(16.1%,15.3%,14.1%);fill-opacity:1.0;font-family:helvetica;font-size:10.0px;font-weight:normal;stroke:none;vertical-align:baseline;white-space:pre">5500</text></g><g transform="translate(252.31300376814337,-6)"><text x="-11.12" y="-4.440892098500626e-16" style="fill:rgb(16.1%,15.3%,14.1%);fill-opacity:1.0;font-family:helvetica;font-size:10.0px;font-weight:normal;stroke:none;vertical-align:baseline;white-space:pre">6000</text></g><g transform="translate(201.85040301451468,-6)"><text x="-11.12" y="-4.440892098500626e-16" style="fill:rgb(16.1%,15.3%,14.1%);fill-opacity:1.0;font-family:helvetica;font-size:10.0px;font-weight:normal;stroke:none;vertical-align:baseline;white-space:pre">6500</text></g><g transform="translate(151.387802260886,-6)"><text x="-11.12" y="-4.440892098500626e-16" style="fill:rgb(16.1%,15.3%,14.1%);fill-opacity:1.0;font-family:helvetica;font-size:10.0px;font-weight:normal;stroke:none;vertical-align:baseline;white-space:pre">7000</text></g><g transform="translate(100.92520150725734,-6)"><text x="-11.12" y="-4.440892098500626e-16" style="fill:rgb(16.1%,15.3%,14.1%);fill-opacity:1.0;font-family:helvetica;font-size:10.0px;font-weight:normal;stroke:none;vertical-align:baseline;white-space:pre">7500</text></g><g transform="translate(50.46260075362867,-6)"><text x="-11.12" y="-4.440892098500626e-16" style="fill:rgb(16.1%,15.3%,14.1%);fill-opacity:1.0;font-family:helvetica;font-size:10.0px;font-weight:normal;stroke:none;vertical-align:baseline;white-space:pre">8000</text></g></g><g class="toyplot-coordinates-Axis-coordinates" style="visibility:hidden" transform=""><line x1="0" x2="0" y1="3.0" y2="-4.5" style="stroke:rgb(43.9%,50.2%,56.5%);stroke-opacity:1.0;stroke-width:1.0" /><text x="0" y="6" style="alignment-baseline:hanging;fill:rgb(43.9%,50.2%,56.5%);fill-opacity:1.0;font-size:10px;font-weight:normal;stroke:none;text-anchor:middle" /></g></g></g><g class="toyplot-mark-Text" id="tdd309d0b6b214d948fdad39cf8caa731"><g class="toyplot-Series"><g class="toyplot-Datum" transform="translate(150.0,1100.0)"><text x="-106.56" y="4.599" style="fill:rgb(16.1%,15.3%,14.1%);fill-opacity:1.0;font-family:helvetica;font-size:18.0px;font-weight:normal;opacity:1;stroke:none;vertical-align:baseline;white-space:pre">Root Age: 6022 years B.P.</text></g></g></g></svg>