<svg class="toyplot-canvas-Canvas" xmlns:toyplot="http://www.sandia.gov/toyplot" xmlns:xlink="http://www.w3.org/1999/xlink" xmlns="http://www.w3.org/2000/svg" width="600.0px" height="700.0px" viewBox="0 0 600.0 700.0" preserveAspectRatio="xMidYMid meet" style="background-color:transparent;border-color:#292724;border-style:none;border-width:1.0;fill:rgb(16.1%,15.3%,14.1%);fill-opacity:1.0;font-family:Helvetica;font-size:12px;opacity:1.0;stroke:rgb(16.1%,15.3%,14.1%);stroke-opacity:1.0;stroke-width:1.0" id="t290c15b63a964794ab75dc5de9cd0e91"><g class="toyplot-coordinates-Cartesian" id="t800c9f7a511340f08bdb347ec4161a6d"><clipPath id="t28a4163dcd7c4e66b3c9ca2ec7e79888"><rect x="-5.0" y="25.0" width="610.0" height="650.0" /></clipPath><g clip-path="url(#t28a4163dcd7c4e66b3c9ca2ec7e79888)"><g class="toyplot-mark-AxisLines" style="stroke:rgb(82.7%,82.7%,82.7%);stroke-dasharray:8,10;stroke-opacity:1.0" id="t66c64ebf13984ab6bfc2444a8db7c92a"><g class="toyplot-Series"><line class="toyplot-Datum" x1="467.7480658587592" x2="467.7480658587592" y1="30.0" y2="670.0" style="opacity:1.0;stroke:rgb(82.7%,82.7%,82.7%);stroke-dasharray:8,10;stroke-opacity:1.0" /><line class="toyplot-Datum" x1="434.33748972599074" x2="434.33748972599074" y1="30.0" y2="670.0" style="opacity:1.0;stroke:rgb(82.7%,82.7%,82.7%);stroke-dasharray:8,10;stroke-opacity:1.0" /><line class="toyplot-Datum" x1="400.9269135932222" x2="400.9269135932222" y1="30.0" y2="670.0" style="opacity:1.0;stroke:rgb(82.7%,82.7%,82.7%);stroke-dasharray:8,10;stroke-opacity:1.0" /><line class="toyplot-Datum" x1="367.5163374604537" x2="367.5163374604537" y1="30.0" y2="670.0" style="opacity:1.0;stroke:rgb(82.7%,82.7%,82.7%);stroke-dasharray:8,10;stroke-opacity:1.0" /><line class="toyplot-Datum" x1="334.1057613276852" x2="334.1057613276852" y1="30.0" y2="670.0" style="opacity:1.0;stroke:rgb(82.7%,82.7%,82.7%);stroke-dasharray:8,10;stroke-opacity:1.0" /><line class="toyplot-Datum" x1="300.69518519491663" x2="300.69518519491663" y1="30.0" y2="670.0" style="opacity:1.0;stroke:rgb(82.7%,82.7%,82.7%);stroke-dasharray:8,10;stroke-opacity:1.0" /><line class="toyplot-Datum" x1="267.28460906214815" x2="267.28460906214815" y1="30.0" y2="670.0" style="opacity:1.0;stroke:rgb(82.7%,82.7%,82.7%);stroke-dasharray:8,10;stroke-opacity:1.0" /><line class="toyplot-Datum" x1="233.8740329293796" x2="233.8740329293796" y1="30.0" y2="670.0" style="opacity:1.0;stroke:rgb(82.7%,82.7%,82.7%);stroke-dasharray:8,10;stroke-opacity:1.0" /><line class="toyplot-Datum" x1="200.4634567966111" x2="200.4634567966111" y1="30.0" y2="670.0" style="opacity:1.0;stroke:rgb(82.7%,82.7%,82.7%);stroke-dasharray:8,10;stroke-opacity:1.0" /><line class="toyplot-Datum" x1="167.0528806638426" x2="167.0528806638426" y1="30.0" y2="670.0" style="opacity:1.0;stroke:rgb(82.7%,82.7%,82.7%);stroke-dasharray:8,10;stroke-opacity:1.0" /><line class="toyplot-Datum" x1="133.64230453107407" x2="133.64230453107407" y1="30.0" y2="670.0" style="opacity:1.0;stroke:rgb(82.7%,82.7%,82.7%);stroke-dasharray:8,10;stroke-opacity:1.0" /><line class="toyplot-Datum" x1="100.23172839830555" x2="100.23172839830555" y1="30.0" y2="670.0" style="opacity:1.0;stroke:rgb(82.7%,82.7%,82.7%);stroke-dasharray:8,10;stroke-opacity:1.0" /><line class="toyplot-Datum" x1="66.82115226553704" x2="66.82115226553704" y1="30.0" y2="670.0" style="opacity:1.0;stroke:rgb(82.7%,82.7%,82.7%);stroke-dasharray:8,10;stroke-opacity:1.0" /><line class="toyplot-Datum" x1="33.41057613276852" x2="33.41057613276852" y1="30.0" y2="670.0" style="opacity:1.0;stroke:rgb(82.7%,82.7%,82.7%);stroke-dasharray:8,10;stroke-opacity:1.0" /></g></g><g class="toytree-mark-Toytree" id="t585a540a8ee647bdbfc0d2d5441e5ff5"><g class="toytree-Edges" style="fill:none;stroke:rgb(50.2%,50.2%,50.2%);stroke-linecap:round;stroke-opacity:1;stroke-width:2"><path d="M 17.0 77.9 L 17.0 113.1 L 54.5 113.1" id="102,101" /><path d="M 54.5 113.1 L 54.5 171.4 L 55.4 171.4" id="101,100" /><path d="M 55.4 171.4 L 55.4 86.4 L 181.9 86.4" id="100,99" /><path d="M 55.4 171.4 L 55.4 256.5 L 75.7 256.5" id="100,98" /><path d="M 181.9 86.4 L 181.9 72.8 L 301.2 72.8" id="99,97" /><path d="M 181.9 86.4 L 181.9 99.9 L 365.7 99.9" id="99,96" /><path d="M 75.7 256.5 L 75.7 139.4 L 169.8 139.4" id="98,95" /><path d="M 75.7 256.5 L 75.7 373.6 L 95.9 373.6" id="98,94" /><path d="M 365.7 99.9 L 365.7 109.0 L 428.5 109.0" id="96,93" /><path d="M 169.8 139.4 L 169.8 151.8 L 243.7 151.8" id="95,92" /><path d="M 95.9 373.6 L 95.9 427.3 L 196.3 427.3" id="94,91" /><path d="M 243.7 151.8 L 243.7 164.5 L 307.8 164.5" id="92,90" /><path d="M 196.3 427.3 L 196.3 357.7 L 345.0 357.7" id="91,89" /><path d="M 196.3 427.3 L 196.3 496.9 L 207.4 496.9" id="91,88" /><path d="M 307.8 164.5 L 307.8 177.9 L 328.7 177.9" id="90,87" /><path d="M 345.0 357.7 L 345.0 383.5 L 365.4 383.5" id="89,86" /><path d="M 207.4 496.9 L 207.4 473.5 L 384.6 473.5" id="88,85" /><path d="M 207.4 496.9 L 207.4 520.3 L 322.9 520.3" id="88,84" /><path d="M 328.7 177.9 L 328.7 192.5 L 328.8 192.5" id="87,83" /><path d="M 365.4 383.5 L 365.4 354.5 L 413.5 354.5" id="86,82" /><path d="M 365.4 383.5 L 365.4 412.5 L 374.2 412.5" id="86,81" /><path d="M 384.6 473.5 L 384.6 482.6 L 420.0 482.6" id="85,80" /><path d="M 322.9 520.3 L 322.9 539.9 L 377.6 539.9" id="84,79" /><path d="M 328.8 192.5 L 328.8 209.8 L 352.4 209.8" id="83,78" /><path d="M 413.5 354.5 L 413.5 365.1 L 443.5 365.1" id="82,77" /><path d="M 374.2 412.5 L 374.2 398.2 L 404.1 398.2" id="81,76" /><path d="M 374.2 412.5 L 374.2 426.8 L 399.3 426.8" id="81,75" /><path d="M 377.6 539.9 L 377.6 518.7 L 440.5 518.7" id="79,74" /><path d="M 377.6 539.9 L 377.6 561.1 L 414.9 561.1" id="79,73" /><path d="M 352.4 209.8 L 352.4 232.3 L 389.6 232.3" id="78,72" /><path d="M 443.5 365.1 L 443.5 374.1 L 445.8 374.1" id="77,71" /><path d="M 399.3 426.8 L 399.3 437.4 L 454.3 437.4" id="75,70" /><path d="M 414.9 561.1 L 414.9 585.4 L 416.4 585.4" id="73,69" /><path d="M 389.6 232.3 L 389.6 208.4 L 418.2 208.4" id="72,68" /><path d="M 389.6 232.3 L 389.6 256.2 L 391.3 256.2" id="72,67" /><path d="M 454.3 437.4 L 454.3 446.4 L 455.3 446.4" id="70,66" /><path d="M 416.4 585.4 L 416.4 557.9 L 439.3 557.9" id="69,65" /><path d="M 416.4 585.4 L 416.4 612.9 L 423.6 612.9" id="69,64" /><path d="M 418.2 208.4 L 418.2 217.4 L 434.3 217.4" id="68,63" /><path d="M 391.3 256.2 L 391.3 241.5 L 422.3 241.5" id="67,62" /><path d="M 391.3 256.2 L 391.3 270.9 L 397.1 270.9" id="67,61" /><path d="M 439.3 557.9 L 439.3 566.9 L 452.8 566.9" id="65,60" /><path d="M 423.6 612.9 L 423.6 594.1 L 437.2 594.1" id="64,59" /><path d="M 423.6 612.9 L 423.6 631.7 L 432.6 631.7" id="64,58" /><path d="M 397.1 270.9 L 397.1 282.2 L 433.4 282.2" id="61,57" /><path d="M 437.2 594.1 L 437.2 603.1 L 454.3 603.1" id="59,56" /><path d="M 432.6 631.7 L 432.6 642.3 L 437.9 642.3" id="58,55" /><path d="M 433.4 282.2 L 433.4 292.8 L 441.8 292.8" id="57,54" /><path d="M 437.9 642.3 L 437.9 651.3 L 450.3 651.3" id="55,53" /><path d="M 441.8 292.8 L 441.8 301.8 L 450.5 301.8" id="54,52" /><path d="M 17.0 77.9 L 17.0 42.7 L 231.2 42.7" id="102,51" /><path d="M 54.5 113.1 L 54.5 54.7 L 376.7 54.7" id="101,50" /><path d="M 301.2 72.8 L 301.2 66.8 L 301.2 66.8" id="97,49" /><path d="M 301.2 72.8 L 301.2 78.8 L 467.7 78.8" id="97,48" /><path d="M 365.7 99.9 L 365.7 90.9 L 365.7 90.9" id="96,47" /><path d="M 428.5 109.0 L 428.5 102.9 L 467.7 102.9" id="93,46" /><path d="M 428.5 109.0 L 428.5 115.0 L 467.7 115.0" id="93,45" /><path d="M 169.8 139.4 L 169.8 127.0 L 302.8 127.0" id="95,44" /><path d="M 243.7 151.8 L 243.7 139.1 L 243.7 139.1" id="92,43" /><path d="M 307.8 164.5 L 307.8 151.1 L 467.7 151.1" id="90,42" /><path d="M 328.7 177.9 L 328.7 163.2 L 467.7 163.2" id="87,41" /><path d="M 328.8 192.5 L 328.8 175.2 L 467.7 175.2" id="83,40" /><path d="M 352.4 209.8 L 352.4 187.3 L 467.7 187.3" id="78,39" /><path d="M 418.2 208.4 L 418.2 199.4 L 467.7 199.4" id="68,38" /><path d="M 434.3 217.4 L 434.3 211.4 L 467.7 211.4" id="63,37" /><path d="M 434.3 217.4 L 434.3 223.5 L 467.7 223.5" id="63,36" /><path d="M 422.3 241.5 L 422.3 235.5 L 467.7 235.5" id="62,35" /><path d="M 422.3 241.5 L 422.3 247.6 L 467.7 247.6" id="62,34" /><path d="M 397.1 270.9 L 397.1 259.6 L 467.7 259.6" id="61,33" /><path d="M 433.4 282.2 L 433.4 271.7 L 467.7 271.7" id="57,32" /><path d="M 441.8 292.8 L 441.8 283.7 L 467.7 283.7" id="54,31" /><path d="M 450.5 301.8 L 450.5 295.8 L 467.7 295.8" id="52,30" /><path d="M 450.5 301.8 L 450.5 307.8 L 467.7 307.8" id="52,29" /><path d="M 95.9 373.6 L 95.9 319.9 L 401.7 319.9" id="94,28" /><path d="M 345.0 357.7 L 345.0 331.9 L 356.4 331.9" id="89,27" /><path d="M 413.5 354.5 L 413.5 344.0 L 413.5 344.0" id="82,26" /><path d="M 443.5 365.1 L 443.5 356.0 L 467.7 356.0" id="77,25" /><path d="M 445.8 374.1 L 445.8 368.1 L 467.7 368.1" id="71,24" /><path d="M 445.8 374.1 L 445.8 380.1 L 467.7 380.1" id="71,23" /><path d="M 404.1 398.2 L 404.1 392.2 L 404.1 392.2" id="76,22" /><path d="M 404.1 398.2 L 404.1 404.2 L 467.7 404.2" id="76,21" /><path d="M 399.3 426.8 L 399.3 416.3 L 399.3 416.3" id="75,20" /><path d="M 454.3 437.4 L 454.3 428.3 L 467.7 428.3" id="70,19" /><path d="M 455.3 446.4 L 455.3 440.4 L 467.7 440.4" id="66,18" /><path d="M 455.3 446.4 L 455.3 452.4 L 467.7 452.4" id="66,17" /><path d="M 384.6 473.5 L 384.6 464.5 L 384.6 464.5" id="85,16" /><path d="M 420.0 482.6 L 420.0 476.5 L 467.7 476.5" id="80,15" /><path d="M 420.0 482.6 L 420.0 488.6 L 467.7 488.6" id="80,14" /><path d="M 322.9 520.3 L 322.9 500.6 L 322.9 500.6" id="84,13" /><path d="M 440.5 518.7 L 440.5 512.7 L 467.7 512.7" id="74,12" /><path d="M 440.5 518.7 L 440.5 524.8 L 467.7 524.8" id="74,11" /><path d="M 414.9 561.1 L 414.9 536.8 L 467.7 536.8" id="73,10" /><path d="M 439.3 557.9 L 439.3 548.9 L 467.7 548.9" id="65,9" /><path d="M 452.8 566.9 L 452.8 560.9 L 467.7 560.9" id="60,8" /><path d="M 452.8 566.9 L 452.8 573.0 L 467.7 573.0" id="60,7" /><path d="M 437.2 594.1 L 437.2 585.0 L 467.7 585.0" id="59,6" /><path d="M 454.3 603.1 L 454.3 597.1 L 467.7 597.1" id="56,5" /><path d="M 454.3 603.1 L 454.3 609.1 L 467.7 609.1" id="56,4" /><path d="M 432.6 631.7 L 432.6 621.2 L 467.7 621.2" id="58,3" /><path d="M 437.9 642.3 L 437.9 633.2 L 467.7 633.2" id="55,2" /><path d="M 450.3 651.3 L 450.3 645.3 L 467.7 645.3" id="53,1" /><path d="M 450.3 651.3 L 450.3 657.3 L 467.7 657.3" id="53,0" /></g><g class="toytree-TipLabels" style="fill:rgb(14.9%,14.9%,14.9%);fill-opacity:1.0;font-family:helvetica;font-size:12px;font-weight:normal;stroke:none;white-space:pre"><g transform="translate(467.73,657.32)rotate(0)"><text x="5.00" y="3.07" style="fill:rgb(87.1%,72.2%,52.9%);fill-opacity:1.0">Romansh</text></g><g transform="translate(467.73,645.27)rotate(0)"><text x="5.00" y="3.07" style="fill:rgb(87.1%,72.2%,52.9%);fill-opacity:1.0">Friulian</text></g><g transform="translate(467.73,633.22)rotate(0)"><text x="5.00" y="3.07" style="fill:rgb(87.1%,72.2%,52.9%);fill-opacity:1.0">Ladin</text></g><g transform="translate(467.73,621.17)rotate(0)"><text x="5.00" y="3.07" style="fill:rgb(87.1%,72.2%,52.9%);fill-opacity:1.0">Italian</text></g><g transform="translate(467.73,609.12)rotate(0)"><text x="5.00" y="3.07" style="fill:rgb(87.1%,72.2%,52.9%);fill-opacity:1.0">French</text></g><g transform="translate(467.73,597.06)rotate(0)"><text x="5.00" y="3.07" style="fill:rgb(87.1%,72.2%,52.9%);fill-opacity:1.0">Walloon</text></g><g transform="translate(467.73,585.01)rotate(0)"><text x="5.00" y="3.07" style="fill:rgb(87.1%,72.2%,52.9%);fill-opacity:1.0">Provencal</text></g><g transform="translate(467.74,572.96)rotate(0)"><text x="5.00" y="3.07" style="fill:rgb(87.1%,72.2%,52.9%);fill-opacity:1.0">Spanish</text></g><g transform="translate(467.74,560.91)rotate(0)"><text x="5.00" y="3.07" style="fill:rgb(87.1%,72.2%,52.9%);fill-opacity:1.0">Portuguese</text></g><g transform="translate(467.73,548.86)rotate(0)"><text x="5.00" y="3.07" style="fill:rgb(87.1%,72.2%,52.9%);fill-opacity:1.0">Catalan</text></g><g transform="translate(467.73,536.80)rotate(0)"><text x="5.00" y="3.07" style="fill:rgb(87.1%,72.2%,52.9%);fill-opacity:1.0">Romanian</text></g><g transform="translate(467.74,524.75)rotate(0)"><text x="5.00" y="3.07" style="fill:rgb(87.1%,72.2%,52.9%);fill-opacity:1.0">Cagliari</text></g><g transform="translate(467.74,512.70)rotate(0)"><text x="5.00" y="3.07" style="fill:rgb(87.1%,72.2%,52.9%);fill-opacity:1.0">Nuorese</text></g><g transform="translate(322.93,500.65)rotate(0)"><text x="5.00" y="3.07" style="fill:rgb(87.1%,72.2%,52.9%);fill-opacity:1.0">Latin</text></g><g transform="translate(467.73,488.60)rotate(0)"><text x="5.00" y="3.07" style="fill:rgb(73.7%,56.1%,56.1%);fill-opacity:1.0">Scots Gaelic</text></g><g transform="translate(467.73,476.54)rotate(0)"><text x="5.00" y="3.07" style="fill:rgb(73.7%,56.1%,56.1%);fill-opacity:1.0">Irish</text></g><g transform="translate(384.65,464.49)rotate(0)"><text x="5.00" y="3.07" style="fill:rgb(73.7%,56.1%,56.1%);fill-opacity:1.0">Old Irish</text></g><g transform="translate(467.75,452.44)rotate(0)"><text x="5.00" y="3.07" style="fill:rgb(60.4%,80.4%,19.6%);fill-opacity:1.0">Swiss German</text></g><g transform="translate(467.75,440.39)rotate(0)"><text x="5.00" y="3.07" style="fill:rgb(60.4%,80.4%,19.6%);fill-opacity:1.0">Luxembourgish</text></g><g transform="translate(467.75,428.34)rotate(0)"><text x="5.00" y="3.07" style="fill:rgb(60.4%,80.4%,19.6%);fill-opacity:1.0">German</text></g><g transform="translate(399.28,416.29)rotate(0)"><text x="5.00" y="3.07" style="fill:rgb(60.4%,80.4%,19.6%);fill-opacity:1.0">Old High German</text></g><g transform="translate(467.75,404.23)rotate(0)"><text x="5.00" y="3.07" style="fill:rgb(60.4%,80.4%,19.6%);fill-opacity:1.0">English</text></g><g transform="translate(404.10,392.18)rotate(0)"><text x="5.00" y="3.07" style="fill:rgb(60.4%,80.4%,19.6%);fill-opacity:1.0">Old English</text></g><g transform="translate(467.75,380.13)rotate(0)"><text x="5.00" y="3.07" style="fill:rgb(60.4%,80.4%,19.6%);fill-opacity:1.0">Icelandic</text></g><g transform="translate(467.75,368.08)rotate(0)"><text x="5.00" y="3.07" style="fill:rgb(60.4%,80.4%,19.6%);fill-opacity:1.0">Faroese</text></g><g transform="translate(467.75,356.03)rotate(0)"><text x="5.00" y="3.07" style="fill:rgb(60.4%,80.4%,19.6%);fill-opacity:1.0">Norwegian</text></g><g transform="translate(413.52,343.97)rotate(0)"><text x="5.00" y="3.07" style="fill:rgb(60.4%,80.4%,19.6%);fill-opacity:1.0">Old West Norse</text></g><g transform="translate(356.36,331.92)rotate(0)"><text x="5.00" y="3.07" style="fill:rgb(60.4%,80.4%,19.6%);fill-opacity:1.0">Gothic</text></g><g transform="translate(401.72,319.87)rotate(0)"><text x="5.00" y="3.07" style="fill:rgb(23.5%,70.2%,44.3%);fill-opacity:1.0">Old Church Slavic</text></g><g transform="translate(467.74,307.82)rotate(0)"><text x="5.00" y="3.07" style="fill:rgb(57.6%,43.9%,85.9%);fill-opacity:1.0">Panjabi</text></g><g transform="translate(467.74,295.77)rotate(0)"><text x="5.00" y="3.07" style="fill:rgb(57.6%,43.9%,85.9%);fill-opacity:1.0">Lahnda</text></g><g transform="translate(467.74,283.71)rotate(0)"><text x="5.00" y="3.07" style="fill:rgb(57.6%,43.9%,85.9%);fill-opacity:1.0">Urdu</text></g><g transform="translate(467.74,271.66)rotate(0)"><text x="5.00" y="3.07" style="fill:rgb(57.6%,43.9%,85.9%);fill-opacity:1.0">Hindi</text></g><g transform="translate(467.73,259.61)rotate(0)"><text x="5.00" y="3.07" style="fill:rgb(57.6%,43.9%,85.9%);fill-opacity:1.0">Bihari</text></g><g transform="translate(467.73,247.56)rotate(0)"><text x="5.00" y="3.07" style="fill:rgb(57.6%,43.9%,85.9%);fill-opacity:1.0">Gujarati</text></g><g transform="translate(467.73,235.51)rotate(0)"><text x="5.00" y="3.07" style="fill:rgb(57.6%,43.9%,85.9%);fill-opacity:1.0">Marathi</text></g><g transform="translate(467.73,223.46)rotate(0)"><text x="5.00" y="3.07" style="fill:rgb(57.6%,43.9%,85.9%);fill-opacity:1.0">Oriya</text></g><g transform="translate(467.73,211.40)rotate(0)"><text x="5.00" y="3.07" style="fill:rgb(57.6%,43.9%,85.9%);fill-opacity:1.0">Assamese</text></g><g transform="translate(467.73,199.35)rotate(0)"><text x="5.00" y="3.07" style="fill:rgb(57.6%,43.9%,85.9%);fill-opacity:1.0">Bengali</text></g><g transform="translate(467.73,187.30)rotate(0)"><text x="5.00" y="3.07" style="fill:rgb(57.6%,43.9%,85.9%);fill-opacity:1.0">Nepali</text></g><g transform="translate(467.73,175.25)rotate(0)"><text x="5.00" y="3.07" style="fill:rgb(57.6%,43.9%,85.9%);fill-opacity:1.0">Kashmiri</text></g><g transform="translate(467.73,163.20)rotate(0)"><text x="5.00" y="3.07" style="fill:rgb(57.6%,43.9%,85.9%);fill-opacity:1.0">Romani</text></g><g transform="translate(467.73,151.14)rotate(0)"><text x="5.00" y="3.07" style="fill:rgb(57.6%,43.9%,85.9%);fill-opacity:1.0">Singhalese</text></g><g transform="translate(243.74,139.09)rotate(0)"><text x="5.00" y="3.07" style="fill:rgb(57.6%,43.9%,85.9%);fill-opacity:1.0">Vedic Sanskrit</text></g><g transform="translate(302.82,127.04)rotate(0)"><text x="5.00" y="3.07" style="fill:rgb(46.7%,53.3%,60%);fill-opacity:1.0">Avestan</text></g><g transform="translate(467.73,114.99)rotate(0)"><text x="5.00" y="3.07" style="fill:rgb(27.5%,51%,70.6%);fill-opacity:1.0">Eastern Armenian</text></g><g transform="translate(467.73,102.94)rotate(0)"><text x="5.00" y="3.07" style="fill:rgb(27.5%,51%,70.6%);fill-opacity:1.0">Adapazar</text></g><g transform="translate(365.69,90.88)rotate(0)"><text x="5.00" y="3.07" style="fill:rgb(27.5%,51%,70.6%);fill-opacity:1.0">Classical Armenian</text></g><g transform="translate(467.74,78.83)rotate(0)"><text x="5.00" y="3.07" style="fill:rgb(12.5%,69.8%,66.7%);fill-opacity:1.0">Modern Greek</text></g><g transform="translate(301.19,66.78)rotate(0)"><text x="5.00" y="3.07" style="fill:rgb(12.5%,69.8%,66.7%);fill-opacity:1.0">Ancient Greek</text></g><g transform="translate(376.74,54.73)rotate(0)"><text x="5.00" y="3.07" style="fill:rgb(91.4%,58.8%,47.8%);fill-opacity:1.0">Tocharian B</text></g><g transform="translate(231.20,42.68)rotate(0)"><text x="5.00" y="3.07" style="fill:rgb(54.5%,27.1%,7.45%);fill-opacity:1.0">Hittite</text></g></g></g></g><g class="toyplot-coordinates-Axis" id="ta9da1bbe111a4fb8b2b84be6ef6379c0" transform="translate(0.0,30.0)translate(0,-5.0)"><g><g transform="translate(467.7480658587592,-6)"><text x="-2.78" y="-4.440892098500626e-16" style="fill:rgb(16.1%,15.3%,14.1%);fill-opacity:1.0;font-family:helvetica;font-size:10.0px;font-weight:normal;stroke:none;vertical-align:baseline;white-space:pre">0</text></g><g transform="translate(434.33748972599074,-6)"><text x="-8.34" y="-4.440892098500626e-16" style="fill:rgb(16.1%,15.3%,14.1%);fill-opacity:1.0;font-family:helvetica;font-size:10.0px;font-weight:normal;stroke:none;vertical-align:baseline;white-space:pre">500</text></g><g transform="translate(400.9269135932222,-6)"><text x="-11.12" y="-4.440892098500626e-16" style="fill:rgb(16.1%,15.3%,14.1%);fill-opacity:1.0;font-family:helvetica;font-size:10.0px;font-weight:normal;stroke:none;vertical-align:baseline;white-space:pre">1000</text></g><g transform="translate(367.5163374604537,-6)"><text x="-11.12" y="-4.440892098500626e-16" style="fill:rgb(16.1%,15.3%,14.1%);fill-opacity:1.0;font-family:helvetica;font-size:10.0px;font-weight:normal;stroke:none;vertical-align:baseline;white-space:pre">1500</text></g><g transform="translate(334.1057613276852,-6)"><text x="-11.12" y="-4.440892098500626e-16" style="fill:rgb(16.1%,15.3%,14.1%);fill-opacity:1.0;font-family:helvetica;font-size:10.0px;font-weight:normal;stroke:none;vertical-align:baseline;white-space:pre">2000</text></g><g transform="translate(300.69518519491663,-6)"><text x="-11.12" y="-4.440892098500626e-16" style="fill:rgb(16.1%,15.3%,14.1%);fill-opacity:1.0;font-family:helvetica;font-size:10.0px;font-weight:normal;stroke:none;vertical-align:baseline;white-space:pre">2500</text></g><g transform="translate(267.28460906214815,-6)"><text x="-11.12" y="-4.440892098500626e-16" style="fill:rgb(16.1%,15.3%,14.1%);fill-opacity:1.0;font-family:helvetica;font-size:10.0px;font-weight:normal;stroke:none;vertical-align:baseline;white-space:pre">3000</text></g><g transform="translate(233.8740329293796,-6)"><text x="-11.12" y="-4.440892098500626e-16" style="fill:rgb(16.1%,15.3%,14.1%);fill-opacity:1.0;font-family:helvetica;font-size:10.0px;font-weight:normal;stroke:none;vertical-align:baseline;white-space:pre">3500</text></g><g transform="translate(200.4634567966111,-6)"><text x="-11.12" y="-4.440892098500626e-16" style="fill:rgb(16.1%,15.3%,14.1%);fill-opacity:1.0;font-family:helvetica;font-size:10.0px;font-weight:normal;stroke:none;vertical-align:baseline;white-space:pre">4000</text></g><g transform="translate(167.0528806638426,-6)"><text x="-11.12" y="-4.440892098500626e-16" style="fill:rgb(16.1%,15.3%,14.1%);fill-opacity:1.0;font-family:helvetica;font-size:10.0px;font-weight:normal;stroke:none;vertical-align:baseline;white-space:pre">4500</text></g><g transform="translate(133.64230453107407,-6)"><text x="-11.12" y="-4.440892098500626e-16" style="fill:rgb(16.1%,15.3%,14.1%);fill-opacity:1.0;font-family:helvetica;font-size:10.0px;font-weight:normal;stroke:none;vertical-align:baseline;white-space:pre">5000</text></g><g transform="translate(100.23172839830555,-6)"><text x="-11.12" y="-4.440892098500626e-16" style="fill:rgb(16.1%,15.3%,14.1%);fill-opacity:1.0;font-family:helvetica;font-size:10.0px;font-weight:normal;stroke:none;vertical-align:baseline;white-space:pre">5500</text></g><g transform="translate(66.82115226553704,-6)"><text x="-11.12" y="-4.440892098500626e-16" style="fill:rgb(16.1%,15.3%,14.1%);fill-opacity:1.0;font-family:helvetica;font-size:10.0px;font-weight:normal;stroke:none;vertical-align:baseline;white-space:pre">6000</text></g><g transform="translate(33.41057613276852,-6)"><text x="-11.12" y="-4.440892098500626e-16" style="fill:rgb(16.1%,15.3%,14.1%);fill-opacity:1.0;font-family:helvetica;font-size:10.0px;font-weight:normal;stroke:none;vertical-align:baseline;white-space:pre">6500</text></g></g><g class="toyplot-coordinates-Axis-coordinates" style="visibility:hidden" transform=""><line x1="0" x2="0" y1="3.0" y2="-4.5" style="stroke:rgb(43.9%,50.2%,56.5%);stroke-opacity:1.0;stroke-width:1.0" /><text x="0" y="6" style="alignment-baseline:hanging;fill:rgb(43.9%,50.2%,56.5%);fill-opacity:1.0;font-size:10px;font-weight:normal;stroke:none;text-anchor:middle" /></g></g></g><g class="toyplot-mark-Text" id="t2ab7d2bdce8441b8bb286c905c0e0ffe"><g class="toyplot-Series"><g class="toyplot-Datum" transform="translate(150.0,650.0)"><text x="-106.56" y="4.599" style="fill:rgb(16.1%,15.3%,14.1%);fill-opacity:1.0;font-family:helvetica;font-size:18.0px;font-weight:normal;opacity:1;stroke:none;vertical-align:baseline;white-space:pre">Root Age: 6745 years B.P.</text></g></g></g></svg>