<svg class="toyplot-canvas-Canvas" xmlns:toyplot="http://www.sandia.gov/toyplot" xmlns:xlink="http://www.w3.org/1999/xlink" xmlns="http://www.w3.org/2000/svg" width="1000.0px" height="1050.0px" viewBox="0 0 1000.0 1050.0" preserveAspectRatio="xMidYMid meet" style="background-color:transparent;border-color:#292724;border-style:none;border-width:1.0;fill:rgb(16.1%,15.3%,14.1%);fill-opacity:1.0;font-family:Helvetica;font-size:12px;opacity:1.0;stroke:rgb(16.1%,15.3%,14.1%);stroke-opacity:1.0;stroke-width:1.0" id="t7c1d88977df7441bac0275d221803553"><g class="toyplot-coordinates-Cartesian" id="t8ad2f83882c3447aaa996b8a8963c50c"><clipPath id="tab4930ab35964261aadf576a753b0892"><rect x="-5.0" y="25.0" width="1010.0" height="1000.0" /></clipPath><g clip-path="url(#tab4930ab35964261aadf576a753b0892)"><g class="toyplot-mark-AxisLines" style="stroke:rgb(82.7%,82.7%,82.7%);stroke-dasharray:8,10;stroke-opacity:1.0" id="tf7527a4c8ae3492e8c02c82b6f7998c1"><g class="toyplot-Series"><line class="toyplot-Datum" x1="857.8468971374963" x2="857.8468971374963" y1="30.0" y2="1020.0" style="opacity:1.0;stroke:rgb(82.7%,82.7%,82.7%);stroke-dasharray:8,10;stroke-opacity:1.0" /><line class="toyplot-Datum" x1="807.3853149529376" x2="807.3853149529376" y1="30.0" y2="1020.0" style="opacity:1.0;stroke:rgb(82.7%,82.7%,82.7%);stroke-dasharray:8,10;stroke-opacity:1.0" /><line class="toyplot-Datum" x1="756.923732768379" x2="756.923732768379" y1="30.0" y2="1020.0" style="opacity:1.0;stroke:rgb(82.7%,82.7%,82.7%);stroke-dasharray:8,10;stroke-opacity:1.0" /><line class="toyplot-Datum" x1="706.4621505838204" x2="706.4621505838204" y1="30.0" y2="1020.0" style="opacity:1.0;stroke:rgb(82.7%,82.7%,82.7%);stroke-dasharray:8,10;stroke-opacity:1.0" /><line class="toyplot-Datum" x1="656.0005683992619" x2="656.0005683992619" y1="30.0" y2="1020.0" style="opacity:1.0;stroke:rgb(82.7%,82.7%,82.7%);stroke-dasharray:8,10;stroke-opacity:1.0" /><line class="toyplot-Datum" x1="605.5389862147033" x2="605.5389862147033" y1="30.0" y2="1020.0" style="opacity:1.0;stroke:rgb(82.7%,82.7%,82.7%);stroke-dasharray:8,10;stroke-opacity:1.0" /><line class="toyplot-Datum" x1="555.0774040301446" x2="555.0774040301446" y1="30.0" y2="1020.0" style="opacity:1.0;stroke:rgb(82.7%,82.7%,82.7%);stroke-dasharray:8,10;stroke-opacity:1.0" /><line class="toyplot-Datum" x1="504.6158218455861" x2="504.6158218455861" y1="30.0" y2="1020.0" style="opacity:1.0;stroke:rgb(82.7%,82.7%,82.7%);stroke-dasharray:8,10;stroke-opacity:1.0" /><line class="toyplot-Datum" x1="454.1542396610274" x2="454.1542396610274" y1="30.0" y2="1020.0" style="opacity:1.0;stroke:rgb(82.7%,82.7%,82.7%);stroke-dasharray:8,10;stroke-opacity:1.0" /><line class="toyplot-Datum" x1="403.6926574764688" x2="403.6926574764688" y1="30.0" y2="1020.0" style="opacity:1.0;stroke:rgb(82.7%,82.7%,82.7%);stroke-dasharray:8,10;stroke-opacity:1.0" /><line class="toyplot-Datum" x1="353.2310752919102" x2="353.2310752919102" y1="30.0" y2="1020.0" style="opacity:1.0;stroke:rgb(82.7%,82.7%,82.7%);stroke-dasharray:8,10;stroke-opacity:1.0" /><line class="toyplot-Datum" x1="302.76949310735165" x2="302.76949310735165" y1="30.0" y2="1020.0" style="opacity:1.0;stroke:rgb(82.7%,82.7%,82.7%);stroke-dasharray:8,10;stroke-opacity:1.0" /><line class="toyplot-Datum" x1="252.30791092279304" x2="252.30791092279304" y1="30.0" y2="1020.0" style="opacity:1.0;stroke:rgb(82.7%,82.7%,82.7%);stroke-dasharray:8,10;stroke-opacity:1.0" /><line class="toyplot-Datum" x1="201.8463287382344" x2="201.8463287382344" y1="30.0" y2="1020.0" style="opacity:1.0;stroke:rgb(82.7%,82.7%,82.7%);stroke-dasharray:8,10;stroke-opacity:1.0" /><line class="toyplot-Datum" x1="151.38474655367582" x2="151.38474655367582" y1="30.0" y2="1020.0" style="opacity:1.0;stroke:rgb(82.7%,82.7%,82.7%);stroke-dasharray:8,10;stroke-opacity:1.0" /><line class="toyplot-Datum" x1="100.9231643691172" x2="100.9231643691172" y1="30.0" y2="1020.0" style="opacity:1.0;stroke:rgb(82.7%,82.7%,82.7%);stroke-dasharray:8,10;stroke-opacity:1.0" /><line class="toyplot-Datum" x1="50.4615821845586" x2="50.4615821845586" y1="30.0" y2="1020.0" style="opacity:1.0;stroke:rgb(82.7%,82.7%,82.7%);stroke-dasharray:8,10;stroke-opacity:1.0" /></g></g><g class="toytree-mark-Toytree" id="td87319c785db40d5abae9a4ea55f5735"><g class="toytree-Edges" style="fill:none;stroke:rgb(50.2%,50.2%,50.2%);stroke-linecap:round;stroke-opacity:1;stroke-width:2"><path d="M 156.6 109.6 L 156.6 176.3 L 231.2 176.3" id="162,161" /><path d="M 231.2 176.3 L 231.2 297.8 L 264.9 297.8" id="161,160" /><path d="M 264.9 297.8 L 264.9 91.2 L 373.5 91.2" id="160,159" /><path d="M 264.9 297.8 L 264.9 504.4 L 311.5 504.4" id="160,158" /><path d="M 373.5 91.2 L 373.5 72.6 L 784.4 72.6" id="159,157" style="stroke:rgb(28.2%,82%,80%);stroke-opacity:1.0" /><path d="M 373.5 91.2 L 373.5 109.8 L 468.8 109.8" id="159,156" /><path d="M 311.5 504.4 L 311.5 281.2 L 335.7 281.2" id="158,155" /><path d="M 311.5 504.4 L 311.5 727.6 L 402.1 727.6" id="158,154" /><path d="M 468.8 109.8 L 468.8 96.4 L 610.7 96.4" id="156,153" style="stroke:rgb(12.5%,69.8%,66.7%);stroke-opacity:1.0" /><path d="M 468.8 109.8 L 468.8 123.2 L 713.6 123.2" id="156,152" style="stroke:rgb(27.5%,51%,70.6%);stroke-opacity:1.0" /><path d="M 335.7 281.2 L 335.7 189.4 L 548.4 189.4" id="155,151" /><path d="M 335.7 281.2 L 335.7 372.9 L 428.5 372.9" id="155,150" /><path d="M 402.1 727.6 L 402.1 615.4 L 622.4 615.4" id="154,149" style="stroke:rgb(60.4%,80.4%,19.6%);stroke-opacity:1.0" /><path d="M 402.1 727.6 L 402.1 839.8 L 455.0 839.8" id="154,148" /><path d="M 713.6 123.2 L 713.6 132.1 L 804.7 132.1" id="152,147" style="stroke:rgb(27.5%,51%,70.6%);stroke-opacity:1.0" /><path d="M 548.4 189.4 L 548.4 156.0 L 735.7 156.0" id="151,146" style="stroke:rgb(42%,55.7%,13.7%);stroke-opacity:1.0" /><path d="M 548.4 189.4 L 548.4 222.9 L 707.4 222.9" id="151,145" style="stroke:rgb(23.5%,70.2%,44.3%);stroke-opacity:1.0" /><path d="M 428.5 372.9 L 428.5 330.4 L 563.9 330.4" id="150,144" style="stroke:rgb(46.7%,53.3%,60%);stroke-opacity:1.0" /><path d="M 428.5 372.9 L 428.5 415.4 L 521.8 415.4" id="150,143" style="stroke:rgb(57.6%,43.9%,85.9%);stroke-opacity:1.0" /><path d="M 622.4 615.4 L 622.4 652.2 L 677.4 652.2" id="149,142" style="stroke:rgb(60.4%,80.4%,19.6%);stroke-opacity:1.0" /><path d="M 455.0 839.8 L 455.0 807.7 L 613.9 807.7" id="148,141" style="stroke:rgb(73.7%,56.1%,56.1%);stroke-opacity:1.0" /><path d="M 455.0 839.8 L 455.0 871.8 L 640.8 871.8" id="148,140" style="stroke:rgb(87.1%,72.2%,52.9%);stroke-opacity:1.0" /><path d="M 707.4 222.9 L 707.4 185.0 L 722.2 185.0" id="145,139" style="stroke:rgb(23.5%,70.2%,44.3%);stroke-opacity:1.0" /><path d="M 707.4 222.9 L 707.4 260.9 L 746.5 260.9" id="145,138" style="stroke:rgb(23.5%,70.2%,44.3%);stroke-opacity:1.0" /><path d="M 563.9 330.4 L 563.9 344.2 L 644.4 344.2" id="144,137" style="stroke:rgb(46.7%,53.3%,60%);stroke-opacity:1.0" /><path d="M 521.8 415.4 L 521.8 430.9 L 609.6 430.9" id="143,136" style="stroke:rgb(57.6%,43.9%,85.9%);stroke-opacity:1.0" /><path d="M 677.4 652.2 L 677.4 610.6 L 734.0 610.6" id="142,135" style="stroke:rgb(60.4%,80.4%,19.6%);stroke-opacity:1.0" /><path d="M 677.4 652.2 L 677.4 693.9 L 696.0 693.9" id="142,134" style="stroke:rgb(60.4%,80.4%,19.6%);stroke-opacity:1.0" /><path d="M 613.9 807.7 L 613.9 789.9 L 715.7 789.9" id="141,133" style="stroke:rgb(73.7%,56.1%,56.1%);stroke-opacity:1.0" /><path d="M 613.9 807.7 L 613.9 825.6 L 733.3 825.6" id="141,132" style="stroke:rgb(73.7%,56.1%,56.1%);stroke-opacity:1.0" /><path d="M 640.8 871.8 L 640.8 891.2 L 701.6 891.2" id="140,131" style="stroke:rgb(87.1%,72.2%,52.9%);stroke-opacity:1.0" /><path d="M 722.2 185.0 L 722.2 196.1 L 746.8 196.1" id="139,130" style="stroke:rgb(23.5%,70.2%,44.3%);stroke-opacity:1.0" /><path d="M 746.5 260.9 L 746.5 242.3 L 771.9 242.3" id="138,129" style="stroke:rgb(23.5%,70.2%,44.3%);stroke-opacity:1.0" /><path d="M 746.5 260.9 L 746.5 279.5 L 761.2 279.5" id="138,128" style="stroke:rgb(23.5%,70.2%,44.3%);stroke-opacity:1.0" /><path d="M 644.4 344.2 L 644.4 359.8 L 707.7 359.8" id="137,127" style="stroke:rgb(46.7%,53.3%,60%);stroke-opacity:1.0" /><path d="M 609.6 430.9 L 609.6 449.8 L 639.6 449.8" id="136,126" style="stroke:rgb(57.6%,43.9%,85.9%);stroke-opacity:1.0" /><path d="M 734.0 610.6 L 734.0 596.4 L 798.1 596.4" id="135,125" style="stroke:rgb(60.4%,80.4%,19.6%);stroke-opacity:1.0" /><path d="M 734.0 610.6 L 734.0 624.7 L 777.0 624.7" id="135,124" style="stroke:rgb(60.4%,80.4%,19.6%);stroke-opacity:1.0" /><path d="M 696.0 693.9 L 696.0 667.9 L 756.8 667.9" id="134,123" style="stroke:rgb(60.4%,80.4%,19.6%);stroke-opacity:1.0" /><path d="M 696.0 693.9 L 696.0 719.9 L 726.1 719.9" id="134,122" style="stroke:rgb(60.4%,80.4%,19.6%);stroke-opacity:1.0" /><path d="M 715.7 789.9 L 715.7 798.8 L 770.3 798.8" id="133,121" style="stroke:rgb(73.7%,56.1%,56.1%);stroke-opacity:1.0" /><path d="M 733.3 825.6 L 733.3 834.5 L 764.8 834.5" id="132,120" style="stroke:rgb(73.7%,56.1%,56.1%);stroke-opacity:1.0" /><path d="M 701.6 891.2 L 701.6 870.2 L 791.7 870.2" id="131,119" style="stroke:rgb(87.1%,72.2%,52.9%);stroke-opacity:1.0" /><path d="M 701.6 891.2 L 701.6 912.1 L 717.9 912.1" id="131,118" style="stroke:rgb(87.1%,72.2%,52.9%);stroke-opacity:1.0" /><path d="M 746.8 196.1 L 746.8 206.5 L 778.3 206.5" id="130,117" style="stroke:rgb(23.5%,70.2%,44.3%);stroke-opacity:1.0" /><path d="M 771.9 242.3 L 771.9 251.2 L 808.2 251.2" id="129,116" style="stroke:rgb(23.5%,70.2%,44.3%);stroke-opacity:1.0" /><path d="M 761.2 279.5 L 761.2 289.9 L 793.9 289.9" id="128,115" style="stroke:rgb(23.5%,70.2%,44.3%);stroke-opacity:1.0" /><path d="M 707.7 359.8 L 707.7 346.4 L 788.9 346.4" id="127,114" style="stroke:rgb(46.7%,53.3%,60%);stroke-opacity:1.0" /><path d="M 707.7 359.8 L 707.7 373.2 L 733.1 373.2" id="127,113" style="stroke:rgb(46.7%,53.3%,60%);stroke-opacity:1.0" /><path d="M 639.6 449.8 L 639.6 429.8 L 691.5 429.8" id="126,112" style="stroke:rgb(57.6%,43.9%,85.9%);stroke-opacity:1.0" /><path d="M 639.6 449.8 L 639.6 469.8 L 684.8 469.8" id="126,111" style="stroke:rgb(57.6%,43.9%,85.9%);stroke-opacity:1.0" /><path d="M 777.0 624.7 L 777.0 635.1 L 809.0 635.1" id="124,110" style="stroke:rgb(60.4%,80.4%,19.6%);stroke-opacity:1.0" /><path d="M 726.1 719.9 L 726.1 696.1 L 752.2 696.1" id="122,109" style="stroke:rgb(60.4%,80.4%,19.6%);stroke-opacity:1.0" /><path d="M 726.1 719.9 L 726.1 743.8 L 787.8 743.8" id="122,108" style="stroke:rgb(60.4%,80.4%,19.6%);stroke-opacity:1.0" /><path d="M 717.9 912.1 L 717.9 936.1 L 732.8 936.1" id="118,107" style="stroke:rgb(87.1%,72.2%,52.9%);stroke-opacity:1.0" /><path d="M 778.3 206.5 L 778.3 215.5 L 803.9 215.5" id="117,106" style="stroke:rgb(23.5%,70.2%,44.3%);stroke-opacity:1.0" /><path d="M 793.9 289.9 L 793.9 298.8 L 822.3 298.8" id="115,105" style="stroke:rgb(23.5%,70.2%,44.3%);stroke-opacity:1.0" /><path d="M 733.1 373.2 L 733.1 382.1 L 815.0 382.1" id="113,104" style="stroke:rgb(46.7%,53.3%,60%);stroke-opacity:1.0" /><path d="M 684.8 469.8 L 684.8 492.1 L 708.9 492.1" id="111,103" style="stroke:rgb(57.6%,43.9%,85.9%);stroke-opacity:1.0" /><path d="M 809.0 635.1 L 809.0 644.0 L 819.8 644.0" id="110,102" style="stroke:rgb(60.4%,80.4%,19.6%);stroke-opacity:1.0" /><path d="M 752.2 696.1 L 752.2 706.5 L 815.0 706.5" id="109,101" style="stroke:rgb(60.4%,80.4%,19.6%);stroke-opacity:1.0" /><path d="M 787.8 743.8 L 787.8 754.2 L 818.0 754.2" id="108,100" style="stroke:rgb(60.4%,80.4%,19.6%);stroke-opacity:1.0" /><path d="M 732.8 936.1 L 732.8 908.9 L 769.5 908.9" id="107,99" style="stroke:rgb(87.1%,72.2%,52.9%);stroke-opacity:1.0" /><path d="M 732.8 936.1 L 732.8 963.2 L 749.5 963.2" id="107,98" style="stroke:rgb(87.1%,72.2%,52.9%);stroke-opacity:1.0" /><path d="M 708.9 492.1 L 708.9 468.5 L 749.8 468.5" id="103,97" style="stroke:rgb(57.6%,43.9%,85.9%);stroke-opacity:1.0" /><path d="M 708.9 492.1 L 708.9 515.7 L 723.7 515.7" id="103,96" style="stroke:rgb(57.6%,43.9%,85.9%);stroke-opacity:1.0" /><path d="M 815.0 706.5 L 815.0 715.5 L 829.9 715.5" id="101,95" style="stroke:rgb(60.4%,80.4%,19.6%);stroke-opacity:1.0" /><path d="M 818.0 754.2 L 818.0 763.1 L 830.9 763.1" id="100,94" style="stroke:rgb(60.4%,80.4%,19.6%);stroke-opacity:1.0" /><path d="M 769.5 908.9 L 769.5 917.9 L 807.0 917.9" id="99,93" style="stroke:rgb(87.1%,72.2%,52.9%);stroke-opacity:1.0" /><path d="M 749.5 963.2 L 749.5 944.6 L 791.1 944.6" id="98,92" style="stroke:rgb(87.1%,72.2%,52.9%);stroke-opacity:1.0" /><path d="M 749.5 963.2 L 749.5 981.8 L 767.1 981.8" id="98,91" style="stroke:rgb(87.1%,72.2%,52.9%);stroke-opacity:1.0" /><path d="M 749.8 468.5 L 749.8 477.4 L 789.0 477.4" id="97,90" style="stroke:rgb(57.6%,43.9%,85.9%);stroke-opacity:1.0" /><path d="M 723.7 515.7 L 723.7 501.2 L 775.2 501.2" id="96,89" style="stroke:rgb(57.6%,43.9%,85.9%);stroke-opacity:1.0" /><path d="M 723.7 515.7 L 723.7 530.2 L 751.1 530.2" id="96,88" style="stroke:rgb(57.6%,43.9%,85.9%);stroke-opacity:1.0" /><path d="M 791.1 944.6 L 791.1 953.6 L 827.9 953.6" id="92,87" style="stroke:rgb(87.1%,72.2%,52.9%);stroke-opacity:1.0" /><path d="M 767.1 981.8 L 767.1 992.3 L 787.9 992.3" id="91,86" style="stroke:rgb(87.1%,72.2%,52.9%);stroke-opacity:1.0" /><path d="M 751.1 530.2 L 751.1 541.4 L 786.4 541.4" id="88,85" style="stroke:rgb(57.6%,43.9%,85.9%);stroke-opacity:1.0" /><path d="M 787.9 992.3 L 787.9 1001.2 L 818.7 1001.2" id="86,84" style="stroke:rgb(87.1%,72.2%,52.9%);stroke-opacity:1.0" /><path d="M 786.4 541.4 L 786.4 551.8 L 807.7 551.8" id="85,83" style="stroke:rgb(57.6%,43.9%,85.9%);stroke-opacity:1.0" /><path d="M 807.7 551.8 L 807.7 560.7 L 828.0 560.7" id="83,82" style="stroke:rgb(57.6%,43.9%,85.9%);stroke-opacity:1.0" /><path d="M 156.6 109.6 L 156.6 42.9 L 499.5 42.9" id="162,81" style="stroke:rgb(54.5%,27.1%,7.45%);stroke-opacity:1.0" /><path d="M 231.2 176.3 L 231.2 54.8 L 721.9 54.8" id="161,80" style="stroke:rgb(91.4%,58.8%,47.8%);stroke-opacity:1.0" /><path d="M 784.4 72.6 L 784.4 66.7 L 857.8 66.7" id="157,79" style="stroke:rgb(28.2%,82%,80%);stroke-opacity:1.0" /><path d="M 784.4 72.6 L 784.4 78.6 L 857.8 78.6" id="157,78" style="stroke:rgb(28.2%,82%,80%);stroke-opacity:1.0" /><path d="M 610.7 96.4 L 610.7 90.5 L 857.8 90.5" id="153,77" style="stroke:rgb(12.5%,69.8%,66.7%);stroke-opacity:1.0" /><path d="M 610.7 96.4 L 610.7 102.4 L 610.7 102.4" id="153,76" style="stroke:rgb(80.4%,36.1%,36.1%);stroke-opacity:1.0" /><path d="M 713.6 123.2 L 713.6 114.3 L 713.6 114.3" id="152,75" style="stroke:rgb(80.4%,36.1%,36.1%);stroke-opacity:1.0" /><path d="M 804.7 132.1 L 804.7 126.2 L 857.8 126.2" id="147,74" style="stroke:rgb(27.5%,51%,70.6%);stroke-opacity:1.0" /><path d="M 804.7 132.1 L 804.7 138.1 L 857.8 138.1" id="147,73" style="stroke:rgb(27.5%,51%,70.6%);stroke-opacity:1.0" /><path d="M 735.7 156.0 L 735.7 150.0 L 857.8 150.0" id="146,72" style="stroke:rgb(42%,55.7%,13.7%);stroke-opacity:1.0" /><path d="M 735.7 156.0 L 735.7 161.9 L 857.8 161.9" id="146,71" style="stroke:rgb(42%,55.7%,13.7%);stroke-opacity:1.0" /><path d="M 722.2 185.0 L 722.2 173.8 L 757.4 173.8" id="139,70" style="stroke:rgb(23.5%,70.2%,44.3%);stroke-opacity:1.0" /><path d="M 746.8 196.1 L 746.8 185.7 L 857.8 185.7" id="130,69" style="stroke:rgb(23.5%,70.2%,44.3%);stroke-opacity:1.0" /><path d="M 778.3 206.5 L 778.3 197.6 L 857.8 197.6" id="117,68" style="stroke:rgb(23.5%,70.2%,44.3%);stroke-opacity:1.0" /><path d="M 803.9 215.5 L 803.9 209.5 L 857.8 209.5" id="106,67" style="stroke:rgb(23.5%,70.2%,44.3%);stroke-opacity:1.0" /><path d="M 803.9 215.5 L 803.9 221.4 L 857.8 221.4" id="106,66" style="stroke:rgb(23.5%,70.2%,44.3%);stroke-opacity:1.0" /><path d="M 771.9 242.3 L 771.9 233.3 L 857.8 233.3" id="129,65" style="stroke:rgb(23.5%,70.2%,44.3%);stroke-opacity:1.0" /><path d="M 808.2 251.2 L 808.2 245.2 L 857.8 245.2" id="116,64" style="stroke:rgb(23.5%,70.2%,44.3%);stroke-opacity:1.0" /><path d="M 808.2 251.2 L 808.2 257.1 L 857.8 257.1" id="116,63" style="stroke:rgb(23.5%,70.2%,44.3%);stroke-opacity:1.0" /><path d="M 761.2 279.5 L 761.2 269.0 L 857.8 269.0" id="128,62" style="stroke:rgb(23.5%,70.2%,44.3%);stroke-opacity:1.0" /><path d="M 793.9 289.9 L 793.9 281.0 L 857.8 281.0" id="115,61" style="stroke:rgb(23.5%,70.2%,44.3%);stroke-opacity:1.0" /><path d="M 822.3 298.8 L 822.3 292.9 L 857.8 292.9" id="105,60" style="stroke:rgb(23.5%,70.2%,44.3%);stroke-opacity:1.0" /><path d="M 822.3 298.8 L 822.3 304.8 L 857.8 304.8" id="105,59" style="stroke:rgb(23.5%,70.2%,44.3%);stroke-opacity:1.0" /><path d="M 563.9 330.4 L 563.9 316.7 L 605.6 316.7" id="144,58" style="stroke:rgb(46.7%,53.3%,60%);stroke-opacity:1.0" /><path d="M 644.4 344.2 L 644.4 328.6 L 857.8 328.6" id="137,57" style="stroke:rgb(46.7%,53.3%,60%);stroke-opacity:1.0" /><path d="M 788.9 346.4 L 788.9 340.5 L 857.8 340.5" id="114,56" style="stroke:rgb(46.7%,53.3%,60%);stroke-opacity:1.0" /><path d="M 788.9 346.4 L 788.9 352.4 L 857.8 352.4" id="114,55" style="stroke:rgb(46.7%,53.3%,60%);stroke-opacity:1.0" /><path d="M 733.1 373.2 L 733.1 364.3 L 857.8 364.3" id="113,54" style="stroke:rgb(46.7%,53.3%,60%);stroke-opacity:1.0" /><path d="M 815.0 382.1 L 815.0 376.2 L 857.8 376.2" id="104,53" style="stroke:rgb(46.7%,53.3%,60%);stroke-opacity:1.0" /><path d="M 815.0 382.1 L 815.0 388.1 L 857.8 388.1" id="104,52" style="stroke:rgb(46.7%,53.3%,60%);stroke-opacity:1.0" /><path d="M 521.8 415.4 L 521.8 400.0 L 521.8 400.0" id="143,51" style="stroke:rgb(80.4%,36.1%,36.1%);stroke-opacity:1.0" /><path d="M 609.6 430.9 L 609.6 411.9 L 857.8 411.9" id="136,50" style="stroke:rgb(57.6%,43.9%,85.9%);stroke-opacity:1.0" /><path d="M 691.5 429.8 L 691.5 423.8 L 857.8 423.8" id="112,49" style="stroke:rgb(57.6%,43.9%,85.9%);stroke-opacity:1.0" /><path d="M 691.5 429.8 L 691.5 435.7 L 857.8 435.7" id="112,48" style="stroke:rgb(57.6%,43.9%,85.9%);stroke-opacity:1.0" /><path d="M 684.8 469.8 L 684.8 447.6 L 857.8 447.6" id="111,47" style="stroke:rgb(57.6%,43.9%,85.9%);stroke-opacity:1.0" /><path d="M 749.8 468.5 L 749.8 459.5 L 857.8 459.5" id="97,46" style="stroke:rgb(57.6%,43.9%,85.9%);stroke-opacity:1.0" /><path d="M 789.0 477.4 L 789.0 471.4 L 857.8 471.4" id="90,45" style="stroke:rgb(57.6%,43.9%,85.9%);stroke-opacity:1.0" /><path d="M 789.0 477.4 L 789.0 483.3 L 857.8 483.3" id="90,44" style="stroke:rgb(57.6%,43.9%,85.9%);stroke-opacity:1.0" /><path d="M 775.2 501.2 L 775.2 495.2 L 857.8 495.2" id="89,43" style="stroke:rgb(57.6%,43.9%,85.9%);stroke-opacity:1.0" /><path d="M 775.2 501.2 L 775.2 507.1 L 857.8 507.1" id="89,42" style="stroke:rgb(57.6%,43.9%,85.9%);stroke-opacity:1.0" /><path d="M 751.1 530.2 L 751.1 519.0 L 857.8 519.0" id="88,41" style="stroke:rgb(57.6%,43.9%,85.9%);stroke-opacity:1.0" /><path d="M 786.4 541.4 L 786.4 531.0 L 857.8 531.0" id="85,40" style="stroke:rgb(57.6%,43.9%,85.9%);stroke-opacity:1.0" /><path d="M 807.7 551.8 L 807.7 542.9 L 857.8 542.9" id="83,39" style="stroke:rgb(57.6%,43.9%,85.9%);stroke-opacity:1.0" /><path d="M 828.0 560.7 L 828.0 554.8 L 857.8 554.8" id="82,38" style="stroke:rgb(57.6%,43.9%,85.9%);stroke-opacity:1.0" /><path d="M 828.0 560.7 L 828.0 566.7 L 857.8 566.7" id="82,37" style="stroke:rgb(57.6%,43.9%,85.9%);stroke-opacity:1.0" /><path d="M 622.4 615.4 L 622.4 578.6 L 691.3 578.6" id="149,36" style="stroke:rgb(60.4%,80.4%,19.6%);stroke-opacity:1.0" /><path d="M 798.1 596.4 L 798.1 590.5 L 857.8 590.5" id="125,35" style="stroke:rgb(60.4%,80.4%,19.6%);stroke-opacity:1.0" /><path d="M 798.1 596.4 L 798.1 602.4 L 857.8 602.4" id="125,34" style="stroke:rgb(60.4%,80.4%,19.6%);stroke-opacity:1.0" /><path d="M 777.0 624.7 L 777.0 614.3 L 777.0 614.3" id="124,33" style="stroke:rgb(80.4%,36.1%,36.1%);stroke-opacity:1.0" /><path d="M 809.0 635.1 L 809.0 626.2 L 857.8 626.2" id="110,32" style="stroke:rgb(60.4%,80.4%,19.6%);stroke-opacity:1.0" /><path d="M 819.8 644.0 L 819.8 638.1 L 857.8 638.1" id="102,31" style="stroke:rgb(60.4%,80.4%,19.6%);stroke-opacity:1.0" /><path d="M 819.8 644.0 L 819.8 650.0 L 857.8 650.0" id="102,30" style="stroke:rgb(60.4%,80.4%,19.6%);stroke-opacity:1.0" /><path d="M 756.8 667.9 L 756.8 661.9 L 756.8 661.9" id="123,29" style="stroke:rgb(80.4%,36.1%,36.1%);stroke-opacity:1.0" /><path d="M 756.8 667.9 L 756.8 673.8 L 857.8 673.8" id="123,28" style="stroke:rgb(60.4%,80.4%,19.6%);stroke-opacity:1.0" /><path d="M 752.2 696.1 L 752.2 685.7 L 752.2 685.7" id="109,27" style="stroke:rgb(80.4%,36.1%,36.1%);stroke-opacity:1.0" /><path d="M 815.0 706.5 L 815.0 697.6 L 857.8 697.6" id="101,26" style="stroke:rgb(60.4%,80.4%,19.6%);stroke-opacity:1.0" /><path d="M 829.9 715.5 L 829.9 709.5 L 857.8 709.5" id="95,25" style="stroke:rgb(60.4%,80.4%,19.6%);stroke-opacity:1.0" /><path d="M 829.9 715.5 L 829.9 721.4 L 857.8 721.4" id="95,24" style="stroke:rgb(60.4%,80.4%,19.6%);stroke-opacity:1.0" /><path d="M 787.8 743.8 L 787.8 733.3 L 857.8 733.3" id="108,23" style="stroke:rgb(60.4%,80.4%,19.6%);stroke-opacity:1.0" /><path d="M 818.0 754.2 L 818.0 745.2 L 857.8 745.2" id="100,22" style="stroke:rgb(60.4%,80.4%,19.6%);stroke-opacity:1.0" /><path d="M 830.9 763.1 L 830.9 757.1 L 857.8 757.1" id="94,21" style="stroke:rgb(60.4%,80.4%,19.6%);stroke-opacity:1.0" /><path d="M 830.9 763.1 L 830.9 769.0 L 857.8 769.0" id="94,20" style="stroke:rgb(60.4%,80.4%,19.6%);stroke-opacity:1.0" /><path d="M 715.7 789.9 L 715.7 781.0 L 857.8 781.0" id="133,19" style="stroke:rgb(73.7%,56.1%,56.1%);stroke-opacity:1.0" /><path d="M 770.3 798.8 L 770.3 792.9 L 857.8 792.9" id="121,18" style="stroke:rgb(73.7%,56.1%,56.1%);stroke-opacity:1.0" /><path d="M 770.3 798.8 L 770.3 804.8 L 822.9 804.8" id="121,17" style="stroke:rgb(73.7%,56.1%,56.1%);stroke-opacity:1.0" /><path d="M 733.3 825.6 L 733.3 816.7 L 733.3 816.7" id="132,16" style="stroke:rgb(80.4%,36.1%,36.1%);stroke-opacity:1.0" /><path d="M 764.8 834.5 L 764.8 828.6 L 857.8 828.6" id="120,15" style="stroke:rgb(73.7%,56.1%,56.1%);stroke-opacity:1.0" /><path d="M 764.8 834.5 L 764.8 840.5 L 857.8 840.5" id="120,14" style="stroke:rgb(73.7%,56.1%,56.1%);stroke-opacity:1.0" /><path d="M 640.8 871.8 L 640.8 852.4 L 640.8 852.4" id="140,13" style="stroke:rgb(80.4%,36.1%,36.1%);stroke-opacity:1.0" /><path d="M 791.7 870.2 L 791.7 864.3 L 857.8 864.3" id="119,12" style="stroke:rgb(87.1%,72.2%,52.9%);stroke-opacity:1.0" /><path d="M 791.7 870.2 L 791.7 876.2 L 857.8 876.2" id="119,11" style="stroke:rgb(87.1%,72.2%,52.9%);stroke-opacity:1.0" /><path d="M 717.9 912.1 L 717.9 888.1 L 857.8 888.1" id="118,10" style="stroke:rgb(87.1%,72.2%,52.9%);stroke-opacity:1.0" /><path d="M 769.5 908.9 L 769.5 900.0 L 857.8 900.0" id="99,9" style="stroke:rgb(87.1%,72.2%,52.9%);stroke-opacity:1.0" /><path d="M 807.0 917.9 L 807.0 911.9 L 857.8 911.9" id="93,8" style="stroke:rgb(87.1%,72.2%,52.9%);stroke-opacity:1.0" /><path d="M 807.0 917.9 L 807.0 923.8 L 857.8 923.8" id="93,7" style="stroke:rgb(87.1%,72.2%,52.9%);stroke-opacity:1.0" /><path d="M 791.1 944.6 L 791.1 935.7 L 857.8 935.7" id="92,6" style="stroke:rgb(87.1%,72.2%,52.9%);stroke-opacity:1.0" /><path d="M 827.9 953.6 L 827.9 947.6 L 857.8 947.6" id="87,5" style="stroke:rgb(87.1%,72.2%,52.9%);stroke-opacity:1.0" /><path d="M 827.9 953.6 L 827.9 959.5 L 857.8 959.5" id="87,4" style="stroke:rgb(87.1%,72.2%,52.9%);stroke-opacity:1.0" /><path d="M 767.1 981.8 L 767.1 971.4 L 857.8 971.4" id="91,3" style="stroke:rgb(87.1%,72.2%,52.9%);stroke-opacity:1.0" /><path d="M 787.9 992.3 L 787.9 983.3 L 857.8 983.3" id="86,2" style="stroke:rgb(87.1%,72.2%,52.9%);stroke-opacity:1.0" /><path d="M 818.7 1001.2 L 818.7 995.2 L 857.8 995.2" id="84,1" style="stroke:rgb(87.1%,72.2%,52.9%);stroke-opacity:1.0" /><path d="M 818.7 1001.2 L 818.7 1007.1 L 857.8 1007.1" id="84,0" style="stroke:rgb(87.1%,72.2%,52.9%);stroke-opacity:1.0" /></g><g class="toytree-TipLabels" style="fill:rgb(14.9%,14.9%,14.9%);fill-opacity:1.0;font-family:helvetica;font-size:12px;font-weight:normal;stroke:none;white-space:pre"><g transform="translate(857.83,1007.14)rotate(0)"><text x="5.00" y="3.07" style="">Friulian</text></g><g transform="translate(857.83,995.24)rotate(0)"><text x="5.00" y="3.07" style="">Romansh</text></g><g transform="translate(857.83,983.33)rotate(0)"><text x="5.00" y="3.07" style="">Ladin</text></g><g transform="translate(857.83,971.43)rotate(0)"><text x="5.00" y="3.07" style="">Italian</text></g><g transform="translate(857.83,959.52)rotate(0)"><text x="5.00" y="3.07" style="">French</text></g><g transform="translate(857.83,947.62)rotate(0)"><text x="5.00" y="3.07" style="">Walloon</text></g><g transform="translate(857.83,935.71)rotate(0)"><text x="5.00" y="3.07" style="">Provencal</text></g><g transform="translate(857.83,923.81)rotate(0)"><text x="5.00" y="3.07" style="">Spanish</text></g><g transform="translate(857.83,911.90)rotate(0)"><text x="5.00" y="3.07" style="">Portuguese</text></g><g transform="translate(857.83,900.00)rotate(0)"><text x="5.00" y="3.07" style="">Catalan</text></g><g transform="translate(857.84,888.10)rotate(0)"><text x="5.00" y="3.07" style="">Romanian</text></g><g transform="translate(857.84,876.19)rotate(0)"><text x="5.00" y="3.07" style="">Cagliari</text></g><g transform="translate(857.84,864.29)rotate(0)"><text x="5.00" y="3.07" style="">Nuorese</text></g><g transform="translate(640.76,852.38)rotate(0)"><text x="5.00" y="3.07" style="">Latin</text></g><g transform="translate(857.84,840.48)rotate(0)"><text x="5.00" y="3.07" style="">Scots Gaelic</text></g><g transform="translate(857.84,828.57)rotate(0)"><text x="5.00" y="3.07" style="">Irish</text></g><g transform="translate(733.35,816.67)rotate(0)"><text x="5.00" y="3.07" style="">Old Irish</text></g><g transform="translate(822.86,804.76)rotate(0)"><text x="5.00" y="3.07" style="">Cornish</text></g><g transform="translate(857.84,792.86)rotate(0)"><text x="5.00" y="3.07" style="">Breton</text></g><g transform="translate(857.84,780.95)rotate(0)"><text x="5.00" y="3.07" style="">Welsh</text></g><g transform="translate(857.84,769.05)rotate(0)"><text x="5.00" y="3.07" style="">Afrikaans</text></g><g transform="translate(857.84,757.14)rotate(0)"><text x="5.00" y="3.07" style="">Flemish</text></g><g transform="translate(857.84,745.24)rotate(0)"><text x="5.00" y="3.07" style="">Dutch</text></g><g transform="translate(857.84,733.33)rotate(0)"><text x="5.00" y="3.07" style="">Frisian</text></g><g transform="translate(857.84,721.43)rotate(0)"><text x="5.00" y="3.07" style="">Swiss German</text></g><g transform="translate(857.84,709.52)rotate(0)"><text x="5.00" y="3.07" style="">Luxembourgish</text></g><g transform="translate(857.84,697.62)rotate(0)"><text x="5.00" y="3.07" style="">German</text></g><g transform="translate(752.20,685.71)rotate(0)"><text x="5.00" y="3.07" style="">Old High German</text></g><g transform="translate(857.84,673.81)rotate(0)"><text x="5.00" y="3.07" style="">English</text></g><g transform="translate(756.84,661.90)rotate(0)"><text x="5.00" y="3.07" style="">Old English</text></g><g transform="translate(857.84,650.00)rotate(0)"><text x="5.00" y="3.07" style="">Faroese</text></g><g transform="translate(857.84,638.10)rotate(0)"><text x="5.00" y="3.07" style="">Icelandic</text></g><g transform="translate(857.84,626.19)rotate(0)"><text x="5.00" y="3.07" style="">Norwegian</text></g><g transform="translate(776.98,614.29)rotate(0)"><text x="5.00" y="3.07" style="">Old West Norse</text></g><g transform="translate(857.84,602.38)rotate(0)"><text x="5.00" y="3.07" style="">Danish</text></g><g transform="translate(857.84,590.48)rotate(0)"><text x="5.00" y="3.07" style="">Swedish</text></g><g transform="translate(691.28,578.57)rotate(0)"><text x="5.00" y="3.07" style="">Gothic</text></g><g transform="translate(857.84,566.67)rotate(0)"><text x="5.00" y="3.07" style="">Lahnda</text></g><g transform="translate(857.84,554.76)rotate(0)"><text x="5.00" y="3.07" style="">Panjabi</text></g><g transform="translate(857.84,542.86)rotate(0)"><text x="5.00" y="3.07" style="">Urdu</text></g><g transform="translate(857.84,530.95)rotate(0)"><text x="5.00" y="3.07" style="">Hindi</text></g><g transform="translate(857.83,519.05)rotate(0)"><text x="5.00" y="3.07" style="">Bihari</text></g><g transform="translate(857.83,507.14)rotate(0)"><text x="5.00" y="3.07" style="">Marathi</text></g><g transform="translate(857.83,495.24)rotate(0)"><text x="5.00" y="3.07" style="">Gujarati</text></g><g transform="translate(857.83,483.33)rotate(0)"><text x="5.00" y="3.07" style="">Assamese</text></g><g transform="translate(857.83,471.43)rotate(0)"><text x="5.00" y="3.07" style="">Oriya</text></g><g transform="translate(857.84,459.52)rotate(0)"><text x="5.00" y="3.07" style="">Bengali</text></g><g transform="translate(857.84,447.62)rotate(0)"><text x="5.00" y="3.07" style="">Nepali</text></g><g transform="translate(857.84,435.71)rotate(0)"><text x="5.00" y="3.07" style="">Singhalese</text></g><g transform="translate(857.84,423.81)rotate(0)"><text x="5.00" y="3.07" style="">Romani</text></g><g transform="translate(857.83,411.90)rotate(0)"><text x="5.00" y="3.07" style="">Kashmiri</text></g><g transform="translate(521.75,400.00)rotate(0)"><text x="5.00" y="3.07" style="">Vedic Sanskrit</text></g><g transform="translate(857.84,388.10)rotate(0)"><text x="5.00" y="3.07" style="">Waziri</text></g><g transform="translate(857.84,376.19)rotate(0)"><text x="5.00" y="3.07" style="">Pashto</text></g><g transform="translate(857.84,364.29)rotate(0)"><text x="5.00" y="3.07" style="">Baluchi</text></g><g transform="translate(857.84,352.38)rotate(0)"><text x="5.00" y="3.07" style="">Tajik</text></g><g transform="translate(857.84,340.48)rotate(0)"><text x="5.00" y="3.07" style="">Persian</text></g><g transform="translate(857.84,328.57)rotate(0)"><text x="5.00" y="3.07" style="">Digor Ossetic</text></g><g transform="translate(605.57,316.67)rotate(0)"><text x="5.00" y="3.07" style="">Avestan</text></g><g transform="translate(857.84,304.76)rotate(0)"><text x="5.00" y="3.07" style="">Czech</text></g><g transform="translate(857.84,292.86)rotate(0)"><text x="5.00" y="3.07" style="">Slovak</text></g><g transform="translate(857.84,280.95)rotate(0)"><text x="5.00" y="3.07" style="">Upper Sorbian</text></g><g transform="translate(857.84,269.05)rotate(0)"><text x="5.00" y="3.07" style="">Polish</text></g><g transform="translate(857.85,257.14)rotate(0)"><text x="5.00" y="3.07" style="">Ukrainian</text></g><g transform="translate(857.85,245.24)rotate(0)"><text x="5.00" y="3.07" style="">Belarusian</text></g><g transform="translate(857.84,233.33)rotate(0)"><text x="5.00" y="3.07" style="">Russian</text></g><g transform="translate(857.85,221.43)rotate(0)"><text x="5.00" y="3.07" style="">Macedonian</text></g><g transform="translate(857.85,209.52)rotate(0)"><text x="5.00" y="3.07" style="">Bulgarian</text></g><g transform="translate(857.85,197.62)rotate(0)"><text x="5.00" y="3.07" style="">Serbian</text></g><g transform="translate(857.85,185.71)rotate(0)"><text x="5.00" y="3.07" style="">Slovenian</text></g><g transform="translate(757.38,173.81)rotate(0)"><text x="5.00" y="3.07" style="">Old Church Slavic</text></g><g transform="translate(857.83,161.90)rotate(0)"><text x="5.00" y="3.07" style="">Latvian</text></g><g transform="translate(857.83,150.00)rotate(0)"><text x="5.00" y="3.07" style="">Lithuanian</text></g><g transform="translate(857.85,138.10)rotate(0)"><text x="5.00" y="3.07" style="">Adapazar</text></g><g transform="translate(857.85,126.19)rotate(0)"><text x="5.00" y="3.07" style="">Eastern Armenian</text></g><g transform="translate(713.58,114.29)rotate(0)"><text x="5.00" y="3.07" style="">Classical Armenian</text></g><g transform="translate(610.68,102.38)rotate(0)"><text x="5.00" y="3.07" style="">Ancient Greek</text></g><g transform="translate(857.84,90.48)rotate(0)"><text x="5.00" y="3.07" style="">Modern Greek</text></g><g transform="translate(857.84,78.57)rotate(0)"><text x="5.00" y="3.07" style="">Tosk</text></g><g transform="translate(857.84,66.67)rotate(0)"><text x="5.00" y="3.07" style="">Arvanitika</text></g><g transform="translate(721.89,54.76)rotate(0)"><text x="5.00" y="3.07" style="">Tocharian B</text></g><g transform="translate(499.49,42.86)rotate(0)"><text x="5.00" y="3.07" style="">Hittite</text></g></g></g></g><g class="toyplot-coordinates-Axis" id="tb6782e2448f64d3b8bcc2d3a8d88ad2c" transform="translate(0.0,30.0)translate(0,-5.0)"><g><g transform="translate(857.8468971374963,-6)"><text x="-2.78" y="-4.440892098500626e-16" style="fill:rgb(16.1%,15.3%,14.1%);fill-opacity:1.0;font-family:helvetica;font-size:10.0px;font-weight:normal;stroke:none;vertical-align:baseline;white-space:pre">0</text></g><g transform="translate(807.3853149529376,-6)"><text x="-8.34" y="-4.440892098500626e-16" style="fill:rgb(16.1%,15.3%,14.1%);fill-opacity:1.0;font-family:helvetica;font-size:10.0px;font-weight:normal;stroke:none;vertical-align:baseline;white-space:pre">500</text></g><g transform="translate(756.923732768379,-6)"><text x="-11.12" y="-4.440892098500626e-16" style="fill:rgb(16.1%,15.3%,14.1%);fill-opacity:1.0;font-family:helvetica;font-size:10.0px;font-weight:normal;stroke:none;vertical-align:baseline;white-space:pre">1000</text></g><g transform="translate(706.4621505838204,-6)"><text x="-11.12" y="-4.440892098500626e-16" style="fill:rgb(16.1%,15.3%,14.1%);fill-opacity:1.0;font-family:helvetica;font-size:10.0px;font-weight:normal;stroke:none;vertical-align:baseline;white-space:pre">1500</text></g><g transform="translate(656.0005683992619,-6)"><text x="-11.12" y="-4.440892098500626e-16" style="fill:rgb(16.1%,15.3%,14.1%);fill-opacity:1.0;font-family:helvetica;font-size:10.0px;font-weight:normal;stroke:none;vertical-align:baseline;white-space:pre">2000</text></g><g transform="translate(605.5389862147033,-6)"><text x="-11.12" y="-4.440892098500626e-16" style="fill:rgb(16.1%,15.3%,14.1%);fill-opacity:1.0;font-family:helvetica;font-size:10.0px;font-weight:normal;stroke:none;vertical-align:baseline;white-space:pre">2500</text></g><g transform="translate(555.0774040301446,-6)"><text x="-11.12" y="-4.440892098500626e-16" style="fill:rgb(16.1%,15.3%,14.1%);fill-opacity:1.0;font-family:helvetica;font-size:10.0px;font-weight:normal;stroke:none;vertical-align:baseline;white-space:pre">3000</text></g><g transform="translate(504.6158218455861,-6)"><text x="-11.12" y="-4.440892098500626e-16" style="fill:rgb(16.1%,15.3%,14.1%);fill-opacity:1.0;font-family:helvetica;font-size:10.0px;font-weight:normal;stroke:none;vertical-align:baseline;white-space:pre">3500</text></g><g transform="translate(454.1542396610274,-6)"><text x="-11.12" y="-4.440892098500626e-16" style="fill:rgb(16.1%,15.3%,14.1%);fill-opacity:1.0;font-family:helvetica;font-size:10.0px;font-weight:normal;stroke:none;vertical-align:baseline;white-space:pre">4000</text></g><g transform="translate(403.6926574764688,-6)"><text x="-11.12" y="-4.440892098500626e-16" style="fill:rgb(16.1%,15.3%,14.1%);fill-opacity:1.0;font-family:helvetica;font-size:10.0px;font-weight:normal;stroke:none;vertical-align:baseline;white-space:pre">4500</text></g><g transform="translate(353.2310752919102,-6)"><text x="-11.12" y="-4.440892098500626e-16" style="fill:rgb(16.1%,15.3%,14.1%);fill-opacity:1.0;font-family:helvetica;font-size:10.0px;font-weight:normal;stroke:none;vertical-align:baseline;white-space:pre">5000</text></g><g transform="translate(302.76949310735165,-6)"><text x="-11.12" y="-4.440892098500626e-16" style="fill:rgb(16.1%,15.3%,14.1%);fill-opacity:1.0;font-family:helvetica;font-size:10.0px;font-weight:normal;stroke:none;vertical-align:baseline;white-space:pre">5500</text></g><g transform="translate(252.30791092279304,-6)"><text x="-11.12" y="-4.440892098500626e-16" style="fill:rgb(16.1%,15.3%,14.1%);fill-opacity:1.0;font-family:helvetica;font-size:10.0px;font-weight:normal;stroke:none;vertical-align:baseline;white-space:pre">6000</text></g><g transform="translate(201.8463287382344,-6)"><text x="-11.12" y="-4.440892098500626e-16" style="fill:rgb(16.1%,15.3%,14.1%);fill-opacity:1.0;font-family:helvetica;font-size:10.0px;font-weight:normal;stroke:none;vertical-align:baseline;white-space:pre">6500</text></g><g transform="translate(151.38474655367582,-6)"><text x="-11.12" y="-4.440892098500626e-16" style="fill:rgb(16.1%,15.3%,14.1%);fill-opacity:1.0;font-family:helvetica;font-size:10.0px;font-weight:normal;stroke:none;vertical-align:baseline;white-space:pre">7000</text></g><g transform="translate(100.9231643691172,-6)"><text x="-11.12" y="-4.440892098500626e-16" style="fill:rgb(16.1%,15.3%,14.1%);fill-opacity:1.0;font-family:helvetica;font-size:10.0px;font-weight:normal;stroke:none;vertical-align:baseline;white-space:pre">7500</text></g><g transform="translate(50.4615821845586,-6)"><text x="-11.12" y="-4.440892098500626e-16" style="fill:rgb(16.1%,15.3%,14.1%);fill-opacity:1.0;font-family:helvetica;font-size:10.0px;font-weight:normal;stroke:none;vertical-align:baseline;white-space:pre">8000</text></g></g><g class="toyplot-coordinates-Axis-coordinates" style="visibility:hidden" transform=""><line x1="0" x2="0" y1="3.0" y2="-4.5" style="stroke:rgb(43.9%,50.2%,56.5%);stroke-opacity:1.0;stroke-width:1.0" /><text x="0" y="6" style="alignment-baseline:hanging;fill:rgb(43.9%,50.2%,56.5%);fill-opacity:1.0;font-size:10px;font-weight:normal;stroke:none;text-anchor:middle" /></g></g></g><g class="toyplot-mark-Text" id="td074b7c8fa1b4697a6c5a45f06cbf827"><g class="toyplot-Series"><g class="toyplot-Datum" transform="translate(150.0,1000.0)"><text x="-106.56" y="4.599" style="fill:rgb(16.1%,15.3%,14.1%);fill-opacity:1.0;font-family:helvetica;font-size:18.0px;font-weight:normal;opacity:1;stroke:none;vertical-align:baseline;white-space:pre">Root Age: 6948 years B.P.</text></g></g></g></svg>