<svg class="toyplot-canvas-Canvas" xmlns:toyplot="http://www.sandia.gov/toyplot" xmlns:xlink="http://www.w3.org/1999/xlink" xmlns="http://www.w3.org/2000/svg" width="600.0px" height="700.0px" viewBox="0 0 600.0 700.0" preserveAspectRatio="xMidYMid meet" style="background-color:transparent;border-color:#292724;border-style:none;border-width:1.0;fill:rgb(16.1%,15.3%,14.1%);fill-opacity:1.0;font-family:Helvetica;font-size:12px;opacity:1.0;stroke:rgb(16.1%,15.3%,14.1%);stroke-opacity:1.0;stroke-width:1.0" id="t4a4c500bf50942c69333e515e689f433"><g class="toyplot-coordinates-Cartesian" id="tf1851002b51141e591ae65e4fb97d8cb"><clipPath id="t654162a8dc404585a2fbb19fbfcc93c5"><rect x="-5.0" y="25.0" width="610.0" height="650.0" /></clipPath><g clip-path="url(#t654162a8dc404585a2fbb19fbfcc93c5)"><g class="toyplot-mark-AxisLines" style="stroke:rgb(82.7%,82.7%,82.7%);stroke-dasharray:8,10;stroke-opacity:1.0" id="t6daf88e03f844388821f0a0b2d4fbe9b"><g class="toyplot-Series"><line class="toyplot-Datum" x1="467.1526988552287" x2="467.1526988552287" y1="30.0" y2="670.0" style="opacity:1.0;stroke:rgb(82.7%,82.7%,82.7%);stroke-dasharray:8,10;stroke-opacity:1.0" /><line class="toyplot-Datum" x1="437.95565517677693" x2="437.95565517677693" y1="30.0" y2="670.0" style="opacity:1.0;stroke:rgb(82.7%,82.7%,82.7%);stroke-dasharray:8,10;stroke-opacity:1.0" /><line class="toyplot-Datum" x1="408.7586114983251" x2="408.7586114983251" y1="30.0" y2="670.0" style="opacity:1.0;stroke:rgb(82.7%,82.7%,82.7%);stroke-dasharray:8,10;stroke-opacity:1.0" /><line class="toyplot-Datum" x1="379.56156781987335" x2="379.56156781987335" y1="30.0" y2="670.0" style="opacity:1.0;stroke:rgb(82.7%,82.7%,82.7%);stroke-dasharray:8,10;stroke-opacity:1.0" /><line class="toyplot-Datum" x1="350.36452414142155" x2="350.36452414142155" y1="30.0" y2="670.0" style="opacity:1.0;stroke:rgb(82.7%,82.7%,82.7%);stroke-dasharray:8,10;stroke-opacity:1.0" /><line class="toyplot-Datum" x1="321.1674804629697" x2="321.1674804629697" y1="30.0" y2="670.0" style="opacity:1.0;stroke:rgb(82.7%,82.7%,82.7%);stroke-dasharray:8,10;stroke-opacity:1.0" /><line class="toyplot-Datum" x1="291.970436784518" x2="291.970436784518" y1="30.0" y2="670.0" style="opacity:1.0;stroke:rgb(82.7%,82.7%,82.7%);stroke-dasharray:8,10;stroke-opacity:1.0" /><line class="toyplot-Datum" x1="262.7733931060662" x2="262.7733931060662" y1="30.0" y2="670.0" style="opacity:1.0;stroke:rgb(82.7%,82.7%,82.7%);stroke-dasharray:8,10;stroke-opacity:1.0" /><line class="toyplot-Datum" x1="233.57634942761436" x2="233.57634942761436" y1="30.0" y2="670.0" style="opacity:1.0;stroke:rgb(82.7%,82.7%,82.7%);stroke-dasharray:8,10;stroke-opacity:1.0" /><line class="toyplot-Datum" x1="204.37930574916254" x2="204.37930574916254" y1="30.0" y2="670.0" style="opacity:1.0;stroke:rgb(82.7%,82.7%,82.7%);stroke-dasharray:8,10;stroke-opacity:1.0" /><line class="toyplot-Datum" x1="175.18226207071078" x2="175.18226207071078" y1="30.0" y2="670.0" style="opacity:1.0;stroke:rgb(82.7%,82.7%,82.7%);stroke-dasharray:8,10;stroke-opacity:1.0" /><line class="toyplot-Datum" x1="145.985218392259" x2="145.985218392259" y1="30.0" y2="670.0" style="opacity:1.0;stroke:rgb(82.7%,82.7%,82.7%);stroke-dasharray:8,10;stroke-opacity:1.0" /><line class="toyplot-Datum" x1="116.78817471380718" x2="116.78817471380718" y1="30.0" y2="670.0" style="opacity:1.0;stroke:rgb(82.7%,82.7%,82.7%);stroke-dasharray:8,10;stroke-opacity:1.0" /><line class="toyplot-Datum" x1="87.59113103535539" x2="87.59113103535539" y1="30.0" y2="670.0" style="opacity:1.0;stroke:rgb(82.7%,82.7%,82.7%);stroke-dasharray:8,10;stroke-opacity:1.0" /><line class="toyplot-Datum" x1="58.39408735690359" x2="58.39408735690359" y1="30.0" y2="670.0" style="opacity:1.0;stroke:rgb(82.7%,82.7%,82.7%);stroke-dasharray:8,10;stroke-opacity:1.0" /><line class="toyplot-Datum" x1="29.197043678451795" x2="29.197043678451795" y1="30.0" y2="670.0" style="opacity:1.0;stroke:rgb(82.7%,82.7%,82.7%);stroke-dasharray:8,10;stroke-opacity:1.0" /></g></g><g class="toytree-mark-Toytree" id="te48c1fe21f884b469361d0296b1ecba5"><g class="toytree-Edges" style="fill:none;stroke:rgb(50.2%,50.2%,50.2%);stroke-linecap:round;stroke-opacity:1;stroke-width:2"><path d="M 14.4 80.5 L 14.4 118.4 L 35.9 118.4" id="102,101" /><path d="M 35.9 118.4 L 35.9 182.1 L 63.0 182.1" id="101,100" /><path d="M 63.0 182.1 L 63.0 78.1 L 292.0 78.1" id="100,99" /><path d="M 63.0 182.1 L 63.0 286.1 L 177.9 286.1" id="100,98" /><path d="M 292.0 78.1 L 292.0 89.4 L 294.8 89.4" id="99,97" /><path d="M 177.9 286.1 L 177.9 159.2 L 194.0 159.2" id="98,96" /><path d="M 177.9 286.1 L 177.9 412.9 L 186.6 412.9" id="98,95" /><path d="M 294.8 89.4 L 294.8 99.9 L 389.0 99.9" id="97,94" /><path d="M 194.0 159.2 L 194.0 136.1 L 372.2 136.1" id="96,93" /><path d="M 194.0 159.2 L 194.0 182.3 L 344.0 182.3" id="96,92" /><path d="M 186.6 412.9 L 186.6 349.2 L 318.9 349.2" id="95,91" /><path d="M 186.6 412.9 L 186.6 476.7 L 208.5 476.7" id="95,90" /><path d="M 389.0 99.9 L 389.0 109.0 L 432.8 109.0" id="94,89" /><path d="M 372.2 136.1 L 372.2 145.1 L 372.4 145.1" id="93,88" /><path d="M 344.0 182.3 L 344.0 201.4 L 394.1 201.4" id="92,87" /><path d="M 318.9 349.2 L 318.9 366.4 L 376.1 366.4" id="91,86" /><path d="M 208.5 476.7 L 208.5 488.9 L 267.0 488.9" id="90,85" /><path d="M 394.1 201.4 L 394.1 181.3 L 450.3 181.3" id="87,84" /><path d="M 394.1 201.4 L 394.1 221.6 L 399.2 221.6" id="87,83" /><path d="M 376.1 366.4 L 376.1 388.8 L 376.2 388.8" id="86,82" /><path d="M 267.0 488.9 L 267.0 501.3 L 274.9 501.3" id="85,81" /><path d="M 399.2 221.6 L 399.2 243.8 L 402.6 243.8" id="83,80" /><path d="M 376.2 388.8 L 376.2 365.1 L 428.9 365.1" id="82,79" /><path d="M 376.2 388.8 L 376.2 412.5 L 385.9 412.5" id="82,78" /><path d="M 274.9 501.3 L 274.9 514.0 L 319.5 514.0" id="81,77" /><path d="M 402.6 243.8 L 402.6 220.4 L 417.5 220.4" id="80,76" /><path d="M 402.6 243.8 L 402.6 267.1 L 418.2 267.1" id="80,75" /><path d="M 428.9 365.1 L 428.9 374.1 L 451.4 374.1" id="79,74" /><path d="M 385.9 412.5 L 385.9 398.2 L 409.3 398.2" id="78,73" /><path d="M 385.9 412.5 L 385.9 426.8 L 407.5 426.8" id="78,72" /><path d="M 319.5 514.0 L 319.5 527.4 L 333.1 527.4" id="77,71" /><path d="M 417.5 220.4 L 417.5 229.5 L 424.0 229.5" id="76,70" /><path d="M 418.2 267.1 L 418.2 286.7 L 419.8 286.7" id="75,69" /><path d="M 407.5 426.8 L 407.5 437.4 L 454.0 437.4" id="72,68" /><path d="M 333.1 527.4 L 333.1 542.0 L 340.6 542.0" id="71,67" /><path d="M 419.8 286.7 L 419.8 268.6 L 438.7 268.6" id="69,66" /><path d="M 419.8 286.7 L 419.8 304.8 L 428.0 304.8" id="69,65" /><path d="M 454.0 437.4 L 454.0 446.4 L 456.0 446.4" id="68,64" /><path d="M 340.6 542.0 L 340.6 559.3 L 368.6 559.3" id="67,63" /><path d="M 438.7 268.6 L 438.7 277.7 L 454.8 277.7" id="66,62" /><path d="M 428.0 304.8 L 428.0 313.8 L 442.7 313.8" id="65,61" /><path d="M 368.6 559.3 L 368.6 581.8 L 375.1 581.8" id="63,60" /><path d="M 375.1 581.8 L 375.1 557.9 L 393.9 557.9" id="60,59" /><path d="M 375.1 581.8 L 375.1 605.7 L 383.6 605.7" id="60,58" /><path d="M 393.9 557.9 L 393.9 566.9 L 403.3 566.9" id="59,57" /><path d="M 383.6 605.7 L 383.6 591.0 L 398.5 591.0" id="58,56" /><path d="M 383.6 605.7 L 383.6 620.4 L 407.9 620.4" id="58,55" /><path d="M 407.9 620.4 L 407.9 631.7 L 437.2 631.7" id="55,54" /><path d="M 437.2 631.7 L 437.2 642.3 L 448.7 642.3" id="54,53" /><path d="M 448.7 642.3 L 448.7 651.3 L 454.5 651.3" id="53,52" /><path d="M 14.4 80.5 L 14.4 42.7 L 258.3 42.7" id="102,51" /><path d="M 35.9 118.4 L 35.9 54.7 L 393.0 54.7" id="101,50" /><path d="M 292.0 78.1 L 292.0 66.8 L 467.1 66.8" id="99,49" /><path d="M 294.8 89.4 L 294.8 78.8 L 321.8 78.8" id="97,48" /><path d="M 389.0 99.9 L 389.0 90.9 L 389.0 90.9" id="94,47" /><path d="M 432.8 109.0 L 432.8 102.9 L 467.1 102.9" id="89,46" /><path d="M 432.8 109.0 L 432.8 115.0 L 467.1 115.0" id="89,45" /><path d="M 372.2 136.1 L 372.2 127.0 L 467.1 127.0" id="93,44" /><path d="M 372.4 145.1 L 372.4 139.1 L 402.2 139.1" id="88,43" /><path d="M 372.4 145.1 L 372.4 151.1 L 467.1 151.1" id="88,42" /><path d="M 344.0 182.3 L 344.0 163.2 L 344.0 163.2" id="92,41" /><path d="M 450.3 181.3 L 450.3 175.2 L 467.1 175.2" id="84,40" /><path d="M 450.3 181.3 L 450.3 187.3 L 467.1 187.3" id="84,39" /><path d="M 399.2 221.6 L 399.2 199.4 L 467.1 199.4" id="83,38" /><path d="M 417.5 220.4 L 417.5 211.4 L 467.1 211.4" id="76,37" /><path d="M 424.0 229.5 L 424.0 223.5 L 467.1 223.5" id="70,36" /><path d="M 424.0 229.5 L 424.0 235.5 L 467.1 235.5" id="70,35" /><path d="M 418.2 267.1 L 418.2 247.6 L 467.1 247.6" id="75,34" /><path d="M 438.7 268.6 L 438.7 259.6 L 467.1 259.6" id="66,33" /><path d="M 454.8 277.7 L 454.8 271.7 L 467.1 271.7" id="62,32" /><path d="M 454.8 277.7 L 454.8 283.7 L 467.1 283.7" id="62,31" /><path d="M 428.0 304.8 L 428.0 295.8 L 467.1 295.8" id="65,30" /><path d="M 442.7 313.8 L 442.7 307.8 L 467.1 307.8" id="61,29" /><path d="M 442.7 313.8 L 442.7 319.9 L 467.1 319.9" id="61,28" /><path d="M 318.9 349.2 L 318.9 331.9 L 370.5 331.9" id="91,27" /><path d="M 376.1 366.4 L 376.1 344.0 L 421.5 344.0" id="86,26" /><path d="M 428.9 365.1 L 428.9 356.0 L 467.2 356.0" id="79,25" /><path d="M 451.4 374.1 L 451.4 368.1 L 467.2 368.1" id="74,24" /><path d="M 451.4 374.1 L 451.4 380.1 L 467.2 380.1" id="74,23" /><path d="M 409.3 398.2 L 409.3 392.2 L 467.1 392.2" id="73,22" /><path d="M 409.3 398.2 L 409.3 404.2 L 409.3 404.2" id="73,21" /><path d="M 407.5 426.8 L 407.5 416.3 L 407.5 416.3" id="72,20" /><path d="M 454.0 437.4 L 454.0 428.3 L 467.1 428.3" id="68,19" /><path d="M 456.0 446.4 L 456.0 440.4 L 467.1 440.4" id="64,18" /><path d="M 456.0 446.4 L 456.0 452.4 L 467.1 452.4" id="64,17" /><path d="M 208.5 476.7 L 208.5 464.5 L 407.4 464.5" id="90,16" /><path d="M 267.0 488.9 L 267.0 476.5 L 290.7 476.5" id="85,15" /><path d="M 274.9 501.3 L 274.9 488.6 L 318.9 488.6" id="81,14" /><path d="M 319.5 514.0 L 319.5 500.6 L 467.1 500.6" id="77,13" /><path d="M 333.1 527.4 L 333.1 512.7 L 467.1 512.7" id="71,12" /><path d="M 340.6 542.0 L 340.6 524.8 L 467.1 524.8" id="67,11" /><path d="M 368.6 559.3 L 368.6 536.8 L 467.1 536.8" id="63,10" /><path d="M 393.9 557.9 L 393.9 548.9 L 467.1 548.9" id="59,9" /><path d="M 403.3 566.9 L 403.3 560.9 L 467.2 560.9" id="57,8" /><path d="M 403.3 566.9 L 403.3 573.0 L 467.2 573.0" id="57,7" /><path d="M 398.5 591.0 L 398.5 585.0 L 467.1 585.0" id="56,6" /><path d="M 398.5 591.0 L 398.5 597.1 L 467.1 597.1" id="56,5" /><path d="M 407.9 620.4 L 407.9 609.1 L 467.1 609.1" id="55,4" /><path d="M 437.2 631.7 L 437.2 621.2 L 467.1 621.2" id="54,3" /><path d="M 448.7 642.3 L 448.7 633.2 L 467.1 633.2" id="53,2" /><path d="M 454.5 651.3 L 454.5 645.3 L 467.1 645.3" id="52,1" /><path d="M 454.5 651.3 L 454.5 657.3 L 467.1 657.3" id="52,0" /></g><g class="toytree-TipLabels" style="fill:rgb(14.9%,14.9%,14.9%);fill-opacity:1.0;font-family:helvetica;font-size:12px;font-weight:normal;stroke:none;white-space:pre"><g transform="translate(467.15,657.32)rotate(0)"><text x="5.00" y="3.07" style="fill:rgb(57.6%,43.9%,85.9%);fill-opacity:1.0">Lahnda</text></g><g transform="translate(467.15,645.27)rotate(0)"><text x="5.00" y="3.07" style="fill:rgb(57.6%,43.9%,85.9%);fill-opacity:1.0">Panjabi</text></g><g transform="translate(467.15,633.22)rotate(0)"><text x="5.00" y="3.07" style="fill:rgb(57.6%,43.9%,85.9%);fill-opacity:1.0">Urdu</text></g><g transform="translate(467.15,621.17)rotate(0)"><text x="5.00" y="3.07" style="fill:rgb(57.6%,43.9%,85.9%);fill-opacity:1.0">Hindi</text></g><g transform="translate(467.15,609.12)rotate(0)"><text x="5.00" y="3.07" style="fill:rgb(57.6%,43.9%,85.9%);fill-opacity:1.0">Bihari</text></g><g transform="translate(467.15,597.06)rotate(0)"><text x="5.00" y="3.07" style="fill:rgb(57.6%,43.9%,85.9%);fill-opacity:1.0">Gujarati</text></g><g transform="translate(467.15,585.01)rotate(0)"><text x="5.00" y="3.07" style="fill:rgb(57.6%,43.9%,85.9%);fill-opacity:1.0">Marathi</text></g><g transform="translate(467.15,572.96)rotate(0)"><text x="5.00" y="3.07" style="fill:rgb(57.6%,43.9%,85.9%);fill-opacity:1.0">Assamese</text></g><g transform="translate(467.15,560.91)rotate(0)"><text x="5.00" y="3.07" style="fill:rgb(57.6%,43.9%,85.9%);fill-opacity:1.0">Oriya</text></g><g transform="translate(467.15,548.86)rotate(0)"><text x="5.00" y="3.07" style="fill:rgb(57.6%,43.9%,85.9%);fill-opacity:1.0">Bengali</text></g><g transform="translate(467.15,536.80)rotate(0)"><text x="5.00" y="3.07" style="fill:rgb(57.6%,43.9%,85.9%);fill-opacity:1.0">Nepali</text></g><g transform="translate(467.15,524.75)rotate(0)"><text x="5.00" y="3.07" style="fill:rgb(57.6%,43.9%,85.9%);fill-opacity:1.0">Kashmiri</text></g><g transform="translate(467.15,512.70)rotate(0)"><text x="5.00" y="3.07" style="fill:rgb(57.6%,43.9%,85.9%);fill-opacity:1.0">Romani</text></g><g transform="translate(467.15,500.65)rotate(0)"><text x="5.00" y="3.07" style="fill:rgb(57.6%,43.9%,85.9%);fill-opacity:1.0">Singhalese</text></g><g transform="translate(318.89,488.60)rotate(0)"><text x="5.00" y="3.07" style="fill:rgb(46.7%,53.3%,60%);fill-opacity:1.0">Avestan</text></g><g transform="translate(290.66,476.54)rotate(0)"><text x="5.00" y="3.07" style="fill:rgb(57.6%,43.9%,85.9%);fill-opacity:1.0">Vedic Sanskrit</text></g><g transform="translate(407.44,464.49)rotate(0)"><text x="5.00" y="3.07" style="fill:rgb(23.5%,70.2%,44.3%);fill-opacity:1.0">Old Church Slavic</text></g><g transform="translate(467.15,452.44)rotate(0)"><text x="5.00" y="3.07" style="fill:rgb(60.4%,80.4%,19.6%);fill-opacity:1.0">Swiss German</text></g><g transform="translate(467.15,440.39)rotate(0)"><text x="5.00" y="3.07" style="fill:rgb(60.4%,80.4%,19.6%);fill-opacity:1.0">Luxembourgish</text></g><g transform="translate(467.15,428.34)rotate(0)"><text x="5.00" y="3.07" style="fill:rgb(60.4%,80.4%,19.6%);fill-opacity:1.0">German</text></g><g transform="translate(407.53,416.29)rotate(0)"><text x="5.00" y="3.07" style="fill:rgb(60.4%,80.4%,19.6%);fill-opacity:1.0">Old High German</text></g><g transform="translate(409.31,404.23)rotate(0)"><text x="5.00" y="3.07" style="fill:rgb(60.4%,80.4%,19.6%);fill-opacity:1.0">Old English</text></g><g transform="translate(467.15,392.18)rotate(0)"><text x="5.00" y="3.07" style="fill:rgb(60.4%,80.4%,19.6%);fill-opacity:1.0">English</text></g><g transform="translate(467.15,380.13)rotate(0)"><text x="5.00" y="3.07" style="fill:rgb(60.4%,80.4%,19.6%);fill-opacity:1.0">Faroese</text></g><g transform="translate(467.15,368.08)rotate(0)"><text x="5.00" y="3.07" style="fill:rgb(60.4%,80.4%,19.6%);fill-opacity:1.0">Icelandic</text></g><g transform="translate(467.15,356.03)rotate(0)"><text x="5.00" y="3.07" style="fill:rgb(60.4%,80.4%,19.6%);fill-opacity:1.0">Norwegian</text></g><g transform="translate(421.55,343.97)rotate(0)"><text x="5.00" y="3.07" style="fill:rgb(60.4%,80.4%,19.6%);fill-opacity:1.0">Old West Norse</text></g><g transform="translate(370.51,331.92)rotate(0)"><text x="5.00" y="3.07" style="fill:rgb(60.4%,80.4%,19.6%);fill-opacity:1.0">Gothic</text></g><g transform="translate(467.14,319.87)rotate(0)"><text x="5.00" y="3.07" style="fill:rgb(87.1%,72.2%,52.9%);fill-opacity:1.0">Romansh</text></g><g transform="translate(467.14,307.82)rotate(0)"><text x="5.00" y="3.07" style="fill:rgb(87.1%,72.2%,52.9%);fill-opacity:1.0">Friulian</text></g><g transform="translate(467.14,295.77)rotate(0)"><text x="5.00" y="3.07" style="fill:rgb(87.1%,72.2%,52.9%);fill-opacity:1.0">Ladin</text></g><g transform="translate(467.15,283.71)rotate(0)"><text x="5.00" y="3.07" style="fill:rgb(87.1%,72.2%,52.9%);fill-opacity:1.0">Walloon</text></g><g transform="translate(467.15,271.66)rotate(0)"><text x="5.00" y="3.07" style="fill:rgb(87.1%,72.2%,52.9%);fill-opacity:1.0">French</text></g><g transform="translate(467.15,259.61)rotate(0)"><text x="5.00" y="3.07" style="fill:rgb(87.1%,72.2%,52.9%);fill-opacity:1.0">Provencal</text></g><g transform="translate(467.14,247.56)rotate(0)"><text x="5.00" y="3.07" style="fill:rgb(87.1%,72.2%,52.9%);fill-opacity:1.0">Italian</text></g><g transform="translate(467.15,235.51)rotate(0)"><text x="5.00" y="3.07" style="fill:rgb(87.1%,72.2%,52.9%);fill-opacity:1.0">Portuguese</text></g><g transform="translate(467.15,223.46)rotate(0)"><text x="5.00" y="3.07" style="fill:rgb(87.1%,72.2%,52.9%);fill-opacity:1.0">Spanish</text></g><g transform="translate(467.15,211.40)rotate(0)"><text x="5.00" y="3.07" style="fill:rgb(87.1%,72.2%,52.9%);fill-opacity:1.0">Catalan</text></g><g transform="translate(467.14,199.35)rotate(0)"><text x="5.00" y="3.07" style="fill:rgb(87.1%,72.2%,52.9%);fill-opacity:1.0">Romanian</text></g><g transform="translate(467.15,187.30)rotate(0)"><text x="5.00" y="3.07" style="fill:rgb(87.1%,72.2%,52.9%);fill-opacity:1.0">Nuorese</text></g><g transform="translate(467.15,175.25)rotate(0)"><text x="5.00" y="3.07" style="fill:rgb(87.1%,72.2%,52.9%);fill-opacity:1.0">Cagliari</text></g><g transform="translate(344.05,163.20)rotate(0)"><text x="5.00" y="3.07" style="fill:rgb(87.1%,72.2%,52.9%);fill-opacity:1.0">Latin</text></g><g transform="translate(467.15,151.14)rotate(0)"><text x="5.00" y="3.07" style="fill:rgb(73.7%,56.1%,56.1%);fill-opacity:1.0">Irish</text></g><g transform="translate(402.23,139.09)rotate(0)"><text x="5.00" y="3.07" style="fill:rgb(73.7%,56.1%,56.1%);fill-opacity:1.0">Old Irish</text></g><g transform="translate(467.15,127.04)rotate(0)"><text x="5.00" y="3.07" style="fill:rgb(73.7%,56.1%,56.1%);fill-opacity:1.0">Scots Gaelic</text></g><g transform="translate(467.14,114.99)rotate(0)"><text x="5.00" y="3.07" style="fill:rgb(27.5%,51%,70.6%);fill-opacity:1.0">Adapazar</text></g><g transform="translate(467.14,102.94)rotate(0)"><text x="5.00" y="3.07" style="fill:rgb(27.5%,51%,70.6%);fill-opacity:1.0">Eastern Armenian</text></g><g transform="translate(388.99,90.88)rotate(0)"><text x="5.00" y="3.07" style="fill:rgb(27.5%,51%,70.6%);fill-opacity:1.0">Classical Armenian</text></g><g transform="translate(321.83,78.83)rotate(0)"><text x="5.00" y="3.07" style="fill:rgb(12.5%,69.8%,66.7%);fill-opacity:1.0">Ancient Greek</text></g><g transform="translate(467.14,66.78)rotate(0)"><text x="5.00" y="3.07" style="fill:rgb(12.5%,69.8%,66.7%);fill-opacity:1.0">Modern Greek</text></g><g transform="translate(392.96,54.73)rotate(0)"><text x="5.00" y="3.07" style="fill:rgb(91.4%,58.8%,47.8%);fill-opacity:1.0">Tocharian B</text></g><g transform="translate(258.33,42.68)rotate(0)"><text x="5.00" y="3.07" style="fill:rgb(54.5%,27.1%,7.45%);fill-opacity:1.0">Hittite</text></g></g></g></g><g class="toyplot-coordinates-Axis" id="t9ae5116ee2044b7397a40af9c1d81409" transform="translate(0.0,30.0)translate(0,-5.0)"><g><g transform="translate(467.1526988552287,-6)"><text x="-2.78" y="-4.440892098500626e-16" style="fill:rgb(16.1%,15.3%,14.1%);fill-opacity:1.0;font-family:helvetica;font-size:10.0px;font-weight:normal;stroke:none;vertical-align:baseline;white-space:pre">0</text></g><g transform="translate(437.95565517677693,-6)"><text x="-8.34" y="-4.440892098500626e-16" style="fill:rgb(16.1%,15.3%,14.1%);fill-opacity:1.0;font-family:helvetica;font-size:10.0px;font-weight:normal;stroke:none;vertical-align:baseline;white-space:pre">500</text></g><g transform="translate(408.7586114983251,-6)"><text x="-11.12" y="-4.440892098500626e-16" style="fill:rgb(16.1%,15.3%,14.1%);fill-opacity:1.0;font-family:helvetica;font-size:10.0px;font-weight:normal;stroke:none;vertical-align:baseline;white-space:pre">1000</text></g><g transform="translate(379.56156781987335,-6)"><text x="-11.12" y="-4.440892098500626e-16" style="fill:rgb(16.1%,15.3%,14.1%);fill-opacity:1.0;font-family:helvetica;font-size:10.0px;font-weight:normal;stroke:none;vertical-align:baseline;white-space:pre">1500</text></g><g transform="translate(350.36452414142155,-6)"><text x="-11.12" y="-4.440892098500626e-16" style="fill:rgb(16.1%,15.3%,14.1%);fill-opacity:1.0;font-family:helvetica;font-size:10.0px;font-weight:normal;stroke:none;vertical-align:baseline;white-space:pre">2000</text></g><g transform="translate(321.1674804629697,-6)"><text x="-11.12" y="-4.440892098500626e-16" style="fill:rgb(16.1%,15.3%,14.1%);fill-opacity:1.0;font-family:helvetica;font-size:10.0px;font-weight:normal;stroke:none;vertical-align:baseline;white-space:pre">2500</text></g><g transform="translate(291.970436784518,-6)"><text x="-11.12" y="-4.440892098500626e-16" style="fill:rgb(16.1%,15.3%,14.1%);fill-opacity:1.0;font-family:helvetica;font-size:10.0px;font-weight:normal;stroke:none;vertical-align:baseline;white-space:pre">3000</text></g><g transform="translate(262.7733931060662,-6)"><text x="-11.12" y="-4.440892098500626e-16" style="fill:rgb(16.1%,15.3%,14.1%);fill-opacity:1.0;font-family:helvetica;font-size:10.0px;font-weight:normal;stroke:none;vertical-align:baseline;white-space:pre">3500</text></g><g transform="translate(233.57634942761436,-6)"><text x="-11.12" y="-4.440892098500626e-16" style="fill:rgb(16.1%,15.3%,14.1%);fill-opacity:1.0;font-family:helvetica;font-size:10.0px;font-weight:normal;stroke:none;vertical-align:baseline;white-space:pre">4000</text></g><g transform="translate(204.37930574916254,-6)"><text x="-11.12" y="-4.440892098500626e-16" style="fill:rgb(16.1%,15.3%,14.1%);fill-opacity:1.0;font-family:helvetica;font-size:10.0px;font-weight:normal;stroke:none;vertical-align:baseline;white-space:pre">4500</text></g><g transform="translate(175.18226207071078,-6)"><text x="-11.12" y="-4.440892098500626e-16" style="fill:rgb(16.1%,15.3%,14.1%);fill-opacity:1.0;font-family:helvetica;font-size:10.0px;font-weight:normal;stroke:none;vertical-align:baseline;white-space:pre">5000</text></g><g transform="translate(145.985218392259,-6)"><text x="-11.12" y="-4.440892098500626e-16" style="fill:rgb(16.1%,15.3%,14.1%);fill-opacity:1.0;font-family:helvetica;font-size:10.0px;font-weight:normal;stroke:none;vertical-align:baseline;white-space:pre">5500</text></g><g transform="translate(116.78817471380718,-6)"><text x="-11.12" y="-4.440892098500626e-16" style="fill:rgb(16.1%,15.3%,14.1%);fill-opacity:1.0;font-family:helvetica;font-size:10.0px;font-weight:normal;stroke:none;vertical-align:baseline;white-space:pre">6000</text></g><g transform="translate(87.59113103535539,-6)"><text x="-11.12" y="-4.440892098500626e-16" style="fill:rgb(16.1%,15.3%,14.1%);fill-opacity:1.0;font-family:helvetica;font-size:10.0px;font-weight:normal;stroke:none;vertical-align:baseline;white-space:pre">6500</text></g><g transform="translate(58.39408735690359,-6)"><text x="-11.12" y="-4.440892098500626e-16" style="fill:rgb(16.1%,15.3%,14.1%);fill-opacity:1.0;font-family:helvetica;font-size:10.0px;font-weight:normal;stroke:none;vertical-align:baseline;white-space:pre">7000</text></g><g transform="translate(29.197043678451795,-6)"><text x="-11.12" y="-4.440892098500626e-16" style="fill:rgb(16.1%,15.3%,14.1%);fill-opacity:1.0;font-family:helvetica;font-size:10.0px;font-weight:normal;stroke:none;vertical-align:baseline;white-space:pre">7500</text></g></g><g class="toyplot-coordinates-Axis-coordinates" style="visibility:hidden" transform=""><line x1="0" x2="0" y1="3.0" y2="-4.5" style="stroke:rgb(43.9%,50.2%,56.5%);stroke-opacity:1.0;stroke-width:1.0" /><text x="0" y="6" style="alignment-baseline:hanging;fill:rgb(43.9%,50.2%,56.5%);fill-opacity:1.0;font-size:10px;font-weight:normal;stroke:none;text-anchor:middle" /></g></g></g><g class="toyplot-mark-Text" id="tb5b165f8447747d99521aabb8d213cdc"><g class="toyplot-Series"><g class="toyplot-Datum" transform="translate(150.0,650.0)"><text x="-106.56" y="4.599" style="fill:rgb(16.1%,15.3%,14.1%);fill-opacity:1.0;font-family:helvetica;font-size:18.0px;font-weight:normal;opacity:1;stroke:none;vertical-align:baseline;white-space:pre">Root Age: 7754 years B.P.</text></g></g></g></svg>